G04 #@! TF.GenerationSoftware,KiCad,Pcbnew,7.0.8*
G04 #@! TF.CreationDate,2023-10-08T23:51:26-04:00*
G04 #@! TF.ProjectId,Mainboard-small-buttons,4d61696e-626f-4617-9264-2d736d616c6c,rev?*
G04 #@! TF.SameCoordinates,Original*
G04 #@! TF.FileFunction,Profile,NP*
%FSLAX46Y46*%
G04 Gerber Fmt 4.6, Leading zero omitted, Abs format (unit mm)*
G04 Created by KiCad (PCBNEW 7.0.8) date 2023-10-08 23:51:26*
%MOMM*%
%LPD*%
G01*
G04 APERTURE LIST*
G04 #@! TA.AperFunction,Profile*
%ADD10C,0.200000*%
G04 #@! TD*
G04 APERTURE END LIST*
D10*
X107736894Y-89348256D02*
X107739473Y-100630722D01*
X101727037Y-48478180D02*
G75*
G03*
X103726580Y-46478236I-437J1999980D01*
G01*
X131480730Y-20255515D02*
X131482127Y-26364388D01*
X99727552Y-48478709D02*
G75*
G03*
X97728009Y-50479150I448J-1999991D01*
G01*
X125482584Y-30364846D02*
X125482584Y-36473262D01*
X153249733Y-108773656D02*
G75*
G03*
X150248056Y-111776770I667J-3002344D01*
G01*
X101727037Y-48478236D02*
X99727552Y-48478693D01*
X97728009Y-50479150D02*
X97735980Y-85350542D01*
X107736887Y-89348256D02*
G75*
G03*
X105736437Y-87348713I-1999987J-444D01*
G01*
X123483041Y-38473262D02*
X105726122Y-38477322D01*
X135357661Y-122098861D02*
G75*
G03*
X135357661Y-122098861I-1601261J0D01*
G01*
X103726580Y-40477322D02*
X103726580Y-42478236D01*
X103726580Y-42478236D02*
X103726580Y-46478236D01*
X150250598Y-122897625D02*
X150248056Y-111776770D01*
X97736015Y-85350542D02*
G75*
G03*
X99736437Y-87350085I1999985J442D01*
G01*
X129482127Y-28364846D02*
X127482584Y-28364846D01*
X127482584Y-28364884D02*
G75*
G03*
X125482584Y-30364846I16J-2000016D01*
G01*
X193168061Y-89865200D02*
G75*
G03*
X193168061Y-89865200I-1601261J0D01*
G01*
X129482127Y-28364827D02*
G75*
G03*
X131482127Y-26364388I-27J2000027D01*
G01*
X101498400Y-60096400D02*
G75*
G03*
X101498400Y-60096400I-1601261J0D01*
G01*
X139126318Y-125451867D02*
G75*
G03*
X150250598Y-122897624I-198618J26366467D01*
G01*
X99736437Y-87350085D02*
X105736437Y-87348713D01*
X136475261Y-21336000D02*
G75*
G03*
X136475261Y-21336000I-1601261J0D01*
G01*
X107739469Y-119274331D02*
G75*
G03*
X113922473Y-125457331I6183031J31D01*
G01*
X195553153Y-85181377D02*
X195543799Y-44261360D01*
X123483041Y-38473284D02*
G75*
G03*
X125482584Y-36473262I-441J1999984D01*
G01*
X107739473Y-100630722D02*
X107739473Y-119274331D01*
X133480273Y-18255130D02*
G75*
G03*
X131480730Y-20255515I427J-1999970D01*
G01*
X105726122Y-38477280D02*
G75*
G03*
X103726580Y-40477322I478J-2000020D01*
G01*
X195543779Y-44261360D02*
G75*
G03*
X169517363Y-18246821I-26020479J-5940D01*
G01*
X113922473Y-125457331D02*
X139126318Y-125451875D01*
X169517363Y-18246820D02*
X133480273Y-18255058D01*
X191593261Y-34899600D02*
G75*
G03*
X191593261Y-34899600I-1601261J0D01*
G01*
X153249733Y-108773620D02*
X180534945Y-108767383D01*
X180534945Y-108767382D02*
G75*
G03*
X195553152Y-85181377I-11002325J23580012D01*
G01*
M02*
