G04 #@! TF.GenerationSoftware,KiCad,Pcbnew,7.0.8*
G04 #@! TF.CreationDate,2023-10-08T23:51:26-04:00*
G04 #@! TF.ProjectId,Mainboard-small-buttons,4d61696e-626f-4617-9264-2d736d616c6c,rev?*
G04 #@! TF.SameCoordinates,Original*
G04 #@! TF.FileFunction,Soldermask,Bot*
G04 #@! TF.FilePolarity,Negative*
%FSLAX46Y46*%
G04 Gerber Fmt 4.6, Leading zero omitted, Abs format (unit mm)*
G04 Created by KiCad (PCBNEW 7.0.8) date 2023-10-08 23:51:26*
%MOMM*%
%LPD*%
G01*
G04 APERTURE LIST*
G04 Aperture macros list*
%AMRoundRect*
0 Rectangle with rounded corners*
0 $1 Rounding radius*
0 $2 $3 $4 $5 $6 $7 $8 $9 X,Y pos of 4 corners*
0 Add a 4 corners polygon primitive as box body*
4,1,4,$2,$3,$4,$5,$6,$7,$8,$9,$2,$3,0*
0 Add four circle primitives for the rounded corners*
1,1,$1+$1,$2,$3*
1,1,$1+$1,$4,$5*
1,1,$1+$1,$6,$7*
1,1,$1+$1,$8,$9*
0 Add four rect primitives between the rounded corners*
20,1,$1+$1,$2,$3,$4,$5,0*
20,1,$1+$1,$4,$5,$6,$7,0*
20,1,$1+$1,$6,$7,$8,$9,0*
20,1,$1+$1,$8,$9,$2,$3,0*%
G04 Aperture macros list end*
%ADD10C,2.000000*%
%ADD11C,1.600000*%
%ADD12RoundRect,0.250000X0.350000X0.625000X-0.350000X0.625000X-0.350000X-0.625000X0.350000X-0.625000X0*%
%ADD13O,1.200000X1.750000*%
%ADD14C,2.100000*%
%ADD15C,1.500000*%
%ADD16O,1.803200X3.403200*%
%ADD17O,3.403200X1.803200*%
%ADD18RoundRect,0.101600X-0.400000X0.400000X-0.400000X-0.400000X0.400000X-0.400000X0.400000X0.400000X0*%
%ADD19R,1.800000X1.800000*%
%ADD20O,1.800000X1.800000*%
%ADD21RoundRect,0.250000X0.625000X-0.350000X0.625000X0.350000X-0.625000X0.350000X-0.625000X-0.350000X0*%
%ADD22O,1.750000X1.200000*%
%ADD23RoundRect,0.225000X0.375000X-0.225000X0.375000X0.225000X-0.375000X0.225000X-0.375000X-0.225000X0*%
G04 APERTURE END LIST*
D10*
X151957706Y-89774723D03*
X151957706Y-94854723D03*
D11*
X151957706Y-99934723D03*
D10*
X142562747Y-47432843D03*
X142562747Y-52512843D03*
D11*
X142562747Y-57592843D03*
D10*
X179128254Y-44233775D03*
X179128254Y-49313775D03*
D11*
X179128254Y-54393775D03*
D10*
X100353557Y-76156331D03*
X106853557Y-76156331D03*
X100353557Y-80656331D03*
X106853557Y-80656331D03*
X153918524Y-23080300D03*
X153918524Y-28160300D03*
D11*
X153918524Y-33240300D03*
D10*
X137402862Y-101987687D03*
X137402862Y-107067687D03*
D11*
X137402862Y-112147687D03*
D10*
X160416907Y-40934460D03*
X160416907Y-46014460D03*
D11*
X160416907Y-51094460D03*
D10*
X122848017Y-114200652D03*
X122848017Y-119280652D03*
D11*
X122848017Y-124360652D03*
D10*
X131664795Y-31868954D03*
X131664795Y-36948954D03*
D11*
X131664795Y-42028954D03*
D10*
X130349783Y-61987687D03*
X130349783Y-67067687D03*
D11*
X130349783Y-72147687D03*
D12*
X117830600Y-39979600D03*
D13*
X115830600Y-39979600D03*
X113830600Y-39979600D03*
X111830600Y-39979600D03*
X109830600Y-39979600D03*
X107830600Y-39979600D03*
D10*
X112853557Y-76156331D03*
X119353557Y-76156331D03*
X112853557Y-80656331D03*
X119353557Y-80656331D03*
X115794938Y-49774723D03*
X115794938Y-54854723D03*
D11*
X115794938Y-59934723D03*
D10*
X177472295Y-25306076D03*
X177472295Y-30386076D03*
D11*
X177472295Y-35466076D03*
D10*
X134103546Y-83276340D03*
X134103546Y-88356340D03*
D11*
X134103546Y-93436340D03*
D10*
X119548702Y-95489304D03*
X119548702Y-100569304D03*
D11*
X119548702Y-105649304D03*
D14*
X191394000Y-65928000D03*
X144394000Y-65928000D03*
D15*
X143894000Y-68903000D03*
X146924000Y-69203000D03*
X146924000Y-74053000D03*
X143894000Y-74353000D03*
D14*
X191394000Y-77328000D03*
X144394000Y-77328000D03*
D16*
X153924000Y-81318000D03*
X151384000Y-81318000D03*
X156464000Y-81318000D03*
X161544000Y-81318000D03*
X148844000Y-61938000D03*
X161544000Y-61938000D03*
X174244000Y-61938000D03*
X186944000Y-61938000D03*
D17*
X192594000Y-71628000D03*
D16*
X186944000Y-81318000D03*
X174244000Y-81318000D03*
X148844000Y-81318000D03*
X143764000Y-61938000D03*
X146304000Y-61938000D03*
X151384000Y-61938000D03*
X153924000Y-61938000D03*
X156464000Y-61938000D03*
X159004000Y-61938000D03*
X164084000Y-61938000D03*
X166624000Y-61938000D03*
X169164000Y-61938000D03*
X171704000Y-61938000D03*
X176784000Y-61938000D03*
X179324000Y-61938000D03*
X181864000Y-61938000D03*
X184404000Y-61938000D03*
X189484000Y-61938000D03*
X192024000Y-61938000D03*
X192024000Y-81318000D03*
X189484000Y-81318000D03*
X184404000Y-81318000D03*
X181864000Y-81318000D03*
X179324000Y-81318000D03*
X176784000Y-81318000D03*
X171704000Y-81318000D03*
X166624000Y-81318000D03*
X164084000Y-81318000D03*
X159004000Y-81318000D03*
X169164000Y-81318000D03*
D17*
X192594000Y-69088000D03*
X192594000Y-74168000D03*
D18*
X143594000Y-72628000D03*
X143594000Y-70628000D03*
D16*
X143764000Y-81318000D03*
X146304000Y-81318000D03*
D19*
X104902000Y-58928000D03*
D20*
X104902000Y-48768000D03*
D21*
X106273600Y-67157600D03*
D22*
X106273600Y-65157600D03*
D21*
X182626000Y-98266000D03*
D22*
X182626000Y-96266000D03*
X182626000Y-94266000D03*
X182626000Y-92266000D03*
X182626000Y-90266000D03*
X182626000Y-88266000D03*
D23*
X100076000Y-55752000D03*
X100076000Y-52452000D03*
M02*
