%TF.GenerationSoftware,KiCad,Pcbnew,7.0.8*%
%TF.CreationDate,2023-10-08T23:51:36-04:00*%
%TF.ProjectId,Mainboard-small-buttons,4d61696e-626f-4617-9264-2d736d616c6c,rev?*%
%TF.SameCoordinates,Original*%
%TF.FileFunction,Drillmap*%
%TF.FilePolarity,Positive*%
%FSLAX45Y45*%
G04 Gerber Fmt 4.5, Leading zero omitted, Abs format (unit mm)*
G04 Created by KiCad (PCBNEW 7.0.8) date 2023-10-08 23:51:36*
%MOMM*%
%LPD*%
G01*
G04 APERTURE LIST*
%ADD10C,0.200000*%
%ADD11C,0.150000*%
%ADD12C,0.210000*%
G04 APERTURE END LIST*
D10*
X10773689Y-8934826D02*
X10773947Y-10063072D01*
X10172704Y-4847818D02*
G75*
G03*
X10372658Y-4647824I-44J199998D01*
G01*
X13148073Y-2025551D02*
X13148213Y-2636439D01*
X9972755Y-4847871D02*
G75*
G03*
X9772801Y-5047915I45J-199999D01*
G01*
X12548258Y-3036485D02*
X12548258Y-3647326D01*
X15324973Y-10877366D02*
G75*
G03*
X15024806Y-11177677I67J-300234D01*
G01*
X10172704Y-4847824D02*
X9972755Y-4847869D01*
X9772801Y-5047915D02*
X9773598Y-8535054D01*
X10773689Y-8934826D02*
G75*
G03*
X10573644Y-8734871I-199999J-44D01*
G01*
X12348304Y-3847326D02*
X10572612Y-3847732D01*
X13535766Y-12209886D02*
G75*
G03*
X13535766Y-12209886I-160126J0D01*
G01*
X10372658Y-4047732D02*
X10372658Y-4247824D01*
X10372658Y-4247824D02*
X10372658Y-4647824D01*
X15025060Y-12289762D02*
X15024806Y-11177677D01*
X9773602Y-8535054D02*
G75*
G03*
X9973644Y-8735009I199999J44D01*
G01*
X12948213Y-2836485D02*
X12748258Y-2836485D01*
X12748258Y-2836488D02*
G75*
G03*
X12548258Y-3036485I2J-200002D01*
G01*
X19316806Y-8986520D02*
G75*
G03*
X19316806Y-8986520I-160126J0D01*
G01*
X12948213Y-2836483D02*
G75*
G03*
X13148213Y-2636439I-3J200003D01*
G01*
X10149840Y-6009640D02*
G75*
G03*
X10149840Y-6009640I-160126J0D01*
G01*
X13912632Y-12545187D02*
G75*
G03*
X15025060Y-12289762I-19862J2636647D01*
G01*
X9973644Y-8735009D02*
X10573644Y-8734871D01*
X13647526Y-2133600D02*
G75*
G03*
X13647526Y-2133600I-160126J0D01*
G01*
X10773947Y-11927433D02*
G75*
G03*
X11392247Y-12545733I618303J3D01*
G01*
X19555315Y-8518138D02*
X19554380Y-4426136D01*
X12348304Y-3847328D02*
G75*
G03*
X12548258Y-3647326I-44J199998D01*
G01*
X10773947Y-10063072D02*
X10773947Y-11927433D01*
X13348027Y-1825513D02*
G75*
G03*
X13148073Y-2025551I43J-199997D01*
G01*
X10572612Y-3847728D02*
G75*
G03*
X10372658Y-4047732I48J-200002D01*
G01*
X19554378Y-4426136D02*
G75*
G03*
X16951736Y-1824682I-2602048J-594D01*
G01*
X11392247Y-12545733D02*
X13912632Y-12545187D01*
X16951736Y-1824682D02*
X13348027Y-1825506D01*
X19159326Y-3489960D02*
G75*
G03*
X19159326Y-3489960I-160126J0D01*
G01*
X15324973Y-10877362D02*
X18053495Y-10876738D01*
X18053495Y-10876738D02*
G75*
G03*
X19555315Y-8518138I-1100233J2358001D01*
G01*
D11*
X14314400Y-6815300D02*
X14464400Y-6965300D01*
X14464400Y-6815300D02*
X14314400Y-6965300D01*
X14314400Y-7360300D02*
X14464400Y-7510300D01*
X14464400Y-7360300D02*
X14314400Y-7510300D01*
X14617400Y-6845300D02*
X14767400Y-6995300D01*
X14767400Y-6845300D02*
X14617400Y-6995300D01*
X14617400Y-7330300D02*
X14767400Y-7480300D01*
X14767400Y-7330300D02*
X14617400Y-7480300D01*
D12*
X14544400Y-6592800D02*
G75*
G03*
X14544400Y-6592800I-105000J0D01*
G01*
X14544400Y-7732800D02*
G75*
G03*
X14544400Y-7732800I-105000J0D01*
G01*
X19244400Y-6592800D02*
G75*
G03*
X19244400Y-6592800I-105000J0D01*
G01*
X19244400Y-7732800D02*
G75*
G03*
X19244400Y-7732800I-105000J0D01*
G01*
D10*
X10023578Y-12867217D02*
X10023578Y-12667217D01*
X10023578Y-12667217D02*
X10071197Y-12667217D01*
X10071197Y-12667217D02*
X10099768Y-12676741D01*
X10099768Y-12676741D02*
X10118816Y-12695788D01*
X10118816Y-12695788D02*
X10128340Y-12714836D01*
X10128340Y-12714836D02*
X10137863Y-12752931D01*
X10137863Y-12752931D02*
X10137863Y-12781503D01*
X10137863Y-12781503D02*
X10128340Y-12819598D01*
X10128340Y-12819598D02*
X10118816Y-12838645D01*
X10118816Y-12838645D02*
X10099768Y-12857693D01*
X10099768Y-12857693D02*
X10071197Y-12867217D01*
X10071197Y-12867217D02*
X10023578Y-12867217D01*
X10223578Y-12867217D02*
X10223578Y-12733883D01*
X10223578Y-12771979D02*
X10233102Y-12752931D01*
X10233102Y-12752931D02*
X10242625Y-12743407D01*
X10242625Y-12743407D02*
X10261673Y-12733883D01*
X10261673Y-12733883D02*
X10280721Y-12733883D01*
X10347387Y-12867217D02*
X10347387Y-12733883D01*
X10347387Y-12667217D02*
X10337863Y-12676741D01*
X10337863Y-12676741D02*
X10347387Y-12686264D01*
X10347387Y-12686264D02*
X10356911Y-12676741D01*
X10356911Y-12676741D02*
X10347387Y-12667217D01*
X10347387Y-12667217D02*
X10347387Y-12686264D01*
X10471197Y-12867217D02*
X10452149Y-12857693D01*
X10452149Y-12857693D02*
X10442625Y-12838645D01*
X10442625Y-12838645D02*
X10442625Y-12667217D01*
X10575959Y-12867217D02*
X10556911Y-12857693D01*
X10556911Y-12857693D02*
X10547387Y-12838645D01*
X10547387Y-12838645D02*
X10547387Y-12667217D01*
X10804530Y-12867217D02*
X10804530Y-12667217D01*
X10804530Y-12667217D02*
X10871197Y-12810074D01*
X10871197Y-12810074D02*
X10937863Y-12667217D01*
X10937863Y-12667217D02*
X10937863Y-12867217D01*
X11118816Y-12867217D02*
X11118816Y-12762455D01*
X11118816Y-12762455D02*
X11109292Y-12743407D01*
X11109292Y-12743407D02*
X11090244Y-12733883D01*
X11090244Y-12733883D02*
X11052149Y-12733883D01*
X11052149Y-12733883D02*
X11033102Y-12743407D01*
X11118816Y-12857693D02*
X11099768Y-12867217D01*
X11099768Y-12867217D02*
X11052149Y-12867217D01*
X11052149Y-12867217D02*
X11033102Y-12857693D01*
X11033102Y-12857693D02*
X11023578Y-12838645D01*
X11023578Y-12838645D02*
X11023578Y-12819598D01*
X11023578Y-12819598D02*
X11033102Y-12800550D01*
X11033102Y-12800550D02*
X11052149Y-12791026D01*
X11052149Y-12791026D02*
X11099768Y-12791026D01*
X11099768Y-12791026D02*
X11118816Y-12781503D01*
X11214054Y-12733883D02*
X11214054Y-12933883D01*
X11214054Y-12743407D02*
X11233101Y-12733883D01*
X11233101Y-12733883D02*
X11271197Y-12733883D01*
X11271197Y-12733883D02*
X11290244Y-12743407D01*
X11290244Y-12743407D02*
X11299768Y-12752931D01*
X11299768Y-12752931D02*
X11309292Y-12771979D01*
X11309292Y-12771979D02*
X11309292Y-12829122D01*
X11309292Y-12829122D02*
X11299768Y-12848169D01*
X11299768Y-12848169D02*
X11290244Y-12857693D01*
X11290244Y-12857693D02*
X11271197Y-12867217D01*
X11271197Y-12867217D02*
X11233101Y-12867217D01*
X11233101Y-12867217D02*
X11214054Y-12857693D01*
X11395006Y-12848169D02*
X11404530Y-12857693D01*
X11404530Y-12857693D02*
X11395006Y-12867217D01*
X11395006Y-12867217D02*
X11385482Y-12857693D01*
X11385482Y-12857693D02*
X11395006Y-12848169D01*
X11395006Y-12848169D02*
X11395006Y-12867217D01*
X11395006Y-12743407D02*
X11404530Y-12752931D01*
X11404530Y-12752931D02*
X11395006Y-12762455D01*
X11395006Y-12762455D02*
X11385482Y-12752931D01*
X11385482Y-12752931D02*
X11395006Y-12743407D01*
X11395006Y-12743407D02*
X11395006Y-12762455D01*
D11*
X9612801Y-13120733D02*
X9762801Y-13270733D01*
X9762801Y-13120733D02*
X9612801Y-13270733D01*
D10*
X10128340Y-13287217D02*
X10014054Y-13287217D01*
X10071197Y-13287217D02*
X10071197Y-13087217D01*
X10071197Y-13087217D02*
X10052149Y-13115788D01*
X10052149Y-13115788D02*
X10033102Y-13134836D01*
X10033102Y-13134836D02*
X10014054Y-13144360D01*
X10214054Y-13268169D02*
X10223578Y-13277693D01*
X10223578Y-13277693D02*
X10214054Y-13287217D01*
X10214054Y-13287217D02*
X10204530Y-13277693D01*
X10204530Y-13277693D02*
X10214054Y-13268169D01*
X10214054Y-13268169D02*
X10214054Y-13287217D01*
X10404530Y-13087217D02*
X10309292Y-13087217D01*
X10309292Y-13087217D02*
X10299768Y-13182455D01*
X10299768Y-13182455D02*
X10309292Y-13172931D01*
X10309292Y-13172931D02*
X10328340Y-13163407D01*
X10328340Y-13163407D02*
X10375959Y-13163407D01*
X10375959Y-13163407D02*
X10395006Y-13172931D01*
X10395006Y-13172931D02*
X10404530Y-13182455D01*
X10404530Y-13182455D02*
X10414054Y-13201503D01*
X10414054Y-13201503D02*
X10414054Y-13249122D01*
X10414054Y-13249122D02*
X10404530Y-13268169D01*
X10404530Y-13268169D02*
X10395006Y-13277693D01*
X10395006Y-13277693D02*
X10375959Y-13287217D01*
X10375959Y-13287217D02*
X10328340Y-13287217D01*
X10328340Y-13287217D02*
X10309292Y-13277693D01*
X10309292Y-13277693D02*
X10299768Y-13268169D01*
X10537863Y-13087217D02*
X10556911Y-13087217D01*
X10556911Y-13087217D02*
X10575959Y-13096741D01*
X10575959Y-13096741D02*
X10585483Y-13106264D01*
X10585483Y-13106264D02*
X10595006Y-13125312D01*
X10595006Y-13125312D02*
X10604530Y-13163407D01*
X10604530Y-13163407D02*
X10604530Y-13211026D01*
X10604530Y-13211026D02*
X10595006Y-13249122D01*
X10595006Y-13249122D02*
X10585483Y-13268169D01*
X10585483Y-13268169D02*
X10575959Y-13277693D01*
X10575959Y-13277693D02*
X10556911Y-13287217D01*
X10556911Y-13287217D02*
X10537863Y-13287217D01*
X10537863Y-13287217D02*
X10518816Y-13277693D01*
X10518816Y-13277693D02*
X10509292Y-13268169D01*
X10509292Y-13268169D02*
X10499768Y-13249122D01*
X10499768Y-13249122D02*
X10490244Y-13211026D01*
X10490244Y-13211026D02*
X10490244Y-13163407D01*
X10490244Y-13163407D02*
X10499768Y-13125312D01*
X10499768Y-13125312D02*
X10509292Y-13106264D01*
X10509292Y-13106264D02*
X10518816Y-13096741D01*
X10518816Y-13096741D02*
X10537863Y-13087217D01*
X10728340Y-13087217D02*
X10747387Y-13087217D01*
X10747387Y-13087217D02*
X10766435Y-13096741D01*
X10766435Y-13096741D02*
X10775959Y-13106264D01*
X10775959Y-13106264D02*
X10785483Y-13125312D01*
X10785483Y-13125312D02*
X10795006Y-13163407D01*
X10795006Y-13163407D02*
X10795006Y-13211026D01*
X10795006Y-13211026D02*
X10785483Y-13249122D01*
X10785483Y-13249122D02*
X10775959Y-13268169D01*
X10775959Y-13268169D02*
X10766435Y-13277693D01*
X10766435Y-13277693D02*
X10747387Y-13287217D01*
X10747387Y-13287217D02*
X10728340Y-13287217D01*
X10728340Y-13287217D02*
X10709292Y-13277693D01*
X10709292Y-13277693D02*
X10699768Y-13268169D01*
X10699768Y-13268169D02*
X10690244Y-13249122D01*
X10690244Y-13249122D02*
X10680721Y-13211026D01*
X10680721Y-13211026D02*
X10680721Y-13163407D01*
X10680721Y-13163407D02*
X10690244Y-13125312D01*
X10690244Y-13125312D02*
X10699768Y-13106264D01*
X10699768Y-13106264D02*
X10709292Y-13096741D01*
X10709292Y-13096741D02*
X10728340Y-13087217D01*
X10880721Y-13287217D02*
X10880721Y-13153883D01*
X10880721Y-13172931D02*
X10890244Y-13163407D01*
X10890244Y-13163407D02*
X10909292Y-13153883D01*
X10909292Y-13153883D02*
X10937864Y-13153883D01*
X10937864Y-13153883D02*
X10956911Y-13163407D01*
X10956911Y-13163407D02*
X10966435Y-13182455D01*
X10966435Y-13182455D02*
X10966435Y-13287217D01*
X10966435Y-13182455D02*
X10975959Y-13163407D01*
X10975959Y-13163407D02*
X10995006Y-13153883D01*
X10995006Y-13153883D02*
X11023578Y-13153883D01*
X11023578Y-13153883D02*
X11042625Y-13163407D01*
X11042625Y-13163407D02*
X11052149Y-13182455D01*
X11052149Y-13182455D02*
X11052149Y-13287217D01*
X11147387Y-13287217D02*
X11147387Y-13153883D01*
X11147387Y-13172931D02*
X11156911Y-13163407D01*
X11156911Y-13163407D02*
X11175959Y-13153883D01*
X11175959Y-13153883D02*
X11204530Y-13153883D01*
X11204530Y-13153883D02*
X11223578Y-13163407D01*
X11223578Y-13163407D02*
X11233102Y-13182455D01*
X11233102Y-13182455D02*
X11233102Y-13287217D01*
X11233102Y-13182455D02*
X11242625Y-13163407D01*
X11242625Y-13163407D02*
X11261673Y-13153883D01*
X11261673Y-13153883D02*
X11290244Y-13153883D01*
X11290244Y-13153883D02*
X11309292Y-13163407D01*
X11309292Y-13163407D02*
X11318816Y-13182455D01*
X11318816Y-13182455D02*
X11318816Y-13287217D01*
X11709292Y-13077693D02*
X11537864Y-13334836D01*
X11966435Y-13087217D02*
X11985483Y-13087217D01*
X11985483Y-13087217D02*
X12004530Y-13096741D01*
X12004530Y-13096741D02*
X12014054Y-13106264D01*
X12014054Y-13106264D02*
X12023578Y-13125312D01*
X12023578Y-13125312D02*
X12033102Y-13163407D01*
X12033102Y-13163407D02*
X12033102Y-13211026D01*
X12033102Y-13211026D02*
X12023578Y-13249122D01*
X12023578Y-13249122D02*
X12014054Y-13268169D01*
X12014054Y-13268169D02*
X12004530Y-13277693D01*
X12004530Y-13277693D02*
X11985483Y-13287217D01*
X11985483Y-13287217D02*
X11966435Y-13287217D01*
X11966435Y-13287217D02*
X11947387Y-13277693D01*
X11947387Y-13277693D02*
X11937864Y-13268169D01*
X11937864Y-13268169D02*
X11928340Y-13249122D01*
X11928340Y-13249122D02*
X11918816Y-13211026D01*
X11918816Y-13211026D02*
X11918816Y-13163407D01*
X11918816Y-13163407D02*
X11928340Y-13125312D01*
X11928340Y-13125312D02*
X11937864Y-13106264D01*
X11937864Y-13106264D02*
X11947387Y-13096741D01*
X11947387Y-13096741D02*
X11966435Y-13087217D01*
X12118816Y-13268169D02*
X12128340Y-13277693D01*
X12128340Y-13277693D02*
X12118816Y-13287217D01*
X12118816Y-13287217D02*
X12109292Y-13277693D01*
X12109292Y-13277693D02*
X12118816Y-13268169D01*
X12118816Y-13268169D02*
X12118816Y-13287217D01*
X12252149Y-13087217D02*
X12271197Y-13087217D01*
X12271197Y-13087217D02*
X12290245Y-13096741D01*
X12290245Y-13096741D02*
X12299768Y-13106264D01*
X12299768Y-13106264D02*
X12309292Y-13125312D01*
X12309292Y-13125312D02*
X12318816Y-13163407D01*
X12318816Y-13163407D02*
X12318816Y-13211026D01*
X12318816Y-13211026D02*
X12309292Y-13249122D01*
X12309292Y-13249122D02*
X12299768Y-13268169D01*
X12299768Y-13268169D02*
X12290245Y-13277693D01*
X12290245Y-13277693D02*
X12271197Y-13287217D01*
X12271197Y-13287217D02*
X12252149Y-13287217D01*
X12252149Y-13287217D02*
X12233102Y-13277693D01*
X12233102Y-13277693D02*
X12223578Y-13268169D01*
X12223578Y-13268169D02*
X12214054Y-13249122D01*
X12214054Y-13249122D02*
X12204530Y-13211026D01*
X12204530Y-13211026D02*
X12204530Y-13163407D01*
X12204530Y-13163407D02*
X12214054Y-13125312D01*
X12214054Y-13125312D02*
X12223578Y-13106264D01*
X12223578Y-13106264D02*
X12233102Y-13096741D01*
X12233102Y-13096741D02*
X12252149Y-13087217D01*
X12499768Y-13087217D02*
X12404530Y-13087217D01*
X12404530Y-13087217D02*
X12395006Y-13182455D01*
X12395006Y-13182455D02*
X12404530Y-13172931D01*
X12404530Y-13172931D02*
X12423578Y-13163407D01*
X12423578Y-13163407D02*
X12471197Y-13163407D01*
X12471197Y-13163407D02*
X12490245Y-13172931D01*
X12490245Y-13172931D02*
X12499768Y-13182455D01*
X12499768Y-13182455D02*
X12509292Y-13201503D01*
X12509292Y-13201503D02*
X12509292Y-13249122D01*
X12509292Y-13249122D02*
X12499768Y-13268169D01*
X12499768Y-13268169D02*
X12490245Y-13277693D01*
X12490245Y-13277693D02*
X12471197Y-13287217D01*
X12471197Y-13287217D02*
X12423578Y-13287217D01*
X12423578Y-13287217D02*
X12404530Y-13277693D01*
X12404530Y-13277693D02*
X12395006Y-13268169D01*
X12604530Y-13287217D02*
X12642625Y-13287217D01*
X12642625Y-13287217D02*
X12661673Y-13277693D01*
X12661673Y-13277693D02*
X12671197Y-13268169D01*
X12671197Y-13268169D02*
X12690245Y-13239598D01*
X12690245Y-13239598D02*
X12699768Y-13201503D01*
X12699768Y-13201503D02*
X12699768Y-13125312D01*
X12699768Y-13125312D02*
X12690245Y-13106264D01*
X12690245Y-13106264D02*
X12680721Y-13096741D01*
X12680721Y-13096741D02*
X12661673Y-13087217D01*
X12661673Y-13087217D02*
X12623578Y-13087217D01*
X12623578Y-13087217D02*
X12604530Y-13096741D01*
X12604530Y-13096741D02*
X12595006Y-13106264D01*
X12595006Y-13106264D02*
X12585483Y-13125312D01*
X12585483Y-13125312D02*
X12585483Y-13172931D01*
X12585483Y-13172931D02*
X12595006Y-13191979D01*
X12595006Y-13191979D02*
X12604530Y-13201503D01*
X12604530Y-13201503D02*
X12623578Y-13211026D01*
X12623578Y-13211026D02*
X12661673Y-13211026D01*
X12661673Y-13211026D02*
X12680721Y-13201503D01*
X12680721Y-13201503D02*
X12690245Y-13191979D01*
X12690245Y-13191979D02*
X12699768Y-13172931D01*
X12890245Y-13287217D02*
X12775959Y-13287217D01*
X12833102Y-13287217D02*
X12833102Y-13087217D01*
X12833102Y-13087217D02*
X12814054Y-13115788D01*
X12814054Y-13115788D02*
X12795006Y-13134836D01*
X12795006Y-13134836D02*
X12775959Y-13144360D01*
X12966435Y-13087217D02*
X12966435Y-13125312D01*
X13042626Y-13087217D02*
X13042626Y-13125312D01*
X13337864Y-13363407D02*
X13328340Y-13353883D01*
X13328340Y-13353883D02*
X13309292Y-13325312D01*
X13309292Y-13325312D02*
X13299768Y-13306264D01*
X13299768Y-13306264D02*
X13290245Y-13277693D01*
X13290245Y-13277693D02*
X13280721Y-13230074D01*
X13280721Y-13230074D02*
X13280721Y-13191979D01*
X13280721Y-13191979D02*
X13290245Y-13144360D01*
X13290245Y-13144360D02*
X13299768Y-13115788D01*
X13299768Y-13115788D02*
X13309292Y-13096741D01*
X13309292Y-13096741D02*
X13328340Y-13068169D01*
X13328340Y-13068169D02*
X13337864Y-13058645D01*
X13499768Y-13153883D02*
X13499768Y-13287217D01*
X13452149Y-13077693D02*
X13404530Y-13220550D01*
X13404530Y-13220550D02*
X13528340Y-13220550D01*
X13756911Y-13287217D02*
X13756911Y-13087217D01*
X13842626Y-13287217D02*
X13842626Y-13182455D01*
X13842626Y-13182455D02*
X13833102Y-13163407D01*
X13833102Y-13163407D02*
X13814054Y-13153883D01*
X13814054Y-13153883D02*
X13785483Y-13153883D01*
X13785483Y-13153883D02*
X13766435Y-13163407D01*
X13766435Y-13163407D02*
X13756911Y-13172931D01*
X13966435Y-13287217D02*
X13947388Y-13277693D01*
X13947388Y-13277693D02*
X13937864Y-13268169D01*
X13937864Y-13268169D02*
X13928340Y-13249122D01*
X13928340Y-13249122D02*
X13928340Y-13191979D01*
X13928340Y-13191979D02*
X13937864Y-13172931D01*
X13937864Y-13172931D02*
X13947388Y-13163407D01*
X13947388Y-13163407D02*
X13966435Y-13153883D01*
X13966435Y-13153883D02*
X13995007Y-13153883D01*
X13995007Y-13153883D02*
X14014054Y-13163407D01*
X14014054Y-13163407D02*
X14023578Y-13172931D01*
X14023578Y-13172931D02*
X14033102Y-13191979D01*
X14033102Y-13191979D02*
X14033102Y-13249122D01*
X14033102Y-13249122D02*
X14023578Y-13268169D01*
X14023578Y-13268169D02*
X14014054Y-13277693D01*
X14014054Y-13277693D02*
X13995007Y-13287217D01*
X13995007Y-13287217D02*
X13966435Y-13287217D01*
X14147388Y-13287217D02*
X14128340Y-13277693D01*
X14128340Y-13277693D02*
X14118816Y-13258645D01*
X14118816Y-13258645D02*
X14118816Y-13087217D01*
X14299769Y-13277693D02*
X14280721Y-13287217D01*
X14280721Y-13287217D02*
X14242626Y-13287217D01*
X14242626Y-13287217D02*
X14223578Y-13277693D01*
X14223578Y-13277693D02*
X14214054Y-13258645D01*
X14214054Y-13258645D02*
X14214054Y-13182455D01*
X14214054Y-13182455D02*
X14223578Y-13163407D01*
X14223578Y-13163407D02*
X14242626Y-13153883D01*
X14242626Y-13153883D02*
X14280721Y-13153883D01*
X14280721Y-13153883D02*
X14299769Y-13163407D01*
X14299769Y-13163407D02*
X14309292Y-13182455D01*
X14309292Y-13182455D02*
X14309292Y-13201503D01*
X14309292Y-13201503D02*
X14214054Y-13220550D01*
X14385483Y-13277693D02*
X14404530Y-13287217D01*
X14404530Y-13287217D02*
X14442626Y-13287217D01*
X14442626Y-13287217D02*
X14461673Y-13277693D01*
X14461673Y-13277693D02*
X14471197Y-13258645D01*
X14471197Y-13258645D02*
X14471197Y-13249122D01*
X14471197Y-13249122D02*
X14461673Y-13230074D01*
X14461673Y-13230074D02*
X14442626Y-13220550D01*
X14442626Y-13220550D02*
X14414054Y-13220550D01*
X14414054Y-13220550D02*
X14395007Y-13211026D01*
X14395007Y-13211026D02*
X14385483Y-13191979D01*
X14385483Y-13191979D02*
X14385483Y-13182455D01*
X14385483Y-13182455D02*
X14395007Y-13163407D01*
X14395007Y-13163407D02*
X14414054Y-13153883D01*
X14414054Y-13153883D02*
X14442626Y-13153883D01*
X14442626Y-13153883D02*
X14461673Y-13163407D01*
X14537864Y-13363407D02*
X14547388Y-13353883D01*
X14547388Y-13353883D02*
X14566435Y-13325312D01*
X14566435Y-13325312D02*
X14575959Y-13306264D01*
X14575959Y-13306264D02*
X14585483Y-13277693D01*
X14585483Y-13277693D02*
X14595007Y-13230074D01*
X14595007Y-13230074D02*
X14595007Y-13191979D01*
X14595007Y-13191979D02*
X14585483Y-13144360D01*
X14585483Y-13144360D02*
X14575959Y-13115788D01*
X14575959Y-13115788D02*
X14566435Y-13096741D01*
X14566435Y-13096741D02*
X14547388Y-13068169D01*
X14547388Y-13068169D02*
X14537864Y-13058645D01*
X14899769Y-13363407D02*
X14890245Y-13353883D01*
X14890245Y-13353883D02*
X14871197Y-13325312D01*
X14871197Y-13325312D02*
X14861673Y-13306264D01*
X14861673Y-13306264D02*
X14852150Y-13277693D01*
X14852150Y-13277693D02*
X14842626Y-13230074D01*
X14842626Y-13230074D02*
X14842626Y-13191979D01*
X14842626Y-13191979D02*
X14852150Y-13144360D01*
X14852150Y-13144360D02*
X14861673Y-13115788D01*
X14861673Y-13115788D02*
X14871197Y-13096741D01*
X14871197Y-13096741D02*
X14890245Y-13068169D01*
X14890245Y-13068169D02*
X14899769Y-13058645D01*
X14975959Y-13153883D02*
X14975959Y-13287217D01*
X14975959Y-13172931D02*
X14985483Y-13163407D01*
X14985483Y-13163407D02*
X15004530Y-13153883D01*
X15004530Y-13153883D02*
X15033102Y-13153883D01*
X15033102Y-13153883D02*
X15052150Y-13163407D01*
X15052150Y-13163407D02*
X15061673Y-13182455D01*
X15061673Y-13182455D02*
X15061673Y-13287217D01*
X15185483Y-13287217D02*
X15166435Y-13277693D01*
X15166435Y-13277693D02*
X15156911Y-13268169D01*
X15156911Y-13268169D02*
X15147388Y-13249122D01*
X15147388Y-13249122D02*
X15147388Y-13191979D01*
X15147388Y-13191979D02*
X15156911Y-13172931D01*
X15156911Y-13172931D02*
X15166435Y-13163407D01*
X15166435Y-13163407D02*
X15185483Y-13153883D01*
X15185483Y-13153883D02*
X15214054Y-13153883D01*
X15214054Y-13153883D02*
X15233102Y-13163407D01*
X15233102Y-13163407D02*
X15242626Y-13172931D01*
X15242626Y-13172931D02*
X15252150Y-13191979D01*
X15252150Y-13191979D02*
X15252150Y-13249122D01*
X15252150Y-13249122D02*
X15242626Y-13268169D01*
X15242626Y-13268169D02*
X15233102Y-13277693D01*
X15233102Y-13277693D02*
X15214054Y-13287217D01*
X15214054Y-13287217D02*
X15185483Y-13287217D01*
X15309292Y-13153883D02*
X15385483Y-13153883D01*
X15337864Y-13087217D02*
X15337864Y-13258645D01*
X15337864Y-13258645D02*
X15347388Y-13277693D01*
X15347388Y-13277693D02*
X15366435Y-13287217D01*
X15366435Y-13287217D02*
X15385483Y-13287217D01*
X15604531Y-13153883D02*
X15604531Y-13353883D01*
X15604531Y-13163407D02*
X15623578Y-13153883D01*
X15623578Y-13153883D02*
X15661673Y-13153883D01*
X15661673Y-13153883D02*
X15680721Y-13163407D01*
X15680721Y-13163407D02*
X15690245Y-13172931D01*
X15690245Y-13172931D02*
X15699769Y-13191979D01*
X15699769Y-13191979D02*
X15699769Y-13249122D01*
X15699769Y-13249122D02*
X15690245Y-13268169D01*
X15690245Y-13268169D02*
X15680721Y-13277693D01*
X15680721Y-13277693D02*
X15661673Y-13287217D01*
X15661673Y-13287217D02*
X15623578Y-13287217D01*
X15623578Y-13287217D02*
X15604531Y-13277693D01*
X15814054Y-13287217D02*
X15795007Y-13277693D01*
X15795007Y-13277693D02*
X15785483Y-13258645D01*
X15785483Y-13258645D02*
X15785483Y-13087217D01*
X15975959Y-13287217D02*
X15975959Y-13182455D01*
X15975959Y-13182455D02*
X15966435Y-13163407D01*
X15966435Y-13163407D02*
X15947388Y-13153883D01*
X15947388Y-13153883D02*
X15909292Y-13153883D01*
X15909292Y-13153883D02*
X15890245Y-13163407D01*
X15975959Y-13277693D02*
X15956912Y-13287217D01*
X15956912Y-13287217D02*
X15909292Y-13287217D01*
X15909292Y-13287217D02*
X15890245Y-13277693D01*
X15890245Y-13277693D02*
X15880721Y-13258645D01*
X15880721Y-13258645D02*
X15880721Y-13239598D01*
X15880721Y-13239598D02*
X15890245Y-13220550D01*
X15890245Y-13220550D02*
X15909292Y-13211026D01*
X15909292Y-13211026D02*
X15956912Y-13211026D01*
X15956912Y-13211026D02*
X15975959Y-13201503D01*
X16042626Y-13153883D02*
X16118816Y-13153883D01*
X16071197Y-13087217D02*
X16071197Y-13258645D01*
X16071197Y-13258645D02*
X16080721Y-13277693D01*
X16080721Y-13277693D02*
X16099769Y-13287217D01*
X16099769Y-13287217D02*
X16118816Y-13287217D01*
X16261673Y-13277693D02*
X16242626Y-13287217D01*
X16242626Y-13287217D02*
X16204531Y-13287217D01*
X16204531Y-13287217D02*
X16185483Y-13277693D01*
X16185483Y-13277693D02*
X16175959Y-13258645D01*
X16175959Y-13258645D02*
X16175959Y-13182455D01*
X16175959Y-13182455D02*
X16185483Y-13163407D01*
X16185483Y-13163407D02*
X16204531Y-13153883D01*
X16204531Y-13153883D02*
X16242626Y-13153883D01*
X16242626Y-13153883D02*
X16261673Y-13163407D01*
X16261673Y-13163407D02*
X16271197Y-13182455D01*
X16271197Y-13182455D02*
X16271197Y-13201503D01*
X16271197Y-13201503D02*
X16175959Y-13220550D01*
X16442626Y-13287217D02*
X16442626Y-13087217D01*
X16442626Y-13277693D02*
X16423578Y-13287217D01*
X16423578Y-13287217D02*
X16385483Y-13287217D01*
X16385483Y-13287217D02*
X16366435Y-13277693D01*
X16366435Y-13277693D02*
X16356912Y-13268169D01*
X16356912Y-13268169D02*
X16347388Y-13249122D01*
X16347388Y-13249122D02*
X16347388Y-13191979D01*
X16347388Y-13191979D02*
X16356912Y-13172931D01*
X16356912Y-13172931D02*
X16366435Y-13163407D01*
X16366435Y-13163407D02*
X16385483Y-13153883D01*
X16385483Y-13153883D02*
X16423578Y-13153883D01*
X16423578Y-13153883D02*
X16442626Y-13163407D01*
X16518816Y-13363407D02*
X16528340Y-13353883D01*
X16528340Y-13353883D02*
X16547388Y-13325312D01*
X16547388Y-13325312D02*
X16556912Y-13306264D01*
X16556912Y-13306264D02*
X16566435Y-13277693D01*
X16566435Y-13277693D02*
X16575959Y-13230074D01*
X16575959Y-13230074D02*
X16575959Y-13191979D01*
X16575959Y-13191979D02*
X16566435Y-13144360D01*
X16566435Y-13144360D02*
X16556912Y-13115788D01*
X16556912Y-13115788D02*
X16547388Y-13096741D01*
X16547388Y-13096741D02*
X16528340Y-13068169D01*
X16528340Y-13068169D02*
X16518816Y-13058645D01*
X9762801Y-13465733D02*
G75*
G03*
X9762801Y-13465733I-100000J0D01*
G01*
X10014054Y-13376264D02*
X10023578Y-13366741D01*
X10023578Y-13366741D02*
X10042625Y-13357217D01*
X10042625Y-13357217D02*
X10090244Y-13357217D01*
X10090244Y-13357217D02*
X10109292Y-13366741D01*
X10109292Y-13366741D02*
X10118816Y-13376264D01*
X10118816Y-13376264D02*
X10128340Y-13395312D01*
X10128340Y-13395312D02*
X10128340Y-13414360D01*
X10128340Y-13414360D02*
X10118816Y-13442931D01*
X10118816Y-13442931D02*
X10004530Y-13557217D01*
X10004530Y-13557217D02*
X10128340Y-13557217D01*
X10214054Y-13538169D02*
X10223578Y-13547693D01*
X10223578Y-13547693D02*
X10214054Y-13557217D01*
X10214054Y-13557217D02*
X10204530Y-13547693D01*
X10204530Y-13547693D02*
X10214054Y-13538169D01*
X10214054Y-13538169D02*
X10214054Y-13557217D01*
X10414054Y-13557217D02*
X10299768Y-13557217D01*
X10356911Y-13557217D02*
X10356911Y-13357217D01*
X10356911Y-13357217D02*
X10337863Y-13385788D01*
X10337863Y-13385788D02*
X10318816Y-13404836D01*
X10318816Y-13404836D02*
X10299768Y-13414360D01*
X10537863Y-13357217D02*
X10556911Y-13357217D01*
X10556911Y-13357217D02*
X10575959Y-13366741D01*
X10575959Y-13366741D02*
X10585483Y-13376264D01*
X10585483Y-13376264D02*
X10595006Y-13395312D01*
X10595006Y-13395312D02*
X10604530Y-13433407D01*
X10604530Y-13433407D02*
X10604530Y-13481026D01*
X10604530Y-13481026D02*
X10595006Y-13519122D01*
X10595006Y-13519122D02*
X10585483Y-13538169D01*
X10585483Y-13538169D02*
X10575959Y-13547693D01*
X10575959Y-13547693D02*
X10556911Y-13557217D01*
X10556911Y-13557217D02*
X10537863Y-13557217D01*
X10537863Y-13557217D02*
X10518816Y-13547693D01*
X10518816Y-13547693D02*
X10509292Y-13538169D01*
X10509292Y-13538169D02*
X10499768Y-13519122D01*
X10499768Y-13519122D02*
X10490244Y-13481026D01*
X10490244Y-13481026D02*
X10490244Y-13433407D01*
X10490244Y-13433407D02*
X10499768Y-13395312D01*
X10499768Y-13395312D02*
X10509292Y-13376264D01*
X10509292Y-13376264D02*
X10518816Y-13366741D01*
X10518816Y-13366741D02*
X10537863Y-13357217D01*
X10728340Y-13357217D02*
X10747387Y-13357217D01*
X10747387Y-13357217D02*
X10766435Y-13366741D01*
X10766435Y-13366741D02*
X10775959Y-13376264D01*
X10775959Y-13376264D02*
X10785483Y-13395312D01*
X10785483Y-13395312D02*
X10795006Y-13433407D01*
X10795006Y-13433407D02*
X10795006Y-13481026D01*
X10795006Y-13481026D02*
X10785483Y-13519122D01*
X10785483Y-13519122D02*
X10775959Y-13538169D01*
X10775959Y-13538169D02*
X10766435Y-13547693D01*
X10766435Y-13547693D02*
X10747387Y-13557217D01*
X10747387Y-13557217D02*
X10728340Y-13557217D01*
X10728340Y-13557217D02*
X10709292Y-13547693D01*
X10709292Y-13547693D02*
X10699768Y-13538169D01*
X10699768Y-13538169D02*
X10690244Y-13519122D01*
X10690244Y-13519122D02*
X10680721Y-13481026D01*
X10680721Y-13481026D02*
X10680721Y-13433407D01*
X10680721Y-13433407D02*
X10690244Y-13395312D01*
X10690244Y-13395312D02*
X10699768Y-13376264D01*
X10699768Y-13376264D02*
X10709292Y-13366741D01*
X10709292Y-13366741D02*
X10728340Y-13357217D01*
X10880721Y-13557217D02*
X10880721Y-13423883D01*
X10880721Y-13442931D02*
X10890244Y-13433407D01*
X10890244Y-13433407D02*
X10909292Y-13423883D01*
X10909292Y-13423883D02*
X10937864Y-13423883D01*
X10937864Y-13423883D02*
X10956911Y-13433407D01*
X10956911Y-13433407D02*
X10966435Y-13452455D01*
X10966435Y-13452455D02*
X10966435Y-13557217D01*
X10966435Y-13452455D02*
X10975959Y-13433407D01*
X10975959Y-13433407D02*
X10995006Y-13423883D01*
X10995006Y-13423883D02*
X11023578Y-13423883D01*
X11023578Y-13423883D02*
X11042625Y-13433407D01*
X11042625Y-13433407D02*
X11052149Y-13452455D01*
X11052149Y-13452455D02*
X11052149Y-13557217D01*
X11147387Y-13557217D02*
X11147387Y-13423883D01*
X11147387Y-13442931D02*
X11156911Y-13433407D01*
X11156911Y-13433407D02*
X11175959Y-13423883D01*
X11175959Y-13423883D02*
X11204530Y-13423883D01*
X11204530Y-13423883D02*
X11223578Y-13433407D01*
X11223578Y-13433407D02*
X11233102Y-13452455D01*
X11233102Y-13452455D02*
X11233102Y-13557217D01*
X11233102Y-13452455D02*
X11242625Y-13433407D01*
X11242625Y-13433407D02*
X11261673Y-13423883D01*
X11261673Y-13423883D02*
X11290244Y-13423883D01*
X11290244Y-13423883D02*
X11309292Y-13433407D01*
X11309292Y-13433407D02*
X11318816Y-13452455D01*
X11318816Y-13452455D02*
X11318816Y-13557217D01*
X11709292Y-13347693D02*
X11537864Y-13604836D01*
X11966435Y-13357217D02*
X11985483Y-13357217D01*
X11985483Y-13357217D02*
X12004530Y-13366741D01*
X12004530Y-13366741D02*
X12014054Y-13376264D01*
X12014054Y-13376264D02*
X12023578Y-13395312D01*
X12023578Y-13395312D02*
X12033102Y-13433407D01*
X12033102Y-13433407D02*
X12033102Y-13481026D01*
X12033102Y-13481026D02*
X12023578Y-13519122D01*
X12023578Y-13519122D02*
X12014054Y-13538169D01*
X12014054Y-13538169D02*
X12004530Y-13547693D01*
X12004530Y-13547693D02*
X11985483Y-13557217D01*
X11985483Y-13557217D02*
X11966435Y-13557217D01*
X11966435Y-13557217D02*
X11947387Y-13547693D01*
X11947387Y-13547693D02*
X11937864Y-13538169D01*
X11937864Y-13538169D02*
X11928340Y-13519122D01*
X11928340Y-13519122D02*
X11918816Y-13481026D01*
X11918816Y-13481026D02*
X11918816Y-13433407D01*
X11918816Y-13433407D02*
X11928340Y-13395312D01*
X11928340Y-13395312D02*
X11937864Y-13376264D01*
X11937864Y-13376264D02*
X11947387Y-13366741D01*
X11947387Y-13366741D02*
X11966435Y-13357217D01*
X12118816Y-13538169D02*
X12128340Y-13547693D01*
X12128340Y-13547693D02*
X12118816Y-13557217D01*
X12118816Y-13557217D02*
X12109292Y-13547693D01*
X12109292Y-13547693D02*
X12118816Y-13538169D01*
X12118816Y-13538169D02*
X12118816Y-13557217D01*
X12252149Y-13357217D02*
X12271197Y-13357217D01*
X12271197Y-13357217D02*
X12290245Y-13366741D01*
X12290245Y-13366741D02*
X12299768Y-13376264D01*
X12299768Y-13376264D02*
X12309292Y-13395312D01*
X12309292Y-13395312D02*
X12318816Y-13433407D01*
X12318816Y-13433407D02*
X12318816Y-13481026D01*
X12318816Y-13481026D02*
X12309292Y-13519122D01*
X12309292Y-13519122D02*
X12299768Y-13538169D01*
X12299768Y-13538169D02*
X12290245Y-13547693D01*
X12290245Y-13547693D02*
X12271197Y-13557217D01*
X12271197Y-13557217D02*
X12252149Y-13557217D01*
X12252149Y-13557217D02*
X12233102Y-13547693D01*
X12233102Y-13547693D02*
X12223578Y-13538169D01*
X12223578Y-13538169D02*
X12214054Y-13519122D01*
X12214054Y-13519122D02*
X12204530Y-13481026D01*
X12204530Y-13481026D02*
X12204530Y-13433407D01*
X12204530Y-13433407D02*
X12214054Y-13395312D01*
X12214054Y-13395312D02*
X12223578Y-13376264D01*
X12223578Y-13376264D02*
X12233102Y-13366741D01*
X12233102Y-13366741D02*
X12252149Y-13357217D01*
X12433102Y-13442931D02*
X12414054Y-13433407D01*
X12414054Y-13433407D02*
X12404530Y-13423883D01*
X12404530Y-13423883D02*
X12395006Y-13404836D01*
X12395006Y-13404836D02*
X12395006Y-13395312D01*
X12395006Y-13395312D02*
X12404530Y-13376264D01*
X12404530Y-13376264D02*
X12414054Y-13366741D01*
X12414054Y-13366741D02*
X12433102Y-13357217D01*
X12433102Y-13357217D02*
X12471197Y-13357217D01*
X12471197Y-13357217D02*
X12490245Y-13366741D01*
X12490245Y-13366741D02*
X12499768Y-13376264D01*
X12499768Y-13376264D02*
X12509292Y-13395312D01*
X12509292Y-13395312D02*
X12509292Y-13404836D01*
X12509292Y-13404836D02*
X12499768Y-13423883D01*
X12499768Y-13423883D02*
X12490245Y-13433407D01*
X12490245Y-13433407D02*
X12471197Y-13442931D01*
X12471197Y-13442931D02*
X12433102Y-13442931D01*
X12433102Y-13442931D02*
X12414054Y-13452455D01*
X12414054Y-13452455D02*
X12404530Y-13461979D01*
X12404530Y-13461979D02*
X12395006Y-13481026D01*
X12395006Y-13481026D02*
X12395006Y-13519122D01*
X12395006Y-13519122D02*
X12404530Y-13538169D01*
X12404530Y-13538169D02*
X12414054Y-13547693D01*
X12414054Y-13547693D02*
X12433102Y-13557217D01*
X12433102Y-13557217D02*
X12471197Y-13557217D01*
X12471197Y-13557217D02*
X12490245Y-13547693D01*
X12490245Y-13547693D02*
X12499768Y-13538169D01*
X12499768Y-13538169D02*
X12509292Y-13519122D01*
X12509292Y-13519122D02*
X12509292Y-13481026D01*
X12509292Y-13481026D02*
X12499768Y-13461979D01*
X12499768Y-13461979D02*
X12490245Y-13452455D01*
X12490245Y-13452455D02*
X12471197Y-13442931D01*
X12585483Y-13376264D02*
X12595006Y-13366741D01*
X12595006Y-13366741D02*
X12614054Y-13357217D01*
X12614054Y-13357217D02*
X12661673Y-13357217D01*
X12661673Y-13357217D02*
X12680721Y-13366741D01*
X12680721Y-13366741D02*
X12690245Y-13376264D01*
X12690245Y-13376264D02*
X12699768Y-13395312D01*
X12699768Y-13395312D02*
X12699768Y-13414360D01*
X12699768Y-13414360D02*
X12690245Y-13442931D01*
X12690245Y-13442931D02*
X12575959Y-13557217D01*
X12575959Y-13557217D02*
X12699768Y-13557217D01*
X12766435Y-13357217D02*
X12899768Y-13357217D01*
X12899768Y-13357217D02*
X12814054Y-13557217D01*
X12966435Y-13357217D02*
X12966435Y-13395312D01*
X13042626Y-13357217D02*
X13042626Y-13395312D01*
X13337864Y-13633407D02*
X13328340Y-13623883D01*
X13328340Y-13623883D02*
X13309292Y-13595312D01*
X13309292Y-13595312D02*
X13299768Y-13576264D01*
X13299768Y-13576264D02*
X13290245Y-13547693D01*
X13290245Y-13547693D02*
X13280721Y-13500074D01*
X13280721Y-13500074D02*
X13280721Y-13461979D01*
X13280721Y-13461979D02*
X13290245Y-13414360D01*
X13290245Y-13414360D02*
X13299768Y-13385788D01*
X13299768Y-13385788D02*
X13309292Y-13366741D01*
X13309292Y-13366741D02*
X13328340Y-13338169D01*
X13328340Y-13338169D02*
X13337864Y-13328645D01*
X13499768Y-13423883D02*
X13499768Y-13557217D01*
X13452149Y-13347693D02*
X13404530Y-13490550D01*
X13404530Y-13490550D02*
X13528340Y-13490550D01*
X13756911Y-13557217D02*
X13756911Y-13357217D01*
X13842626Y-13557217D02*
X13842626Y-13452455D01*
X13842626Y-13452455D02*
X13833102Y-13433407D01*
X13833102Y-13433407D02*
X13814054Y-13423883D01*
X13814054Y-13423883D02*
X13785483Y-13423883D01*
X13785483Y-13423883D02*
X13766435Y-13433407D01*
X13766435Y-13433407D02*
X13756911Y-13442931D01*
X13966435Y-13557217D02*
X13947388Y-13547693D01*
X13947388Y-13547693D02*
X13937864Y-13538169D01*
X13937864Y-13538169D02*
X13928340Y-13519122D01*
X13928340Y-13519122D02*
X13928340Y-13461979D01*
X13928340Y-13461979D02*
X13937864Y-13442931D01*
X13937864Y-13442931D02*
X13947388Y-13433407D01*
X13947388Y-13433407D02*
X13966435Y-13423883D01*
X13966435Y-13423883D02*
X13995007Y-13423883D01*
X13995007Y-13423883D02*
X14014054Y-13433407D01*
X14014054Y-13433407D02*
X14023578Y-13442931D01*
X14023578Y-13442931D02*
X14033102Y-13461979D01*
X14033102Y-13461979D02*
X14033102Y-13519122D01*
X14033102Y-13519122D02*
X14023578Y-13538169D01*
X14023578Y-13538169D02*
X14014054Y-13547693D01*
X14014054Y-13547693D02*
X13995007Y-13557217D01*
X13995007Y-13557217D02*
X13966435Y-13557217D01*
X14147388Y-13557217D02*
X14128340Y-13547693D01*
X14128340Y-13547693D02*
X14118816Y-13528645D01*
X14118816Y-13528645D02*
X14118816Y-13357217D01*
X14299769Y-13547693D02*
X14280721Y-13557217D01*
X14280721Y-13557217D02*
X14242626Y-13557217D01*
X14242626Y-13557217D02*
X14223578Y-13547693D01*
X14223578Y-13547693D02*
X14214054Y-13528645D01*
X14214054Y-13528645D02*
X14214054Y-13452455D01*
X14214054Y-13452455D02*
X14223578Y-13433407D01*
X14223578Y-13433407D02*
X14242626Y-13423883D01*
X14242626Y-13423883D02*
X14280721Y-13423883D01*
X14280721Y-13423883D02*
X14299769Y-13433407D01*
X14299769Y-13433407D02*
X14309292Y-13452455D01*
X14309292Y-13452455D02*
X14309292Y-13471503D01*
X14309292Y-13471503D02*
X14214054Y-13490550D01*
X14385483Y-13547693D02*
X14404530Y-13557217D01*
X14404530Y-13557217D02*
X14442626Y-13557217D01*
X14442626Y-13557217D02*
X14461673Y-13547693D01*
X14461673Y-13547693D02*
X14471197Y-13528645D01*
X14471197Y-13528645D02*
X14471197Y-13519122D01*
X14471197Y-13519122D02*
X14461673Y-13500074D01*
X14461673Y-13500074D02*
X14442626Y-13490550D01*
X14442626Y-13490550D02*
X14414054Y-13490550D01*
X14414054Y-13490550D02*
X14395007Y-13481026D01*
X14395007Y-13481026D02*
X14385483Y-13461979D01*
X14385483Y-13461979D02*
X14385483Y-13452455D01*
X14385483Y-13452455D02*
X14395007Y-13433407D01*
X14395007Y-13433407D02*
X14414054Y-13423883D01*
X14414054Y-13423883D02*
X14442626Y-13423883D01*
X14442626Y-13423883D02*
X14461673Y-13433407D01*
X14537864Y-13633407D02*
X14547388Y-13623883D01*
X14547388Y-13623883D02*
X14566435Y-13595312D01*
X14566435Y-13595312D02*
X14575959Y-13576264D01*
X14575959Y-13576264D02*
X14585483Y-13547693D01*
X14585483Y-13547693D02*
X14595007Y-13500074D01*
X14595007Y-13500074D02*
X14595007Y-13461979D01*
X14595007Y-13461979D02*
X14585483Y-13414360D01*
X14585483Y-13414360D02*
X14575959Y-13385788D01*
X14575959Y-13385788D02*
X14566435Y-13366741D01*
X14566435Y-13366741D02*
X14547388Y-13338169D01*
X14547388Y-13338169D02*
X14537864Y-13328645D01*
X14899769Y-13633407D02*
X14890245Y-13623883D01*
X14890245Y-13623883D02*
X14871197Y-13595312D01*
X14871197Y-13595312D02*
X14861673Y-13576264D01*
X14861673Y-13576264D02*
X14852150Y-13547693D01*
X14852150Y-13547693D02*
X14842626Y-13500074D01*
X14842626Y-13500074D02*
X14842626Y-13461979D01*
X14842626Y-13461979D02*
X14852150Y-13414360D01*
X14852150Y-13414360D02*
X14861673Y-13385788D01*
X14861673Y-13385788D02*
X14871197Y-13366741D01*
X14871197Y-13366741D02*
X14890245Y-13338169D01*
X14890245Y-13338169D02*
X14899769Y-13328645D01*
X14975959Y-13423883D02*
X14975959Y-13557217D01*
X14975959Y-13442931D02*
X14985483Y-13433407D01*
X14985483Y-13433407D02*
X15004530Y-13423883D01*
X15004530Y-13423883D02*
X15033102Y-13423883D01*
X15033102Y-13423883D02*
X15052150Y-13433407D01*
X15052150Y-13433407D02*
X15061673Y-13452455D01*
X15061673Y-13452455D02*
X15061673Y-13557217D01*
X15185483Y-13557217D02*
X15166435Y-13547693D01*
X15166435Y-13547693D02*
X15156911Y-13538169D01*
X15156911Y-13538169D02*
X15147388Y-13519122D01*
X15147388Y-13519122D02*
X15147388Y-13461979D01*
X15147388Y-13461979D02*
X15156911Y-13442931D01*
X15156911Y-13442931D02*
X15166435Y-13433407D01*
X15166435Y-13433407D02*
X15185483Y-13423883D01*
X15185483Y-13423883D02*
X15214054Y-13423883D01*
X15214054Y-13423883D02*
X15233102Y-13433407D01*
X15233102Y-13433407D02*
X15242626Y-13442931D01*
X15242626Y-13442931D02*
X15252150Y-13461979D01*
X15252150Y-13461979D02*
X15252150Y-13519122D01*
X15252150Y-13519122D02*
X15242626Y-13538169D01*
X15242626Y-13538169D02*
X15233102Y-13547693D01*
X15233102Y-13547693D02*
X15214054Y-13557217D01*
X15214054Y-13557217D02*
X15185483Y-13557217D01*
X15309292Y-13423883D02*
X15385483Y-13423883D01*
X15337864Y-13357217D02*
X15337864Y-13528645D01*
X15337864Y-13528645D02*
X15347388Y-13547693D01*
X15347388Y-13547693D02*
X15366435Y-13557217D01*
X15366435Y-13557217D02*
X15385483Y-13557217D01*
X15604531Y-13423883D02*
X15604531Y-13623883D01*
X15604531Y-13433407D02*
X15623578Y-13423883D01*
X15623578Y-13423883D02*
X15661673Y-13423883D01*
X15661673Y-13423883D02*
X15680721Y-13433407D01*
X15680721Y-13433407D02*
X15690245Y-13442931D01*
X15690245Y-13442931D02*
X15699769Y-13461979D01*
X15699769Y-13461979D02*
X15699769Y-13519122D01*
X15699769Y-13519122D02*
X15690245Y-13538169D01*
X15690245Y-13538169D02*
X15680721Y-13547693D01*
X15680721Y-13547693D02*
X15661673Y-13557217D01*
X15661673Y-13557217D02*
X15623578Y-13557217D01*
X15623578Y-13557217D02*
X15604531Y-13547693D01*
X15814054Y-13557217D02*
X15795007Y-13547693D01*
X15795007Y-13547693D02*
X15785483Y-13528645D01*
X15785483Y-13528645D02*
X15785483Y-13357217D01*
X15975959Y-13557217D02*
X15975959Y-13452455D01*
X15975959Y-13452455D02*
X15966435Y-13433407D01*
X15966435Y-13433407D02*
X15947388Y-13423883D01*
X15947388Y-13423883D02*
X15909292Y-13423883D01*
X15909292Y-13423883D02*
X15890245Y-13433407D01*
X15975959Y-13547693D02*
X15956912Y-13557217D01*
X15956912Y-13557217D02*
X15909292Y-13557217D01*
X15909292Y-13557217D02*
X15890245Y-13547693D01*
X15890245Y-13547693D02*
X15880721Y-13528645D01*
X15880721Y-13528645D02*
X15880721Y-13509598D01*
X15880721Y-13509598D02*
X15890245Y-13490550D01*
X15890245Y-13490550D02*
X15909292Y-13481026D01*
X15909292Y-13481026D02*
X15956912Y-13481026D01*
X15956912Y-13481026D02*
X15975959Y-13471503D01*
X16042626Y-13423883D02*
X16118816Y-13423883D01*
X16071197Y-13357217D02*
X16071197Y-13528645D01*
X16071197Y-13528645D02*
X16080721Y-13547693D01*
X16080721Y-13547693D02*
X16099769Y-13557217D01*
X16099769Y-13557217D02*
X16118816Y-13557217D01*
X16261673Y-13547693D02*
X16242626Y-13557217D01*
X16242626Y-13557217D02*
X16204531Y-13557217D01*
X16204531Y-13557217D02*
X16185483Y-13547693D01*
X16185483Y-13547693D02*
X16175959Y-13528645D01*
X16175959Y-13528645D02*
X16175959Y-13452455D01*
X16175959Y-13452455D02*
X16185483Y-13433407D01*
X16185483Y-13433407D02*
X16204531Y-13423883D01*
X16204531Y-13423883D02*
X16242626Y-13423883D01*
X16242626Y-13423883D02*
X16261673Y-13433407D01*
X16261673Y-13433407D02*
X16271197Y-13452455D01*
X16271197Y-13452455D02*
X16271197Y-13471503D01*
X16271197Y-13471503D02*
X16175959Y-13490550D01*
X16442626Y-13557217D02*
X16442626Y-13357217D01*
X16442626Y-13547693D02*
X16423578Y-13557217D01*
X16423578Y-13557217D02*
X16385483Y-13557217D01*
X16385483Y-13557217D02*
X16366435Y-13547693D01*
X16366435Y-13547693D02*
X16356912Y-13538169D01*
X16356912Y-13538169D02*
X16347388Y-13519122D01*
X16347388Y-13519122D02*
X16347388Y-13461979D01*
X16347388Y-13461979D02*
X16356912Y-13442931D01*
X16356912Y-13442931D02*
X16366435Y-13433407D01*
X16366435Y-13433407D02*
X16385483Y-13423883D01*
X16385483Y-13423883D02*
X16423578Y-13423883D01*
X16423578Y-13423883D02*
X16442626Y-13433407D01*
X16518816Y-13633407D02*
X16528340Y-13623883D01*
X16528340Y-13623883D02*
X16547388Y-13595312D01*
X16547388Y-13595312D02*
X16556912Y-13576264D01*
X16556912Y-13576264D02*
X16566435Y-13547693D01*
X16566435Y-13547693D02*
X16575959Y-13500074D01*
X16575959Y-13500074D02*
X16575959Y-13461979D01*
X16575959Y-13461979D02*
X16566435Y-13414360D01*
X16566435Y-13414360D02*
X16556912Y-13385788D01*
X16556912Y-13385788D02*
X16547388Y-13366741D01*
X16547388Y-13366741D02*
X16528340Y-13338169D01*
X16528340Y-13338169D02*
X16518816Y-13328645D01*
M02*
