G04 #@! TF.GenerationSoftware,KiCad,Pcbnew,7.0.8*
G04 #@! TF.CreationDate,2023-10-08T23:51:26-04:00*
G04 #@! TF.ProjectId,Mainboard-small-buttons,4d61696e-626f-4617-9264-2d736d616c6c,rev?*
G04 #@! TF.SameCoordinates,Original*
G04 #@! TF.FileFunction,Soldermask,Top*
G04 #@! TF.FilePolarity,Negative*
%FSLAX46Y46*%
G04 Gerber Fmt 4.6, Leading zero omitted, Abs format (unit mm)*
G04 Created by KiCad (PCBNEW 7.0.8) date 2023-10-08 23:51:26*
%MOMM*%
%LPD*%
G01*
G04 APERTURE LIST*
G04 Aperture macros list*
%AMRoundRect*
0 Rectangle with rounded corners*
0 $1 Rounding radius*
0 $2 $3 $4 $5 $6 $7 $8 $9 X,Y pos of 4 corners*
0 Add a 4 corners polygon primitive as box body*
4,1,4,$2,$3,$4,$5,$6,$7,$8,$9,$2,$3,0*
0 Add four circle primitives for the rounded corners*
1,1,$1+$1,$2,$3*
1,1,$1+$1,$4,$5*
1,1,$1+$1,$6,$7*
1,1,$1+$1,$8,$9*
0 Add four rect primitives between the rounded corners*
20,1,$1+$1,$2,$3,$4,$5,0*
20,1,$1+$1,$4,$5,$6,$7,0*
20,1,$1+$1,$6,$7,$8,$9,0*
20,1,$1+$1,$8,$9,$2,$3,0*%
G04 Aperture macros list end*
%ADD10C,2.000000*%
%ADD11RoundRect,0.250000X0.350000X0.625000X-0.350000X0.625000X-0.350000X-0.625000X0.350000X-0.625000X0*%
%ADD12O,1.200000X1.750000*%
%ADD13C,2.100000*%
%ADD14C,1.500000*%
%ADD15O,1.803200X3.403200*%
%ADD16O,3.403200X1.803200*%
%ADD17RoundRect,0.101600X-0.400000X0.400000X-0.400000X-0.400000X0.400000X-0.400000X0.400000X0.400000X0*%
%ADD18R,1.800000X1.800000*%
%ADD19O,1.800000X1.800000*%
%ADD20RoundRect,0.250000X0.625000X-0.350000X0.625000X0.350000X-0.625000X0.350000X-0.625000X-0.350000X0*%
%ADD21O,1.750000X1.200000*%
G04 APERTURE END LIST*
D10*
X100353557Y-76156331D03*
X106853557Y-76156331D03*
X100353557Y-80656331D03*
X106853557Y-80656331D03*
D11*
X117830600Y-39979600D03*
D12*
X115830600Y-39979600D03*
X113830600Y-39979600D03*
X111830600Y-39979600D03*
X109830600Y-39979600D03*
X107830600Y-39979600D03*
D10*
X112853557Y-76156331D03*
X119353557Y-76156331D03*
X112853557Y-80656331D03*
X119353557Y-80656331D03*
D13*
X191394000Y-65928000D03*
X144394000Y-65928000D03*
D14*
X143894000Y-68903000D03*
X146924000Y-69203000D03*
X146924000Y-74053000D03*
X143894000Y-74353000D03*
D13*
X191394000Y-77328000D03*
X144394000Y-77328000D03*
D15*
X153924000Y-81318000D03*
X151384000Y-81318000D03*
X156464000Y-81318000D03*
X161544000Y-81318000D03*
X148844000Y-61938000D03*
X161544000Y-61938000D03*
X174244000Y-61938000D03*
X186944000Y-61938000D03*
D16*
X192594000Y-71628000D03*
D15*
X186944000Y-81318000D03*
X174244000Y-81318000D03*
X148844000Y-81318000D03*
X143764000Y-61938000D03*
X146304000Y-61938000D03*
X151384000Y-61938000D03*
X153924000Y-61938000D03*
X156464000Y-61938000D03*
X159004000Y-61938000D03*
X164084000Y-61938000D03*
X166624000Y-61938000D03*
X169164000Y-61938000D03*
X171704000Y-61938000D03*
X176784000Y-61938000D03*
X179324000Y-61938000D03*
X181864000Y-61938000D03*
X184404000Y-61938000D03*
X189484000Y-61938000D03*
X192024000Y-61938000D03*
X192024000Y-81318000D03*
X189484000Y-81318000D03*
X184404000Y-81318000D03*
X181864000Y-81318000D03*
X179324000Y-81318000D03*
X176784000Y-81318000D03*
X171704000Y-81318000D03*
X166624000Y-81318000D03*
X164084000Y-81318000D03*
X159004000Y-81318000D03*
X169164000Y-81318000D03*
D16*
X192594000Y-69088000D03*
X192594000Y-74168000D03*
D17*
X143594000Y-72628000D03*
X143594000Y-70628000D03*
D15*
X143764000Y-81318000D03*
X146304000Y-81318000D03*
D18*
X104902000Y-58928000D03*
D19*
X104902000Y-48768000D03*
D20*
X106273600Y-67157600D03*
D21*
X106273600Y-65157600D03*
D20*
X182626000Y-98266000D03*
D21*
X182626000Y-96266000D03*
X182626000Y-94266000D03*
X182626000Y-92266000D03*
X182626000Y-90266000D03*
X182626000Y-88266000D03*
M02*
