%TF.GenerationSoftware,KiCad,Pcbnew,7.0.8*%
%TF.CreationDate,2023-10-08T23:51:36-04:00*%
%TF.ProjectId,Mainboard-small-buttons,4d61696e-626f-4617-9264-2d736d616c6c,rev?*%
%TF.SameCoordinates,Original*%
%TF.FileFunction,Drillmap*%
%TF.FilePolarity,Positive*%
%FSLAX45Y45*%
G04 Gerber Fmt 4.5, Leading zero omitted, Abs format (unit mm)*
G04 Created by KiCad (PCBNEW 7.0.8) date 2023-10-08 23:51:36*
%MOMM*%
%LPD*%
G01*
G04 APERTURE LIST*
%ADD10C,0.200000*%
%ADD11C,0.040000*%
%ADD12C,0.060000*%
%ADD13C,0.075000*%
%ADD14C,0.090000*%
%ADD15C,0.110000*%
G04 APERTURE END LIST*
D10*
X10773689Y-8934826D02*
X10773947Y-10063072D01*
X10172704Y-4847818D02*
G75*
G03*
X10372658Y-4647824I-44J199998D01*
G01*
X13148073Y-2025551D02*
X13148213Y-2636439D01*
X9972755Y-4847871D02*
G75*
G03*
X9772801Y-5047915I45J-199999D01*
G01*
X12548258Y-3036485D02*
X12548258Y-3647326D01*
X15324973Y-10877366D02*
G75*
G03*
X15024806Y-11177677I67J-300234D01*
G01*
X10172704Y-4847824D02*
X9972755Y-4847869D01*
X9772801Y-5047915D02*
X9773598Y-8535054D01*
X10773689Y-8934826D02*
G75*
G03*
X10573644Y-8734871I-199999J-44D01*
G01*
X12348304Y-3847326D02*
X10572612Y-3847732D01*
X13535766Y-12209886D02*
G75*
G03*
X13535766Y-12209886I-160126J0D01*
G01*
X10372658Y-4047732D02*
X10372658Y-4247824D01*
X10372658Y-4247824D02*
X10372658Y-4647824D01*
X15025060Y-12289762D02*
X15024806Y-11177677D01*
X9773602Y-8535054D02*
G75*
G03*
X9973644Y-8735009I199999J44D01*
G01*
X12948213Y-2836485D02*
X12748258Y-2836485D01*
X12748258Y-2836488D02*
G75*
G03*
X12548258Y-3036485I2J-200002D01*
G01*
X19316806Y-8986520D02*
G75*
G03*
X19316806Y-8986520I-160126J0D01*
G01*
X12948213Y-2836483D02*
G75*
G03*
X13148213Y-2636439I-3J200003D01*
G01*
X10149840Y-6009640D02*
G75*
G03*
X10149840Y-6009640I-160126J0D01*
G01*
X13912632Y-12545187D02*
G75*
G03*
X15025060Y-12289762I-19862J2636647D01*
G01*
X9973644Y-8735009D02*
X10573644Y-8734871D01*
X13647526Y-2133600D02*
G75*
G03*
X13647526Y-2133600I-160126J0D01*
G01*
X10773947Y-11927433D02*
G75*
G03*
X11392247Y-12545733I618303J3D01*
G01*
X19555315Y-8518138D02*
X19554380Y-4426136D01*
X12348304Y-3847328D02*
G75*
G03*
X12548258Y-3647326I-44J199998D01*
G01*
X10773947Y-10063072D02*
X10773947Y-11927433D01*
X13348027Y-1825513D02*
G75*
G03*
X13148073Y-2025551I43J-199997D01*
G01*
X10572612Y-3847728D02*
G75*
G03*
X10372658Y-4047732I48J-200002D01*
G01*
X19554378Y-4426136D02*
G75*
G03*
X16951736Y-1824682I-2602048J-594D01*
G01*
X11392247Y-12545733D02*
X13912632Y-12545187D01*
X16951736Y-1824682D02*
X13348027Y-1825506D01*
X19159326Y-3489960D02*
G75*
G03*
X19159326Y-3489960I-160126J0D01*
G01*
X15324973Y-10877362D02*
X18053495Y-10876738D01*
X18053495Y-10876738D02*
G75*
G03*
X19555315Y-8518138I-1100233J2358001D01*
G01*
D11*
X13751880Y-5877880D02*
X13791880Y-5917880D01*
X13791880Y-5877880D02*
X13751880Y-5917880D01*
D12*
X14389400Y-7062800D02*
G75*
G03*
X14389400Y-7062800I-30000J0D01*
G01*
X14389400Y-7262800D02*
G75*
G03*
X14389400Y-7262800I-30000J0D01*
G01*
D13*
X10627360Y-6478260D02*
X10627360Y-6553260D01*
X10589860Y-6515760D02*
X10664860Y-6515760D01*
X10627360Y-6678260D02*
X10627360Y-6753260D01*
X10589860Y-6715760D02*
X10664860Y-6715760D01*
X10783060Y-3960460D02*
X10783060Y-4035460D01*
X10745560Y-3997960D02*
X10820560Y-3997960D01*
X10983060Y-3960460D02*
X10983060Y-4035460D01*
X10945560Y-3997960D02*
X11020560Y-3997960D01*
X11183060Y-3960460D02*
X11183060Y-4035460D01*
X11145560Y-3997960D02*
X11220560Y-3997960D01*
X11383060Y-3960460D02*
X11383060Y-4035460D01*
X11345560Y-3997960D02*
X11420560Y-3997960D01*
X11583060Y-3960460D02*
X11583060Y-4035460D01*
X11545560Y-3997960D02*
X11620560Y-3997960D01*
X11783060Y-3960460D02*
X11783060Y-4035460D01*
X11745560Y-3997960D02*
X11820560Y-3997960D01*
X18262600Y-8789100D02*
X18262600Y-8864100D01*
X18225100Y-8826600D02*
X18300100Y-8826600D01*
X18262600Y-8989100D02*
X18262600Y-9064100D01*
X18225100Y-9026600D02*
X18300100Y-9026600D01*
X18262600Y-9189100D02*
X18262600Y-9264100D01*
X18225100Y-9226600D02*
X18300100Y-9226600D01*
X18262600Y-9389100D02*
X18262600Y-9464100D01*
X18225100Y-9426600D02*
X18300100Y-9426600D01*
X18262600Y-9589100D02*
X18262600Y-9664100D01*
X18225100Y-9626600D02*
X18300100Y-9626600D01*
X18262600Y-9789100D02*
X18262600Y-9864100D01*
X18225100Y-9826600D02*
X18300100Y-9826600D01*
D14*
X10522020Y-4908620D02*
X10522020Y-4844980D01*
X10458380Y-4844980D01*
X10458380Y-4908620D01*
X10522020Y-4908620D01*
X10522020Y-5924620D02*
X10522020Y-5860980D01*
X10458380Y-5860980D01*
X10458380Y-5924620D01*
X10522020Y-5924620D01*
D15*
X10035356Y-7670633D02*
X10090356Y-7615633D01*
X10035356Y-7560633D01*
X9980356Y-7615633D01*
X10035356Y-7670633D01*
X10035356Y-8120633D02*
X10090356Y-8065633D01*
X10035356Y-8010633D01*
X9980356Y-8065633D01*
X10035356Y-8120633D01*
X10685356Y-7670633D02*
X10740356Y-7615633D01*
X10685356Y-7560633D01*
X10630356Y-7615633D01*
X10685356Y-7670633D01*
X10685356Y-8120633D02*
X10740356Y-8065633D01*
X10685356Y-8010633D01*
X10630356Y-8065633D01*
X10685356Y-8120633D01*
X11285356Y-7670633D02*
X11340356Y-7615633D01*
X11285356Y-7560633D01*
X11230356Y-7615633D01*
X11285356Y-7670633D01*
X11285356Y-8120633D02*
X11340356Y-8065633D01*
X11285356Y-8010633D01*
X11230356Y-8065633D01*
X11285356Y-8120633D01*
X11579494Y-5032472D02*
X11634494Y-4977472D01*
X11579494Y-4922472D01*
X11524494Y-4977472D01*
X11579494Y-5032472D01*
X11579494Y-5540472D02*
X11634494Y-5485472D01*
X11579494Y-5430472D01*
X11524494Y-5485472D01*
X11579494Y-5540472D01*
X11579494Y-6048472D02*
X11634494Y-5993472D01*
X11579494Y-5938472D01*
X11524494Y-5993472D01*
X11579494Y-6048472D01*
X11935356Y-7670633D02*
X11990356Y-7615633D01*
X11935356Y-7560633D01*
X11880356Y-7615633D01*
X11935356Y-7670633D01*
X11935356Y-8120633D02*
X11990356Y-8065633D01*
X11935356Y-8010633D01*
X11880356Y-8065633D01*
X11935356Y-8120633D01*
X11954870Y-9603930D02*
X12009870Y-9548930D01*
X11954870Y-9493930D01*
X11899870Y-9548930D01*
X11954870Y-9603930D01*
X11954870Y-10111930D02*
X12009870Y-10056930D01*
X11954870Y-10001930D01*
X11899870Y-10056930D01*
X11954870Y-10111930D01*
X11954870Y-10619930D02*
X12009870Y-10564930D01*
X11954870Y-10509930D01*
X11899870Y-10564930D01*
X11954870Y-10619930D01*
X12284802Y-11475065D02*
X12339802Y-11420065D01*
X12284802Y-11365065D01*
X12229802Y-11420065D01*
X12284802Y-11475065D01*
X12284802Y-11983065D02*
X12339802Y-11928065D01*
X12284802Y-11873065D01*
X12229802Y-11928065D01*
X12284802Y-11983065D01*
X12284802Y-12491065D02*
X12339802Y-12436065D01*
X12284802Y-12381065D01*
X12229802Y-12436065D01*
X12284802Y-12491065D01*
X13034978Y-6253769D02*
X13089978Y-6198769D01*
X13034978Y-6143769D01*
X12979978Y-6198769D01*
X13034978Y-6253769D01*
X13034978Y-6761769D02*
X13089978Y-6706769D01*
X13034978Y-6651769D01*
X12979978Y-6706769D01*
X13034978Y-6761769D01*
X13034978Y-7269769D02*
X13089978Y-7214769D01*
X13034978Y-7159769D01*
X12979978Y-7214769D01*
X13034978Y-7269769D01*
X13166479Y-3241895D02*
X13221479Y-3186895D01*
X13166479Y-3131895D01*
X13111479Y-3186895D01*
X13166479Y-3241895D01*
X13166479Y-3749895D02*
X13221479Y-3694895D01*
X13166479Y-3639895D01*
X13111479Y-3694895D01*
X13166479Y-3749895D01*
X13166479Y-4257895D02*
X13221479Y-4202895D01*
X13166479Y-4147895D01*
X13111479Y-4202895D01*
X13166479Y-4257895D01*
X13410355Y-8382634D02*
X13465355Y-8327634D01*
X13410355Y-8272634D01*
X13355355Y-8327634D01*
X13410355Y-8382634D01*
X13410355Y-8890634D02*
X13465355Y-8835634D01*
X13410355Y-8780634D01*
X13355355Y-8835634D01*
X13410355Y-8890634D01*
X13410355Y-9398634D02*
X13465355Y-9343634D01*
X13410355Y-9288634D01*
X13355355Y-9343634D01*
X13410355Y-9398634D01*
X13740286Y-10253769D02*
X13795286Y-10198769D01*
X13740286Y-10143769D01*
X13685286Y-10198769D01*
X13740286Y-10253769D01*
X13740286Y-10761769D02*
X13795286Y-10706769D01*
X13740286Y-10651769D01*
X13685286Y-10706769D01*
X13740286Y-10761769D01*
X13740286Y-11269769D02*
X13795286Y-11214769D01*
X13740286Y-11159769D01*
X13685286Y-11214769D01*
X13740286Y-11269769D01*
X14256275Y-4798284D02*
X14311275Y-4743284D01*
X14256275Y-4688284D01*
X14201275Y-4743284D01*
X14256275Y-4798284D01*
X14256275Y-5306284D02*
X14311275Y-5251284D01*
X14256275Y-5196284D01*
X14201275Y-5251284D01*
X14256275Y-5306284D01*
X14256275Y-5814284D02*
X14311275Y-5759284D01*
X14256275Y-5704284D01*
X14201275Y-5759284D01*
X14256275Y-5814284D01*
X14376400Y-6328800D02*
X14431400Y-6273800D01*
X14376400Y-6218800D01*
X14321400Y-6273800D01*
X14376400Y-6328800D01*
X14376400Y-8106800D02*
X14431400Y-8051800D01*
X14376400Y-7996800D01*
X14321400Y-8051800D01*
X14376400Y-8106800D01*
X14630400Y-6328800D02*
X14685400Y-6273800D01*
X14630400Y-6218800D01*
X14575400Y-6273800D01*
X14630400Y-6328800D01*
X14630400Y-8106800D02*
X14685400Y-8051800D01*
X14630400Y-7996800D01*
X14575400Y-8051800D01*
X14630400Y-8106800D01*
X14884400Y-6328800D02*
X14939400Y-6273800D01*
X14884400Y-6218800D01*
X14829400Y-6273800D01*
X14884400Y-6328800D01*
X14884400Y-8106800D02*
X14939400Y-8051800D01*
X14884400Y-7996800D01*
X14829400Y-8051800D01*
X14884400Y-8106800D01*
X15138400Y-6328800D02*
X15193400Y-6273800D01*
X15138400Y-6218800D01*
X15083400Y-6273800D01*
X15138400Y-6328800D01*
X15138400Y-8106800D02*
X15193400Y-8051800D01*
X15138400Y-7996800D01*
X15083400Y-8051800D01*
X15138400Y-8106800D01*
X15195771Y-9032472D02*
X15250771Y-8977472D01*
X15195771Y-8922472D01*
X15140771Y-8977472D01*
X15195771Y-9032472D01*
X15195771Y-9540472D02*
X15250771Y-9485472D01*
X15195771Y-9430472D01*
X15140771Y-9485472D01*
X15195771Y-9540472D01*
X15195771Y-10048472D02*
X15250771Y-9993472D01*
X15195771Y-9938472D01*
X15140771Y-9993472D01*
X15195771Y-10048472D01*
X15391852Y-2363030D02*
X15446852Y-2308030D01*
X15391852Y-2253030D01*
X15336852Y-2308030D01*
X15391852Y-2363030D01*
X15391852Y-2871030D02*
X15446852Y-2816030D01*
X15391852Y-2761030D01*
X15336852Y-2816030D01*
X15391852Y-2871030D01*
X15391852Y-3379030D02*
X15446852Y-3324030D01*
X15391852Y-3269030D01*
X15336852Y-3324030D01*
X15391852Y-3379030D01*
X15392400Y-6328800D02*
X15447400Y-6273800D01*
X15392400Y-6218800D01*
X15337400Y-6273800D01*
X15392400Y-6328800D01*
X15392400Y-8106800D02*
X15447400Y-8051800D01*
X15392400Y-7996800D01*
X15337400Y-8051800D01*
X15392400Y-8106800D01*
X15646400Y-6328800D02*
X15701400Y-6273800D01*
X15646400Y-6218800D01*
X15591400Y-6273800D01*
X15646400Y-6328800D01*
X15646400Y-8106800D02*
X15701400Y-8051800D01*
X15646400Y-7996800D01*
X15591400Y-8051800D01*
X15646400Y-8106800D01*
X15900400Y-6328800D02*
X15955400Y-6273800D01*
X15900400Y-6218800D01*
X15845400Y-6273800D01*
X15900400Y-6328800D01*
X15900400Y-8106800D02*
X15955400Y-8051800D01*
X15900400Y-7996800D01*
X15845400Y-8051800D01*
X15900400Y-8106800D01*
X16041691Y-4148446D02*
X16096691Y-4093446D01*
X16041691Y-4038446D01*
X15986691Y-4093446D01*
X16041691Y-4148446D01*
X16041691Y-4656446D02*
X16096691Y-4601446D01*
X16041691Y-4546446D01*
X15986691Y-4601446D01*
X16041691Y-4656446D01*
X16041691Y-5164446D02*
X16096691Y-5109446D01*
X16041691Y-5054446D01*
X15986691Y-5109446D01*
X16041691Y-5164446D01*
X16154400Y-6328800D02*
X16209400Y-6273800D01*
X16154400Y-6218800D01*
X16099400Y-6273800D01*
X16154400Y-6328800D01*
X16154400Y-8106800D02*
X16209400Y-8051800D01*
X16154400Y-7996800D01*
X16099400Y-8051800D01*
X16154400Y-8106800D01*
X16408400Y-6328800D02*
X16463400Y-6273800D01*
X16408400Y-6218800D01*
X16353400Y-6273800D01*
X16408400Y-6328800D01*
X16408400Y-8106800D02*
X16463400Y-8051800D01*
X16408400Y-7996800D01*
X16353400Y-8051800D01*
X16408400Y-8106800D01*
X16662400Y-6328800D02*
X16717400Y-6273800D01*
X16662400Y-6218800D01*
X16607400Y-6273800D01*
X16662400Y-6328800D01*
X16662400Y-8106800D02*
X16717400Y-8051800D01*
X16662400Y-7996800D01*
X16607400Y-8051800D01*
X16662400Y-8106800D01*
X16916400Y-6328800D02*
X16971400Y-6273800D01*
X16916400Y-6218800D01*
X16861400Y-6273800D01*
X16916400Y-6328800D01*
X16916400Y-8106800D02*
X16971400Y-8051800D01*
X16916400Y-7996800D01*
X16861400Y-8051800D01*
X16916400Y-8106800D01*
X17170400Y-6328800D02*
X17225400Y-6273800D01*
X17170400Y-6218800D01*
X17115400Y-6273800D01*
X17170400Y-6328800D01*
X17170400Y-8106800D02*
X17225400Y-8051800D01*
X17170400Y-7996800D01*
X17115400Y-8051800D01*
X17170400Y-8106800D01*
X17424400Y-6328800D02*
X17479400Y-6273800D01*
X17424400Y-6218800D01*
X17369400Y-6273800D01*
X17424400Y-6328800D01*
X17424400Y-8106800D02*
X17479400Y-8051800D01*
X17424400Y-7996800D01*
X17369400Y-8051800D01*
X17424400Y-8106800D01*
X17678400Y-6328800D02*
X17733400Y-6273800D01*
X17678400Y-6218800D01*
X17623400Y-6273800D01*
X17678400Y-6328800D01*
X17678400Y-8106800D02*
X17733400Y-8051800D01*
X17678400Y-7996800D01*
X17623400Y-8051800D01*
X17678400Y-8106800D01*
X17747230Y-2585608D02*
X17802230Y-2530608D01*
X17747230Y-2475608D01*
X17692230Y-2530608D01*
X17747230Y-2585608D01*
X17747230Y-3093608D02*
X17802230Y-3038608D01*
X17747230Y-2983608D01*
X17692230Y-3038608D01*
X17747230Y-3093608D01*
X17747230Y-3601608D02*
X17802230Y-3546608D01*
X17747230Y-3491608D01*
X17692230Y-3546608D01*
X17747230Y-3601608D01*
X17912825Y-4478378D02*
X17967825Y-4423378D01*
X17912825Y-4368378D01*
X17857825Y-4423378D01*
X17912825Y-4478378D01*
X17912825Y-4986378D02*
X17967825Y-4931378D01*
X17912825Y-4876378D01*
X17857825Y-4931378D01*
X17912825Y-4986378D01*
X17912825Y-5494378D02*
X17967825Y-5439378D01*
X17912825Y-5384378D01*
X17857825Y-5439378D01*
X17912825Y-5494378D01*
X17932400Y-6328800D02*
X17987400Y-6273800D01*
X17932400Y-6218800D01*
X17877400Y-6273800D01*
X17932400Y-6328800D01*
X17932400Y-8106800D02*
X17987400Y-8051800D01*
X17932400Y-7996800D01*
X17877400Y-8051800D01*
X17932400Y-8106800D01*
X18186400Y-6328800D02*
X18241400Y-6273800D01*
X18186400Y-6218800D01*
X18131400Y-6273800D01*
X18186400Y-6328800D01*
X18186400Y-8106800D02*
X18241400Y-8051800D01*
X18186400Y-7996800D01*
X18131400Y-8051800D01*
X18186400Y-8106800D01*
X18440400Y-6328800D02*
X18495400Y-6273800D01*
X18440400Y-6218800D01*
X18385400Y-6273800D01*
X18440400Y-6328800D01*
X18440400Y-8106800D02*
X18495400Y-8051800D01*
X18440400Y-7996800D01*
X18385400Y-8051800D01*
X18440400Y-8106800D01*
X18694400Y-6328800D02*
X18749400Y-6273800D01*
X18694400Y-6218800D01*
X18639400Y-6273800D01*
X18694400Y-6328800D01*
X18694400Y-8106800D02*
X18749400Y-8051800D01*
X18694400Y-7996800D01*
X18639400Y-8051800D01*
X18694400Y-8106800D01*
X18948400Y-6328800D02*
X19003400Y-6273800D01*
X18948400Y-6218800D01*
X18893400Y-6273800D01*
X18948400Y-6328800D01*
X18948400Y-8106800D02*
X19003400Y-8051800D01*
X18948400Y-7996800D01*
X18893400Y-8051800D01*
X18948400Y-8106800D01*
X19179400Y-6963800D02*
X19234400Y-6908800D01*
X19179400Y-6853800D01*
X19124400Y-6908800D01*
X19179400Y-6963800D01*
X19179400Y-7217800D02*
X19234400Y-7162800D01*
X19179400Y-7107800D01*
X19124400Y-7162800D01*
X19179400Y-7217800D01*
X19179400Y-7471800D02*
X19234400Y-7416800D01*
X19179400Y-7361800D01*
X19124400Y-7416800D01*
X19179400Y-7471800D01*
X19202400Y-6328800D02*
X19257400Y-6273800D01*
X19202400Y-6218800D01*
X19147400Y-6273800D01*
X19202400Y-6328800D01*
X19202400Y-8106800D02*
X19257400Y-8051800D01*
X19202400Y-7996800D01*
X19147400Y-8051800D01*
X19202400Y-8106800D01*
D10*
X10023578Y-12867217D02*
X10023578Y-12667217D01*
X10023578Y-12667217D02*
X10071197Y-12667217D01*
X10071197Y-12667217D02*
X10099768Y-12676741D01*
X10099768Y-12676741D02*
X10118816Y-12695788D01*
X10118816Y-12695788D02*
X10128340Y-12714836D01*
X10128340Y-12714836D02*
X10137863Y-12752931D01*
X10137863Y-12752931D02*
X10137863Y-12781503D01*
X10137863Y-12781503D02*
X10128340Y-12819598D01*
X10128340Y-12819598D02*
X10118816Y-12838645D01*
X10118816Y-12838645D02*
X10099768Y-12857693D01*
X10099768Y-12857693D02*
X10071197Y-12867217D01*
X10071197Y-12867217D02*
X10023578Y-12867217D01*
X10223578Y-12867217D02*
X10223578Y-12733883D01*
X10223578Y-12771979D02*
X10233102Y-12752931D01*
X10233102Y-12752931D02*
X10242625Y-12743407D01*
X10242625Y-12743407D02*
X10261673Y-12733883D01*
X10261673Y-12733883D02*
X10280721Y-12733883D01*
X10347387Y-12867217D02*
X10347387Y-12733883D01*
X10347387Y-12667217D02*
X10337863Y-12676741D01*
X10337863Y-12676741D02*
X10347387Y-12686264D01*
X10347387Y-12686264D02*
X10356911Y-12676741D01*
X10356911Y-12676741D02*
X10347387Y-12667217D01*
X10347387Y-12667217D02*
X10347387Y-12686264D01*
X10471197Y-12867217D02*
X10452149Y-12857693D01*
X10452149Y-12857693D02*
X10442625Y-12838645D01*
X10442625Y-12838645D02*
X10442625Y-12667217D01*
X10575959Y-12867217D02*
X10556911Y-12857693D01*
X10556911Y-12857693D02*
X10547387Y-12838645D01*
X10547387Y-12838645D02*
X10547387Y-12667217D01*
X10804530Y-12867217D02*
X10804530Y-12667217D01*
X10804530Y-12667217D02*
X10871197Y-12810074D01*
X10871197Y-12810074D02*
X10937863Y-12667217D01*
X10937863Y-12667217D02*
X10937863Y-12867217D01*
X11118816Y-12867217D02*
X11118816Y-12762455D01*
X11118816Y-12762455D02*
X11109292Y-12743407D01*
X11109292Y-12743407D02*
X11090244Y-12733883D01*
X11090244Y-12733883D02*
X11052149Y-12733883D01*
X11052149Y-12733883D02*
X11033102Y-12743407D01*
X11118816Y-12857693D02*
X11099768Y-12867217D01*
X11099768Y-12867217D02*
X11052149Y-12867217D01*
X11052149Y-12867217D02*
X11033102Y-12857693D01*
X11033102Y-12857693D02*
X11023578Y-12838645D01*
X11023578Y-12838645D02*
X11023578Y-12819598D01*
X11023578Y-12819598D02*
X11033102Y-12800550D01*
X11033102Y-12800550D02*
X11052149Y-12791026D01*
X11052149Y-12791026D02*
X11099768Y-12791026D01*
X11099768Y-12791026D02*
X11118816Y-12781503D01*
X11214054Y-12733883D02*
X11214054Y-12933883D01*
X11214054Y-12743407D02*
X11233101Y-12733883D01*
X11233101Y-12733883D02*
X11271197Y-12733883D01*
X11271197Y-12733883D02*
X11290244Y-12743407D01*
X11290244Y-12743407D02*
X11299768Y-12752931D01*
X11299768Y-12752931D02*
X11309292Y-12771979D01*
X11309292Y-12771979D02*
X11309292Y-12829122D01*
X11309292Y-12829122D02*
X11299768Y-12848169D01*
X11299768Y-12848169D02*
X11290244Y-12857693D01*
X11290244Y-12857693D02*
X11271197Y-12867217D01*
X11271197Y-12867217D02*
X11233101Y-12867217D01*
X11233101Y-12867217D02*
X11214054Y-12857693D01*
X11395006Y-12848169D02*
X11404530Y-12857693D01*
X11404530Y-12857693D02*
X11395006Y-12867217D01*
X11395006Y-12867217D02*
X11385482Y-12857693D01*
X11385482Y-12857693D02*
X11395006Y-12848169D01*
X11395006Y-12848169D02*
X11395006Y-12867217D01*
X11395006Y-12743407D02*
X11404530Y-12752931D01*
X11404530Y-12752931D02*
X11395006Y-12762455D01*
X11395006Y-12762455D02*
X11385482Y-12752931D01*
X11385482Y-12752931D02*
X11395006Y-12743407D01*
X11395006Y-12743407D02*
X11395006Y-12762455D01*
D11*
X9722801Y-13175733D02*
X9762801Y-13215733D01*
X9762801Y-13175733D02*
X9722801Y-13215733D01*
D10*
X10061673Y-13087217D02*
X10080721Y-13087217D01*
X10080721Y-13087217D02*
X10099768Y-13096741D01*
X10099768Y-13096741D02*
X10109292Y-13106264D01*
X10109292Y-13106264D02*
X10118816Y-13125312D01*
X10118816Y-13125312D02*
X10128340Y-13163407D01*
X10128340Y-13163407D02*
X10128340Y-13211026D01*
X10128340Y-13211026D02*
X10118816Y-13249122D01*
X10118816Y-13249122D02*
X10109292Y-13268169D01*
X10109292Y-13268169D02*
X10099768Y-13277693D01*
X10099768Y-13277693D02*
X10080721Y-13287217D01*
X10080721Y-13287217D02*
X10061673Y-13287217D01*
X10061673Y-13287217D02*
X10042625Y-13277693D01*
X10042625Y-13277693D02*
X10033102Y-13268169D01*
X10033102Y-13268169D02*
X10023578Y-13249122D01*
X10023578Y-13249122D02*
X10014054Y-13211026D01*
X10014054Y-13211026D02*
X10014054Y-13163407D01*
X10014054Y-13163407D02*
X10023578Y-13125312D01*
X10023578Y-13125312D02*
X10033102Y-13106264D01*
X10033102Y-13106264D02*
X10042625Y-13096741D01*
X10042625Y-13096741D02*
X10061673Y-13087217D01*
X10214054Y-13268169D02*
X10223578Y-13277693D01*
X10223578Y-13277693D02*
X10214054Y-13287217D01*
X10214054Y-13287217D02*
X10204530Y-13277693D01*
X10204530Y-13277693D02*
X10214054Y-13268169D01*
X10214054Y-13268169D02*
X10214054Y-13287217D01*
X10395006Y-13153883D02*
X10395006Y-13287217D01*
X10347387Y-13077693D02*
X10299768Y-13220550D01*
X10299768Y-13220550D02*
X10423578Y-13220550D01*
X10537863Y-13087217D02*
X10556911Y-13087217D01*
X10556911Y-13087217D02*
X10575959Y-13096741D01*
X10575959Y-13096741D02*
X10585483Y-13106264D01*
X10585483Y-13106264D02*
X10595006Y-13125312D01*
X10595006Y-13125312D02*
X10604530Y-13163407D01*
X10604530Y-13163407D02*
X10604530Y-13211026D01*
X10604530Y-13211026D02*
X10595006Y-13249122D01*
X10595006Y-13249122D02*
X10585483Y-13268169D01*
X10585483Y-13268169D02*
X10575959Y-13277693D01*
X10575959Y-13277693D02*
X10556911Y-13287217D01*
X10556911Y-13287217D02*
X10537863Y-13287217D01*
X10537863Y-13287217D02*
X10518816Y-13277693D01*
X10518816Y-13277693D02*
X10509292Y-13268169D01*
X10509292Y-13268169D02*
X10499768Y-13249122D01*
X10499768Y-13249122D02*
X10490244Y-13211026D01*
X10490244Y-13211026D02*
X10490244Y-13163407D01*
X10490244Y-13163407D02*
X10499768Y-13125312D01*
X10499768Y-13125312D02*
X10509292Y-13106264D01*
X10509292Y-13106264D02*
X10518816Y-13096741D01*
X10518816Y-13096741D02*
X10537863Y-13087217D01*
X10728340Y-13087217D02*
X10747387Y-13087217D01*
X10747387Y-13087217D02*
X10766435Y-13096741D01*
X10766435Y-13096741D02*
X10775959Y-13106264D01*
X10775959Y-13106264D02*
X10785483Y-13125312D01*
X10785483Y-13125312D02*
X10795006Y-13163407D01*
X10795006Y-13163407D02*
X10795006Y-13211026D01*
X10795006Y-13211026D02*
X10785483Y-13249122D01*
X10785483Y-13249122D02*
X10775959Y-13268169D01*
X10775959Y-13268169D02*
X10766435Y-13277693D01*
X10766435Y-13277693D02*
X10747387Y-13287217D01*
X10747387Y-13287217D02*
X10728340Y-13287217D01*
X10728340Y-13287217D02*
X10709292Y-13277693D01*
X10709292Y-13277693D02*
X10699768Y-13268169D01*
X10699768Y-13268169D02*
X10690244Y-13249122D01*
X10690244Y-13249122D02*
X10680721Y-13211026D01*
X10680721Y-13211026D02*
X10680721Y-13163407D01*
X10680721Y-13163407D02*
X10690244Y-13125312D01*
X10690244Y-13125312D02*
X10699768Y-13106264D01*
X10699768Y-13106264D02*
X10709292Y-13096741D01*
X10709292Y-13096741D02*
X10728340Y-13087217D01*
X10880721Y-13287217D02*
X10880721Y-13153883D01*
X10880721Y-13172931D02*
X10890244Y-13163407D01*
X10890244Y-13163407D02*
X10909292Y-13153883D01*
X10909292Y-13153883D02*
X10937864Y-13153883D01*
X10937864Y-13153883D02*
X10956911Y-13163407D01*
X10956911Y-13163407D02*
X10966435Y-13182455D01*
X10966435Y-13182455D02*
X10966435Y-13287217D01*
X10966435Y-13182455D02*
X10975959Y-13163407D01*
X10975959Y-13163407D02*
X10995006Y-13153883D01*
X10995006Y-13153883D02*
X11023578Y-13153883D01*
X11023578Y-13153883D02*
X11042625Y-13163407D01*
X11042625Y-13163407D02*
X11052149Y-13182455D01*
X11052149Y-13182455D02*
X11052149Y-13287217D01*
X11147387Y-13287217D02*
X11147387Y-13153883D01*
X11147387Y-13172931D02*
X11156911Y-13163407D01*
X11156911Y-13163407D02*
X11175959Y-13153883D01*
X11175959Y-13153883D02*
X11204530Y-13153883D01*
X11204530Y-13153883D02*
X11223578Y-13163407D01*
X11223578Y-13163407D02*
X11233102Y-13182455D01*
X11233102Y-13182455D02*
X11233102Y-13287217D01*
X11233102Y-13182455D02*
X11242625Y-13163407D01*
X11242625Y-13163407D02*
X11261673Y-13153883D01*
X11261673Y-13153883D02*
X11290244Y-13153883D01*
X11290244Y-13153883D02*
X11309292Y-13163407D01*
X11309292Y-13163407D02*
X11318816Y-13182455D01*
X11318816Y-13182455D02*
X11318816Y-13287217D01*
X11709292Y-13077693D02*
X11537864Y-13334836D01*
X11966435Y-13087217D02*
X11985483Y-13087217D01*
X11985483Y-13087217D02*
X12004530Y-13096741D01*
X12004530Y-13096741D02*
X12014054Y-13106264D01*
X12014054Y-13106264D02*
X12023578Y-13125312D01*
X12023578Y-13125312D02*
X12033102Y-13163407D01*
X12033102Y-13163407D02*
X12033102Y-13211026D01*
X12033102Y-13211026D02*
X12023578Y-13249122D01*
X12023578Y-13249122D02*
X12014054Y-13268169D01*
X12014054Y-13268169D02*
X12004530Y-13277693D01*
X12004530Y-13277693D02*
X11985483Y-13287217D01*
X11985483Y-13287217D02*
X11966435Y-13287217D01*
X11966435Y-13287217D02*
X11947387Y-13277693D01*
X11947387Y-13277693D02*
X11937864Y-13268169D01*
X11937864Y-13268169D02*
X11928340Y-13249122D01*
X11928340Y-13249122D02*
X11918816Y-13211026D01*
X11918816Y-13211026D02*
X11918816Y-13163407D01*
X11918816Y-13163407D02*
X11928340Y-13125312D01*
X11928340Y-13125312D02*
X11937864Y-13106264D01*
X11937864Y-13106264D02*
X11947387Y-13096741D01*
X11947387Y-13096741D02*
X11966435Y-13087217D01*
X12118816Y-13268169D02*
X12128340Y-13277693D01*
X12128340Y-13277693D02*
X12118816Y-13287217D01*
X12118816Y-13287217D02*
X12109292Y-13277693D01*
X12109292Y-13277693D02*
X12118816Y-13268169D01*
X12118816Y-13268169D02*
X12118816Y-13287217D01*
X12252149Y-13087217D02*
X12271197Y-13087217D01*
X12271197Y-13087217D02*
X12290245Y-13096741D01*
X12290245Y-13096741D02*
X12299768Y-13106264D01*
X12299768Y-13106264D02*
X12309292Y-13125312D01*
X12309292Y-13125312D02*
X12318816Y-13163407D01*
X12318816Y-13163407D02*
X12318816Y-13211026D01*
X12318816Y-13211026D02*
X12309292Y-13249122D01*
X12309292Y-13249122D02*
X12299768Y-13268169D01*
X12299768Y-13268169D02*
X12290245Y-13277693D01*
X12290245Y-13277693D02*
X12271197Y-13287217D01*
X12271197Y-13287217D02*
X12252149Y-13287217D01*
X12252149Y-13287217D02*
X12233102Y-13277693D01*
X12233102Y-13277693D02*
X12223578Y-13268169D01*
X12223578Y-13268169D02*
X12214054Y-13249122D01*
X12214054Y-13249122D02*
X12204530Y-13211026D01*
X12204530Y-13211026D02*
X12204530Y-13163407D01*
X12204530Y-13163407D02*
X12214054Y-13125312D01*
X12214054Y-13125312D02*
X12223578Y-13106264D01*
X12223578Y-13106264D02*
X12233102Y-13096741D01*
X12233102Y-13096741D02*
X12252149Y-13087217D01*
X12509292Y-13287217D02*
X12395006Y-13287217D01*
X12452149Y-13287217D02*
X12452149Y-13087217D01*
X12452149Y-13087217D02*
X12433102Y-13115788D01*
X12433102Y-13115788D02*
X12414054Y-13134836D01*
X12414054Y-13134836D02*
X12395006Y-13144360D01*
X12690245Y-13087217D02*
X12595006Y-13087217D01*
X12595006Y-13087217D02*
X12585483Y-13182455D01*
X12585483Y-13182455D02*
X12595006Y-13172931D01*
X12595006Y-13172931D02*
X12614054Y-13163407D01*
X12614054Y-13163407D02*
X12661673Y-13163407D01*
X12661673Y-13163407D02*
X12680721Y-13172931D01*
X12680721Y-13172931D02*
X12690245Y-13182455D01*
X12690245Y-13182455D02*
X12699768Y-13201503D01*
X12699768Y-13201503D02*
X12699768Y-13249122D01*
X12699768Y-13249122D02*
X12690245Y-13268169D01*
X12690245Y-13268169D02*
X12680721Y-13277693D01*
X12680721Y-13277693D02*
X12661673Y-13287217D01*
X12661673Y-13287217D02*
X12614054Y-13287217D01*
X12614054Y-13287217D02*
X12595006Y-13277693D01*
X12595006Y-13277693D02*
X12585483Y-13268169D01*
X12766435Y-13087217D02*
X12899768Y-13087217D01*
X12899768Y-13087217D02*
X12814054Y-13287217D01*
X12966435Y-13087217D02*
X12966435Y-13125312D01*
X13042626Y-13087217D02*
X13042626Y-13125312D01*
X13337864Y-13363407D02*
X13328340Y-13353883D01*
X13328340Y-13353883D02*
X13309292Y-13325312D01*
X13309292Y-13325312D02*
X13299768Y-13306264D01*
X13299768Y-13306264D02*
X13290245Y-13277693D01*
X13290245Y-13277693D02*
X13280721Y-13230074D01*
X13280721Y-13230074D02*
X13280721Y-13191979D01*
X13280721Y-13191979D02*
X13290245Y-13144360D01*
X13290245Y-13144360D02*
X13299768Y-13115788D01*
X13299768Y-13115788D02*
X13309292Y-13096741D01*
X13309292Y-13096741D02*
X13328340Y-13068169D01*
X13328340Y-13068169D02*
X13337864Y-13058645D01*
X13518816Y-13287217D02*
X13404530Y-13287217D01*
X13461673Y-13287217D02*
X13461673Y-13087217D01*
X13461673Y-13087217D02*
X13442626Y-13115788D01*
X13442626Y-13115788D02*
X13423578Y-13134836D01*
X13423578Y-13134836D02*
X13404530Y-13144360D01*
X13756911Y-13287217D02*
X13756911Y-13087217D01*
X13842626Y-13287217D02*
X13842626Y-13182455D01*
X13842626Y-13182455D02*
X13833102Y-13163407D01*
X13833102Y-13163407D02*
X13814054Y-13153883D01*
X13814054Y-13153883D02*
X13785483Y-13153883D01*
X13785483Y-13153883D02*
X13766435Y-13163407D01*
X13766435Y-13163407D02*
X13756911Y-13172931D01*
X13966435Y-13287217D02*
X13947388Y-13277693D01*
X13947388Y-13277693D02*
X13937864Y-13268169D01*
X13937864Y-13268169D02*
X13928340Y-13249122D01*
X13928340Y-13249122D02*
X13928340Y-13191979D01*
X13928340Y-13191979D02*
X13937864Y-13172931D01*
X13937864Y-13172931D02*
X13947388Y-13163407D01*
X13947388Y-13163407D02*
X13966435Y-13153883D01*
X13966435Y-13153883D02*
X13995007Y-13153883D01*
X13995007Y-13153883D02*
X14014054Y-13163407D01*
X14014054Y-13163407D02*
X14023578Y-13172931D01*
X14023578Y-13172931D02*
X14033102Y-13191979D01*
X14033102Y-13191979D02*
X14033102Y-13249122D01*
X14033102Y-13249122D02*
X14023578Y-13268169D01*
X14023578Y-13268169D02*
X14014054Y-13277693D01*
X14014054Y-13277693D02*
X13995007Y-13287217D01*
X13995007Y-13287217D02*
X13966435Y-13287217D01*
X14147388Y-13287217D02*
X14128340Y-13277693D01*
X14128340Y-13277693D02*
X14118816Y-13258645D01*
X14118816Y-13258645D02*
X14118816Y-13087217D01*
X14299769Y-13277693D02*
X14280721Y-13287217D01*
X14280721Y-13287217D02*
X14242626Y-13287217D01*
X14242626Y-13287217D02*
X14223578Y-13277693D01*
X14223578Y-13277693D02*
X14214054Y-13258645D01*
X14214054Y-13258645D02*
X14214054Y-13182455D01*
X14214054Y-13182455D02*
X14223578Y-13163407D01*
X14223578Y-13163407D02*
X14242626Y-13153883D01*
X14242626Y-13153883D02*
X14280721Y-13153883D01*
X14280721Y-13153883D02*
X14299769Y-13163407D01*
X14299769Y-13163407D02*
X14309292Y-13182455D01*
X14309292Y-13182455D02*
X14309292Y-13201503D01*
X14309292Y-13201503D02*
X14214054Y-13220550D01*
X14375959Y-13363407D02*
X14385483Y-13353883D01*
X14385483Y-13353883D02*
X14404530Y-13325312D01*
X14404530Y-13325312D02*
X14414054Y-13306264D01*
X14414054Y-13306264D02*
X14423578Y-13277693D01*
X14423578Y-13277693D02*
X14433102Y-13230074D01*
X14433102Y-13230074D02*
X14433102Y-13191979D01*
X14433102Y-13191979D02*
X14423578Y-13144360D01*
X14423578Y-13144360D02*
X14414054Y-13115788D01*
X14414054Y-13115788D02*
X14404530Y-13096741D01*
X14404530Y-13096741D02*
X14385483Y-13068169D01*
X14385483Y-13068169D02*
X14375959Y-13058645D01*
D12*
X9762801Y-13459733D02*
G75*
G03*
X9762801Y-13459733I-30000J0D01*
G01*
D10*
X10061673Y-13351217D02*
X10080721Y-13351217D01*
X10080721Y-13351217D02*
X10099768Y-13360741D01*
X10099768Y-13360741D02*
X10109292Y-13370264D01*
X10109292Y-13370264D02*
X10118816Y-13389312D01*
X10118816Y-13389312D02*
X10128340Y-13427407D01*
X10128340Y-13427407D02*
X10128340Y-13475026D01*
X10128340Y-13475026D02*
X10118816Y-13513122D01*
X10118816Y-13513122D02*
X10109292Y-13532169D01*
X10109292Y-13532169D02*
X10099768Y-13541693D01*
X10099768Y-13541693D02*
X10080721Y-13551217D01*
X10080721Y-13551217D02*
X10061673Y-13551217D01*
X10061673Y-13551217D02*
X10042625Y-13541693D01*
X10042625Y-13541693D02*
X10033102Y-13532169D01*
X10033102Y-13532169D02*
X10023578Y-13513122D01*
X10023578Y-13513122D02*
X10014054Y-13475026D01*
X10014054Y-13475026D02*
X10014054Y-13427407D01*
X10014054Y-13427407D02*
X10023578Y-13389312D01*
X10023578Y-13389312D02*
X10033102Y-13370264D01*
X10033102Y-13370264D02*
X10042625Y-13360741D01*
X10042625Y-13360741D02*
X10061673Y-13351217D01*
X10214054Y-13532169D02*
X10223578Y-13541693D01*
X10223578Y-13541693D02*
X10214054Y-13551217D01*
X10214054Y-13551217D02*
X10204530Y-13541693D01*
X10204530Y-13541693D02*
X10214054Y-13532169D01*
X10214054Y-13532169D02*
X10214054Y-13551217D01*
X10395006Y-13351217D02*
X10356911Y-13351217D01*
X10356911Y-13351217D02*
X10337863Y-13360741D01*
X10337863Y-13360741D02*
X10328340Y-13370264D01*
X10328340Y-13370264D02*
X10309292Y-13398836D01*
X10309292Y-13398836D02*
X10299768Y-13436931D01*
X10299768Y-13436931D02*
X10299768Y-13513122D01*
X10299768Y-13513122D02*
X10309292Y-13532169D01*
X10309292Y-13532169D02*
X10318816Y-13541693D01*
X10318816Y-13541693D02*
X10337863Y-13551217D01*
X10337863Y-13551217D02*
X10375959Y-13551217D01*
X10375959Y-13551217D02*
X10395006Y-13541693D01*
X10395006Y-13541693D02*
X10404530Y-13532169D01*
X10404530Y-13532169D02*
X10414054Y-13513122D01*
X10414054Y-13513122D02*
X10414054Y-13465503D01*
X10414054Y-13465503D02*
X10404530Y-13446455D01*
X10404530Y-13446455D02*
X10395006Y-13436931D01*
X10395006Y-13436931D02*
X10375959Y-13427407D01*
X10375959Y-13427407D02*
X10337863Y-13427407D01*
X10337863Y-13427407D02*
X10318816Y-13436931D01*
X10318816Y-13436931D02*
X10309292Y-13446455D01*
X10309292Y-13446455D02*
X10299768Y-13465503D01*
X10537863Y-13351217D02*
X10556911Y-13351217D01*
X10556911Y-13351217D02*
X10575959Y-13360741D01*
X10575959Y-13360741D02*
X10585483Y-13370264D01*
X10585483Y-13370264D02*
X10595006Y-13389312D01*
X10595006Y-13389312D02*
X10604530Y-13427407D01*
X10604530Y-13427407D02*
X10604530Y-13475026D01*
X10604530Y-13475026D02*
X10595006Y-13513122D01*
X10595006Y-13513122D02*
X10585483Y-13532169D01*
X10585483Y-13532169D02*
X10575959Y-13541693D01*
X10575959Y-13541693D02*
X10556911Y-13551217D01*
X10556911Y-13551217D02*
X10537863Y-13551217D01*
X10537863Y-13551217D02*
X10518816Y-13541693D01*
X10518816Y-13541693D02*
X10509292Y-13532169D01*
X10509292Y-13532169D02*
X10499768Y-13513122D01*
X10499768Y-13513122D02*
X10490244Y-13475026D01*
X10490244Y-13475026D02*
X10490244Y-13427407D01*
X10490244Y-13427407D02*
X10499768Y-13389312D01*
X10499768Y-13389312D02*
X10509292Y-13370264D01*
X10509292Y-13370264D02*
X10518816Y-13360741D01*
X10518816Y-13360741D02*
X10537863Y-13351217D01*
X10728340Y-13351217D02*
X10747387Y-13351217D01*
X10747387Y-13351217D02*
X10766435Y-13360741D01*
X10766435Y-13360741D02*
X10775959Y-13370264D01*
X10775959Y-13370264D02*
X10785483Y-13389312D01*
X10785483Y-13389312D02*
X10795006Y-13427407D01*
X10795006Y-13427407D02*
X10795006Y-13475026D01*
X10795006Y-13475026D02*
X10785483Y-13513122D01*
X10785483Y-13513122D02*
X10775959Y-13532169D01*
X10775959Y-13532169D02*
X10766435Y-13541693D01*
X10766435Y-13541693D02*
X10747387Y-13551217D01*
X10747387Y-13551217D02*
X10728340Y-13551217D01*
X10728340Y-13551217D02*
X10709292Y-13541693D01*
X10709292Y-13541693D02*
X10699768Y-13532169D01*
X10699768Y-13532169D02*
X10690244Y-13513122D01*
X10690244Y-13513122D02*
X10680721Y-13475026D01*
X10680721Y-13475026D02*
X10680721Y-13427407D01*
X10680721Y-13427407D02*
X10690244Y-13389312D01*
X10690244Y-13389312D02*
X10699768Y-13370264D01*
X10699768Y-13370264D02*
X10709292Y-13360741D01*
X10709292Y-13360741D02*
X10728340Y-13351217D01*
X10880721Y-13551217D02*
X10880721Y-13417883D01*
X10880721Y-13436931D02*
X10890244Y-13427407D01*
X10890244Y-13427407D02*
X10909292Y-13417883D01*
X10909292Y-13417883D02*
X10937864Y-13417883D01*
X10937864Y-13417883D02*
X10956911Y-13427407D01*
X10956911Y-13427407D02*
X10966435Y-13446455D01*
X10966435Y-13446455D02*
X10966435Y-13551217D01*
X10966435Y-13446455D02*
X10975959Y-13427407D01*
X10975959Y-13427407D02*
X10995006Y-13417883D01*
X10995006Y-13417883D02*
X11023578Y-13417883D01*
X11023578Y-13417883D02*
X11042625Y-13427407D01*
X11042625Y-13427407D02*
X11052149Y-13446455D01*
X11052149Y-13446455D02*
X11052149Y-13551217D01*
X11147387Y-13551217D02*
X11147387Y-13417883D01*
X11147387Y-13436931D02*
X11156911Y-13427407D01*
X11156911Y-13427407D02*
X11175959Y-13417883D01*
X11175959Y-13417883D02*
X11204530Y-13417883D01*
X11204530Y-13417883D02*
X11223578Y-13427407D01*
X11223578Y-13427407D02*
X11233102Y-13446455D01*
X11233102Y-13446455D02*
X11233102Y-13551217D01*
X11233102Y-13446455D02*
X11242625Y-13427407D01*
X11242625Y-13427407D02*
X11261673Y-13417883D01*
X11261673Y-13417883D02*
X11290244Y-13417883D01*
X11290244Y-13417883D02*
X11309292Y-13427407D01*
X11309292Y-13427407D02*
X11318816Y-13446455D01*
X11318816Y-13446455D02*
X11318816Y-13551217D01*
X11709292Y-13341693D02*
X11537864Y-13598836D01*
X11966435Y-13351217D02*
X11985483Y-13351217D01*
X11985483Y-13351217D02*
X12004530Y-13360741D01*
X12004530Y-13360741D02*
X12014054Y-13370264D01*
X12014054Y-13370264D02*
X12023578Y-13389312D01*
X12023578Y-13389312D02*
X12033102Y-13427407D01*
X12033102Y-13427407D02*
X12033102Y-13475026D01*
X12033102Y-13475026D02*
X12023578Y-13513122D01*
X12023578Y-13513122D02*
X12014054Y-13532169D01*
X12014054Y-13532169D02*
X12004530Y-13541693D01*
X12004530Y-13541693D02*
X11985483Y-13551217D01*
X11985483Y-13551217D02*
X11966435Y-13551217D01*
X11966435Y-13551217D02*
X11947387Y-13541693D01*
X11947387Y-13541693D02*
X11937864Y-13532169D01*
X11937864Y-13532169D02*
X11928340Y-13513122D01*
X11928340Y-13513122D02*
X11918816Y-13475026D01*
X11918816Y-13475026D02*
X11918816Y-13427407D01*
X11918816Y-13427407D02*
X11928340Y-13389312D01*
X11928340Y-13389312D02*
X11937864Y-13370264D01*
X11937864Y-13370264D02*
X11947387Y-13360741D01*
X11947387Y-13360741D02*
X11966435Y-13351217D01*
X12118816Y-13532169D02*
X12128340Y-13541693D01*
X12128340Y-13541693D02*
X12118816Y-13551217D01*
X12118816Y-13551217D02*
X12109292Y-13541693D01*
X12109292Y-13541693D02*
X12118816Y-13532169D01*
X12118816Y-13532169D02*
X12118816Y-13551217D01*
X12252149Y-13351217D02*
X12271197Y-13351217D01*
X12271197Y-13351217D02*
X12290245Y-13360741D01*
X12290245Y-13360741D02*
X12299768Y-13370264D01*
X12299768Y-13370264D02*
X12309292Y-13389312D01*
X12309292Y-13389312D02*
X12318816Y-13427407D01*
X12318816Y-13427407D02*
X12318816Y-13475026D01*
X12318816Y-13475026D02*
X12309292Y-13513122D01*
X12309292Y-13513122D02*
X12299768Y-13532169D01*
X12299768Y-13532169D02*
X12290245Y-13541693D01*
X12290245Y-13541693D02*
X12271197Y-13551217D01*
X12271197Y-13551217D02*
X12252149Y-13551217D01*
X12252149Y-13551217D02*
X12233102Y-13541693D01*
X12233102Y-13541693D02*
X12223578Y-13532169D01*
X12223578Y-13532169D02*
X12214054Y-13513122D01*
X12214054Y-13513122D02*
X12204530Y-13475026D01*
X12204530Y-13475026D02*
X12204530Y-13427407D01*
X12204530Y-13427407D02*
X12214054Y-13389312D01*
X12214054Y-13389312D02*
X12223578Y-13370264D01*
X12223578Y-13370264D02*
X12233102Y-13360741D01*
X12233102Y-13360741D02*
X12252149Y-13351217D01*
X12395006Y-13370264D02*
X12404530Y-13360741D01*
X12404530Y-13360741D02*
X12423578Y-13351217D01*
X12423578Y-13351217D02*
X12471197Y-13351217D01*
X12471197Y-13351217D02*
X12490245Y-13360741D01*
X12490245Y-13360741D02*
X12499768Y-13370264D01*
X12499768Y-13370264D02*
X12509292Y-13389312D01*
X12509292Y-13389312D02*
X12509292Y-13408360D01*
X12509292Y-13408360D02*
X12499768Y-13436931D01*
X12499768Y-13436931D02*
X12385483Y-13551217D01*
X12385483Y-13551217D02*
X12509292Y-13551217D01*
X12575959Y-13351217D02*
X12699768Y-13351217D01*
X12699768Y-13351217D02*
X12633102Y-13427407D01*
X12633102Y-13427407D02*
X12661673Y-13427407D01*
X12661673Y-13427407D02*
X12680721Y-13436931D01*
X12680721Y-13436931D02*
X12690245Y-13446455D01*
X12690245Y-13446455D02*
X12699768Y-13465503D01*
X12699768Y-13465503D02*
X12699768Y-13513122D01*
X12699768Y-13513122D02*
X12690245Y-13532169D01*
X12690245Y-13532169D02*
X12680721Y-13541693D01*
X12680721Y-13541693D02*
X12661673Y-13551217D01*
X12661673Y-13551217D02*
X12604530Y-13551217D01*
X12604530Y-13551217D02*
X12585483Y-13541693D01*
X12585483Y-13541693D02*
X12575959Y-13532169D01*
X12871197Y-13351217D02*
X12833102Y-13351217D01*
X12833102Y-13351217D02*
X12814054Y-13360741D01*
X12814054Y-13360741D02*
X12804530Y-13370264D01*
X12804530Y-13370264D02*
X12785483Y-13398836D01*
X12785483Y-13398836D02*
X12775959Y-13436931D01*
X12775959Y-13436931D02*
X12775959Y-13513122D01*
X12775959Y-13513122D02*
X12785483Y-13532169D01*
X12785483Y-13532169D02*
X12795006Y-13541693D01*
X12795006Y-13541693D02*
X12814054Y-13551217D01*
X12814054Y-13551217D02*
X12852149Y-13551217D01*
X12852149Y-13551217D02*
X12871197Y-13541693D01*
X12871197Y-13541693D02*
X12880721Y-13532169D01*
X12880721Y-13532169D02*
X12890245Y-13513122D01*
X12890245Y-13513122D02*
X12890245Y-13465503D01*
X12890245Y-13465503D02*
X12880721Y-13446455D01*
X12880721Y-13446455D02*
X12871197Y-13436931D01*
X12871197Y-13436931D02*
X12852149Y-13427407D01*
X12852149Y-13427407D02*
X12814054Y-13427407D01*
X12814054Y-13427407D02*
X12795006Y-13436931D01*
X12795006Y-13436931D02*
X12785483Y-13446455D01*
X12785483Y-13446455D02*
X12775959Y-13465503D01*
X12966435Y-13351217D02*
X12966435Y-13389312D01*
X13042626Y-13351217D02*
X13042626Y-13389312D01*
X13337864Y-13627407D02*
X13328340Y-13617883D01*
X13328340Y-13617883D02*
X13309292Y-13589312D01*
X13309292Y-13589312D02*
X13299768Y-13570264D01*
X13299768Y-13570264D02*
X13290245Y-13541693D01*
X13290245Y-13541693D02*
X13280721Y-13494074D01*
X13280721Y-13494074D02*
X13280721Y-13455979D01*
X13280721Y-13455979D02*
X13290245Y-13408360D01*
X13290245Y-13408360D02*
X13299768Y-13379788D01*
X13299768Y-13379788D02*
X13309292Y-13360741D01*
X13309292Y-13360741D02*
X13328340Y-13332169D01*
X13328340Y-13332169D02*
X13337864Y-13322645D01*
X13404530Y-13370264D02*
X13414054Y-13360741D01*
X13414054Y-13360741D02*
X13433102Y-13351217D01*
X13433102Y-13351217D02*
X13480721Y-13351217D01*
X13480721Y-13351217D02*
X13499768Y-13360741D01*
X13499768Y-13360741D02*
X13509292Y-13370264D01*
X13509292Y-13370264D02*
X13518816Y-13389312D01*
X13518816Y-13389312D02*
X13518816Y-13408360D01*
X13518816Y-13408360D02*
X13509292Y-13436931D01*
X13509292Y-13436931D02*
X13395007Y-13551217D01*
X13395007Y-13551217D02*
X13518816Y-13551217D01*
X13756911Y-13551217D02*
X13756911Y-13351217D01*
X13842626Y-13551217D02*
X13842626Y-13446455D01*
X13842626Y-13446455D02*
X13833102Y-13427407D01*
X13833102Y-13427407D02*
X13814054Y-13417883D01*
X13814054Y-13417883D02*
X13785483Y-13417883D01*
X13785483Y-13417883D02*
X13766435Y-13427407D01*
X13766435Y-13427407D02*
X13756911Y-13436931D01*
X13966435Y-13551217D02*
X13947388Y-13541693D01*
X13947388Y-13541693D02*
X13937864Y-13532169D01*
X13937864Y-13532169D02*
X13928340Y-13513122D01*
X13928340Y-13513122D02*
X13928340Y-13455979D01*
X13928340Y-13455979D02*
X13937864Y-13436931D01*
X13937864Y-13436931D02*
X13947388Y-13427407D01*
X13947388Y-13427407D02*
X13966435Y-13417883D01*
X13966435Y-13417883D02*
X13995007Y-13417883D01*
X13995007Y-13417883D02*
X14014054Y-13427407D01*
X14014054Y-13427407D02*
X14023578Y-13436931D01*
X14023578Y-13436931D02*
X14033102Y-13455979D01*
X14033102Y-13455979D02*
X14033102Y-13513122D01*
X14033102Y-13513122D02*
X14023578Y-13532169D01*
X14023578Y-13532169D02*
X14014054Y-13541693D01*
X14014054Y-13541693D02*
X13995007Y-13551217D01*
X13995007Y-13551217D02*
X13966435Y-13551217D01*
X14147388Y-13551217D02*
X14128340Y-13541693D01*
X14128340Y-13541693D02*
X14118816Y-13522645D01*
X14118816Y-13522645D02*
X14118816Y-13351217D01*
X14299769Y-13541693D02*
X14280721Y-13551217D01*
X14280721Y-13551217D02*
X14242626Y-13551217D01*
X14242626Y-13551217D02*
X14223578Y-13541693D01*
X14223578Y-13541693D02*
X14214054Y-13522645D01*
X14214054Y-13522645D02*
X14214054Y-13446455D01*
X14214054Y-13446455D02*
X14223578Y-13427407D01*
X14223578Y-13427407D02*
X14242626Y-13417883D01*
X14242626Y-13417883D02*
X14280721Y-13417883D01*
X14280721Y-13417883D02*
X14299769Y-13427407D01*
X14299769Y-13427407D02*
X14309292Y-13446455D01*
X14309292Y-13446455D02*
X14309292Y-13465503D01*
X14309292Y-13465503D02*
X14214054Y-13484550D01*
X14385483Y-13541693D02*
X14404530Y-13551217D01*
X14404530Y-13551217D02*
X14442626Y-13551217D01*
X14442626Y-13551217D02*
X14461673Y-13541693D01*
X14461673Y-13541693D02*
X14471197Y-13522645D01*
X14471197Y-13522645D02*
X14471197Y-13513122D01*
X14471197Y-13513122D02*
X14461673Y-13494074D01*
X14461673Y-13494074D02*
X14442626Y-13484550D01*
X14442626Y-13484550D02*
X14414054Y-13484550D01*
X14414054Y-13484550D02*
X14395007Y-13475026D01*
X14395007Y-13475026D02*
X14385483Y-13455979D01*
X14385483Y-13455979D02*
X14385483Y-13446455D01*
X14385483Y-13446455D02*
X14395007Y-13427407D01*
X14395007Y-13427407D02*
X14414054Y-13417883D01*
X14414054Y-13417883D02*
X14442626Y-13417883D01*
X14442626Y-13417883D02*
X14461673Y-13427407D01*
X14537864Y-13627407D02*
X14547388Y-13617883D01*
X14547388Y-13617883D02*
X14566435Y-13589312D01*
X14566435Y-13589312D02*
X14575959Y-13570264D01*
X14575959Y-13570264D02*
X14585483Y-13541693D01*
X14585483Y-13541693D02*
X14595007Y-13494074D01*
X14595007Y-13494074D02*
X14595007Y-13455979D01*
X14595007Y-13455979D02*
X14585483Y-13408360D01*
X14585483Y-13408360D02*
X14575959Y-13379788D01*
X14575959Y-13379788D02*
X14566435Y-13360741D01*
X14566435Y-13360741D02*
X14547388Y-13332169D01*
X14547388Y-13332169D02*
X14537864Y-13322645D01*
D13*
X9725301Y-13686233D02*
X9725301Y-13761233D01*
X9687801Y-13723733D02*
X9762801Y-13723733D01*
D10*
X10061673Y-13615217D02*
X10080721Y-13615217D01*
X10080721Y-13615217D02*
X10099768Y-13624741D01*
X10099768Y-13624741D02*
X10109292Y-13634264D01*
X10109292Y-13634264D02*
X10118816Y-13653312D01*
X10118816Y-13653312D02*
X10128340Y-13691407D01*
X10128340Y-13691407D02*
X10128340Y-13739026D01*
X10128340Y-13739026D02*
X10118816Y-13777122D01*
X10118816Y-13777122D02*
X10109292Y-13796169D01*
X10109292Y-13796169D02*
X10099768Y-13805693D01*
X10099768Y-13805693D02*
X10080721Y-13815217D01*
X10080721Y-13815217D02*
X10061673Y-13815217D01*
X10061673Y-13815217D02*
X10042625Y-13805693D01*
X10042625Y-13805693D02*
X10033102Y-13796169D01*
X10033102Y-13796169D02*
X10023578Y-13777122D01*
X10023578Y-13777122D02*
X10014054Y-13739026D01*
X10014054Y-13739026D02*
X10014054Y-13691407D01*
X10014054Y-13691407D02*
X10023578Y-13653312D01*
X10023578Y-13653312D02*
X10033102Y-13634264D01*
X10033102Y-13634264D02*
X10042625Y-13624741D01*
X10042625Y-13624741D02*
X10061673Y-13615217D01*
X10214054Y-13796169D02*
X10223578Y-13805693D01*
X10223578Y-13805693D02*
X10214054Y-13815217D01*
X10214054Y-13815217D02*
X10204530Y-13805693D01*
X10204530Y-13805693D02*
X10214054Y-13796169D01*
X10214054Y-13796169D02*
X10214054Y-13815217D01*
X10290244Y-13615217D02*
X10423578Y-13615217D01*
X10423578Y-13615217D02*
X10337863Y-13815217D01*
X10595006Y-13615217D02*
X10499768Y-13615217D01*
X10499768Y-13615217D02*
X10490244Y-13710455D01*
X10490244Y-13710455D02*
X10499768Y-13700931D01*
X10499768Y-13700931D02*
X10518816Y-13691407D01*
X10518816Y-13691407D02*
X10566435Y-13691407D01*
X10566435Y-13691407D02*
X10585483Y-13700931D01*
X10585483Y-13700931D02*
X10595006Y-13710455D01*
X10595006Y-13710455D02*
X10604530Y-13729503D01*
X10604530Y-13729503D02*
X10604530Y-13777122D01*
X10604530Y-13777122D02*
X10595006Y-13796169D01*
X10595006Y-13796169D02*
X10585483Y-13805693D01*
X10585483Y-13805693D02*
X10566435Y-13815217D01*
X10566435Y-13815217D02*
X10518816Y-13815217D01*
X10518816Y-13815217D02*
X10499768Y-13805693D01*
X10499768Y-13805693D02*
X10490244Y-13796169D01*
X10728340Y-13615217D02*
X10747387Y-13615217D01*
X10747387Y-13615217D02*
X10766435Y-13624741D01*
X10766435Y-13624741D02*
X10775959Y-13634264D01*
X10775959Y-13634264D02*
X10785483Y-13653312D01*
X10785483Y-13653312D02*
X10795006Y-13691407D01*
X10795006Y-13691407D02*
X10795006Y-13739026D01*
X10795006Y-13739026D02*
X10785483Y-13777122D01*
X10785483Y-13777122D02*
X10775959Y-13796169D01*
X10775959Y-13796169D02*
X10766435Y-13805693D01*
X10766435Y-13805693D02*
X10747387Y-13815217D01*
X10747387Y-13815217D02*
X10728340Y-13815217D01*
X10728340Y-13815217D02*
X10709292Y-13805693D01*
X10709292Y-13805693D02*
X10699768Y-13796169D01*
X10699768Y-13796169D02*
X10690244Y-13777122D01*
X10690244Y-13777122D02*
X10680721Y-13739026D01*
X10680721Y-13739026D02*
X10680721Y-13691407D01*
X10680721Y-13691407D02*
X10690244Y-13653312D01*
X10690244Y-13653312D02*
X10699768Y-13634264D01*
X10699768Y-13634264D02*
X10709292Y-13624741D01*
X10709292Y-13624741D02*
X10728340Y-13615217D01*
X10880721Y-13815217D02*
X10880721Y-13681883D01*
X10880721Y-13700931D02*
X10890244Y-13691407D01*
X10890244Y-13691407D02*
X10909292Y-13681883D01*
X10909292Y-13681883D02*
X10937864Y-13681883D01*
X10937864Y-13681883D02*
X10956911Y-13691407D01*
X10956911Y-13691407D02*
X10966435Y-13710455D01*
X10966435Y-13710455D02*
X10966435Y-13815217D01*
X10966435Y-13710455D02*
X10975959Y-13691407D01*
X10975959Y-13691407D02*
X10995006Y-13681883D01*
X10995006Y-13681883D02*
X11023578Y-13681883D01*
X11023578Y-13681883D02*
X11042625Y-13691407D01*
X11042625Y-13691407D02*
X11052149Y-13710455D01*
X11052149Y-13710455D02*
X11052149Y-13815217D01*
X11147387Y-13815217D02*
X11147387Y-13681883D01*
X11147387Y-13700931D02*
X11156911Y-13691407D01*
X11156911Y-13691407D02*
X11175959Y-13681883D01*
X11175959Y-13681883D02*
X11204530Y-13681883D01*
X11204530Y-13681883D02*
X11223578Y-13691407D01*
X11223578Y-13691407D02*
X11233102Y-13710455D01*
X11233102Y-13710455D02*
X11233102Y-13815217D01*
X11233102Y-13710455D02*
X11242625Y-13691407D01*
X11242625Y-13691407D02*
X11261673Y-13681883D01*
X11261673Y-13681883D02*
X11290244Y-13681883D01*
X11290244Y-13681883D02*
X11309292Y-13691407D01*
X11309292Y-13691407D02*
X11318816Y-13710455D01*
X11318816Y-13710455D02*
X11318816Y-13815217D01*
X11709292Y-13605693D02*
X11537864Y-13862836D01*
X11966435Y-13615217D02*
X11985483Y-13615217D01*
X11985483Y-13615217D02*
X12004530Y-13624741D01*
X12004530Y-13624741D02*
X12014054Y-13634264D01*
X12014054Y-13634264D02*
X12023578Y-13653312D01*
X12023578Y-13653312D02*
X12033102Y-13691407D01*
X12033102Y-13691407D02*
X12033102Y-13739026D01*
X12033102Y-13739026D02*
X12023578Y-13777122D01*
X12023578Y-13777122D02*
X12014054Y-13796169D01*
X12014054Y-13796169D02*
X12004530Y-13805693D01*
X12004530Y-13805693D02*
X11985483Y-13815217D01*
X11985483Y-13815217D02*
X11966435Y-13815217D01*
X11966435Y-13815217D02*
X11947387Y-13805693D01*
X11947387Y-13805693D02*
X11937864Y-13796169D01*
X11937864Y-13796169D02*
X11928340Y-13777122D01*
X11928340Y-13777122D02*
X11918816Y-13739026D01*
X11918816Y-13739026D02*
X11918816Y-13691407D01*
X11918816Y-13691407D02*
X11928340Y-13653312D01*
X11928340Y-13653312D02*
X11937864Y-13634264D01*
X11937864Y-13634264D02*
X11947387Y-13624741D01*
X11947387Y-13624741D02*
X11966435Y-13615217D01*
X12118816Y-13796169D02*
X12128340Y-13805693D01*
X12128340Y-13805693D02*
X12118816Y-13815217D01*
X12118816Y-13815217D02*
X12109292Y-13805693D01*
X12109292Y-13805693D02*
X12118816Y-13796169D01*
X12118816Y-13796169D02*
X12118816Y-13815217D01*
X12252149Y-13615217D02*
X12271197Y-13615217D01*
X12271197Y-13615217D02*
X12290245Y-13624741D01*
X12290245Y-13624741D02*
X12299768Y-13634264D01*
X12299768Y-13634264D02*
X12309292Y-13653312D01*
X12309292Y-13653312D02*
X12318816Y-13691407D01*
X12318816Y-13691407D02*
X12318816Y-13739026D01*
X12318816Y-13739026D02*
X12309292Y-13777122D01*
X12309292Y-13777122D02*
X12299768Y-13796169D01*
X12299768Y-13796169D02*
X12290245Y-13805693D01*
X12290245Y-13805693D02*
X12271197Y-13815217D01*
X12271197Y-13815217D02*
X12252149Y-13815217D01*
X12252149Y-13815217D02*
X12233102Y-13805693D01*
X12233102Y-13805693D02*
X12223578Y-13796169D01*
X12223578Y-13796169D02*
X12214054Y-13777122D01*
X12214054Y-13777122D02*
X12204530Y-13739026D01*
X12204530Y-13739026D02*
X12204530Y-13691407D01*
X12204530Y-13691407D02*
X12214054Y-13653312D01*
X12214054Y-13653312D02*
X12223578Y-13634264D01*
X12223578Y-13634264D02*
X12233102Y-13624741D01*
X12233102Y-13624741D02*
X12252149Y-13615217D01*
X12395006Y-13634264D02*
X12404530Y-13624741D01*
X12404530Y-13624741D02*
X12423578Y-13615217D01*
X12423578Y-13615217D02*
X12471197Y-13615217D01*
X12471197Y-13615217D02*
X12490245Y-13624741D01*
X12490245Y-13624741D02*
X12499768Y-13634264D01*
X12499768Y-13634264D02*
X12509292Y-13653312D01*
X12509292Y-13653312D02*
X12509292Y-13672360D01*
X12509292Y-13672360D02*
X12499768Y-13700931D01*
X12499768Y-13700931D02*
X12385483Y-13815217D01*
X12385483Y-13815217D02*
X12509292Y-13815217D01*
X12604530Y-13815217D02*
X12642625Y-13815217D01*
X12642625Y-13815217D02*
X12661673Y-13805693D01*
X12661673Y-13805693D02*
X12671197Y-13796169D01*
X12671197Y-13796169D02*
X12690245Y-13767598D01*
X12690245Y-13767598D02*
X12699768Y-13729503D01*
X12699768Y-13729503D02*
X12699768Y-13653312D01*
X12699768Y-13653312D02*
X12690245Y-13634264D01*
X12690245Y-13634264D02*
X12680721Y-13624741D01*
X12680721Y-13624741D02*
X12661673Y-13615217D01*
X12661673Y-13615217D02*
X12623578Y-13615217D01*
X12623578Y-13615217D02*
X12604530Y-13624741D01*
X12604530Y-13624741D02*
X12595006Y-13634264D01*
X12595006Y-13634264D02*
X12585483Y-13653312D01*
X12585483Y-13653312D02*
X12585483Y-13700931D01*
X12585483Y-13700931D02*
X12595006Y-13719979D01*
X12595006Y-13719979D02*
X12604530Y-13729503D01*
X12604530Y-13729503D02*
X12623578Y-13739026D01*
X12623578Y-13739026D02*
X12661673Y-13739026D01*
X12661673Y-13739026D02*
X12680721Y-13729503D01*
X12680721Y-13729503D02*
X12690245Y-13719979D01*
X12690245Y-13719979D02*
X12699768Y-13700931D01*
X12880721Y-13615217D02*
X12785483Y-13615217D01*
X12785483Y-13615217D02*
X12775959Y-13710455D01*
X12775959Y-13710455D02*
X12785483Y-13700931D01*
X12785483Y-13700931D02*
X12804530Y-13691407D01*
X12804530Y-13691407D02*
X12852149Y-13691407D01*
X12852149Y-13691407D02*
X12871197Y-13700931D01*
X12871197Y-13700931D02*
X12880721Y-13710455D01*
X12880721Y-13710455D02*
X12890245Y-13729503D01*
X12890245Y-13729503D02*
X12890245Y-13777122D01*
X12890245Y-13777122D02*
X12880721Y-13796169D01*
X12880721Y-13796169D02*
X12871197Y-13805693D01*
X12871197Y-13805693D02*
X12852149Y-13815217D01*
X12852149Y-13815217D02*
X12804530Y-13815217D01*
X12804530Y-13815217D02*
X12785483Y-13805693D01*
X12785483Y-13805693D02*
X12775959Y-13796169D01*
X12966435Y-13615217D02*
X12966435Y-13653312D01*
X13042626Y-13615217D02*
X13042626Y-13653312D01*
X13337864Y-13891407D02*
X13328340Y-13881883D01*
X13328340Y-13881883D02*
X13309292Y-13853312D01*
X13309292Y-13853312D02*
X13299768Y-13834264D01*
X13299768Y-13834264D02*
X13290245Y-13805693D01*
X13290245Y-13805693D02*
X13280721Y-13758074D01*
X13280721Y-13758074D02*
X13280721Y-13719979D01*
X13280721Y-13719979D02*
X13290245Y-13672360D01*
X13290245Y-13672360D02*
X13299768Y-13643788D01*
X13299768Y-13643788D02*
X13309292Y-13624741D01*
X13309292Y-13624741D02*
X13328340Y-13596169D01*
X13328340Y-13596169D02*
X13337864Y-13586645D01*
X13518816Y-13815217D02*
X13404530Y-13815217D01*
X13461673Y-13815217D02*
X13461673Y-13615217D01*
X13461673Y-13615217D02*
X13442626Y-13643788D01*
X13442626Y-13643788D02*
X13423578Y-13662836D01*
X13423578Y-13662836D02*
X13404530Y-13672360D01*
X13690245Y-13681883D02*
X13690245Y-13815217D01*
X13642626Y-13605693D02*
X13595007Y-13748550D01*
X13595007Y-13748550D02*
X13718816Y-13748550D01*
X13947388Y-13815217D02*
X13947388Y-13615217D01*
X14033102Y-13815217D02*
X14033102Y-13710455D01*
X14033102Y-13710455D02*
X14023578Y-13691407D01*
X14023578Y-13691407D02*
X14004530Y-13681883D01*
X14004530Y-13681883D02*
X13975959Y-13681883D01*
X13975959Y-13681883D02*
X13956911Y-13691407D01*
X13956911Y-13691407D02*
X13947388Y-13700931D01*
X14156911Y-13815217D02*
X14137864Y-13805693D01*
X14137864Y-13805693D02*
X14128340Y-13796169D01*
X14128340Y-13796169D02*
X14118816Y-13777122D01*
X14118816Y-13777122D02*
X14118816Y-13719979D01*
X14118816Y-13719979D02*
X14128340Y-13700931D01*
X14128340Y-13700931D02*
X14137864Y-13691407D01*
X14137864Y-13691407D02*
X14156911Y-13681883D01*
X14156911Y-13681883D02*
X14185483Y-13681883D01*
X14185483Y-13681883D02*
X14204530Y-13691407D01*
X14204530Y-13691407D02*
X14214054Y-13700931D01*
X14214054Y-13700931D02*
X14223578Y-13719979D01*
X14223578Y-13719979D02*
X14223578Y-13777122D01*
X14223578Y-13777122D02*
X14214054Y-13796169D01*
X14214054Y-13796169D02*
X14204530Y-13805693D01*
X14204530Y-13805693D02*
X14185483Y-13815217D01*
X14185483Y-13815217D02*
X14156911Y-13815217D01*
X14337864Y-13815217D02*
X14318816Y-13805693D01*
X14318816Y-13805693D02*
X14309292Y-13786645D01*
X14309292Y-13786645D02*
X14309292Y-13615217D01*
X14490245Y-13805693D02*
X14471197Y-13815217D01*
X14471197Y-13815217D02*
X14433102Y-13815217D01*
X14433102Y-13815217D02*
X14414054Y-13805693D01*
X14414054Y-13805693D02*
X14404530Y-13786645D01*
X14404530Y-13786645D02*
X14404530Y-13710455D01*
X14404530Y-13710455D02*
X14414054Y-13691407D01*
X14414054Y-13691407D02*
X14433102Y-13681883D01*
X14433102Y-13681883D02*
X14471197Y-13681883D01*
X14471197Y-13681883D02*
X14490245Y-13691407D01*
X14490245Y-13691407D02*
X14499769Y-13710455D01*
X14499769Y-13710455D02*
X14499769Y-13729503D01*
X14499769Y-13729503D02*
X14404530Y-13748550D01*
X14575959Y-13805693D02*
X14595007Y-13815217D01*
X14595007Y-13815217D02*
X14633102Y-13815217D01*
X14633102Y-13815217D02*
X14652150Y-13805693D01*
X14652150Y-13805693D02*
X14661673Y-13786645D01*
X14661673Y-13786645D02*
X14661673Y-13777122D01*
X14661673Y-13777122D02*
X14652150Y-13758074D01*
X14652150Y-13758074D02*
X14633102Y-13748550D01*
X14633102Y-13748550D02*
X14604530Y-13748550D01*
X14604530Y-13748550D02*
X14585483Y-13739026D01*
X14585483Y-13739026D02*
X14575959Y-13719979D01*
X14575959Y-13719979D02*
X14575959Y-13710455D01*
X14575959Y-13710455D02*
X14585483Y-13691407D01*
X14585483Y-13691407D02*
X14604530Y-13681883D01*
X14604530Y-13681883D02*
X14633102Y-13681883D01*
X14633102Y-13681883D02*
X14652150Y-13691407D01*
X14728340Y-13891407D02*
X14737864Y-13881883D01*
X14737864Y-13881883D02*
X14756911Y-13853312D01*
X14756911Y-13853312D02*
X14766435Y-13834264D01*
X14766435Y-13834264D02*
X14775959Y-13805693D01*
X14775959Y-13805693D02*
X14785483Y-13758074D01*
X14785483Y-13758074D02*
X14785483Y-13719979D01*
X14785483Y-13719979D02*
X14775959Y-13672360D01*
X14775959Y-13672360D02*
X14766435Y-13643788D01*
X14766435Y-13643788D02*
X14756911Y-13624741D01*
X14756911Y-13624741D02*
X14737864Y-13596169D01*
X14737864Y-13596169D02*
X14728340Y-13586645D01*
D14*
X9749621Y-14019553D02*
X9749621Y-13955913D01*
X9685981Y-13955913D01*
X9685981Y-14019553D01*
X9749621Y-14019553D01*
D10*
X10061673Y-13879217D02*
X10080721Y-13879217D01*
X10080721Y-13879217D02*
X10099768Y-13888741D01*
X10099768Y-13888741D02*
X10109292Y-13898264D01*
X10109292Y-13898264D02*
X10118816Y-13917312D01*
X10118816Y-13917312D02*
X10128340Y-13955407D01*
X10128340Y-13955407D02*
X10128340Y-14003026D01*
X10128340Y-14003026D02*
X10118816Y-14041122D01*
X10118816Y-14041122D02*
X10109292Y-14060169D01*
X10109292Y-14060169D02*
X10099768Y-14069693D01*
X10099768Y-14069693D02*
X10080721Y-14079217D01*
X10080721Y-14079217D02*
X10061673Y-14079217D01*
X10061673Y-14079217D02*
X10042625Y-14069693D01*
X10042625Y-14069693D02*
X10033102Y-14060169D01*
X10033102Y-14060169D02*
X10023578Y-14041122D01*
X10023578Y-14041122D02*
X10014054Y-14003026D01*
X10014054Y-14003026D02*
X10014054Y-13955407D01*
X10014054Y-13955407D02*
X10023578Y-13917312D01*
X10023578Y-13917312D02*
X10033102Y-13898264D01*
X10033102Y-13898264D02*
X10042625Y-13888741D01*
X10042625Y-13888741D02*
X10061673Y-13879217D01*
X10214054Y-14060169D02*
X10223578Y-14069693D01*
X10223578Y-14069693D02*
X10214054Y-14079217D01*
X10214054Y-14079217D02*
X10204530Y-14069693D01*
X10204530Y-14069693D02*
X10214054Y-14060169D01*
X10214054Y-14060169D02*
X10214054Y-14079217D01*
X10318816Y-14079217D02*
X10356911Y-14079217D01*
X10356911Y-14079217D02*
X10375959Y-14069693D01*
X10375959Y-14069693D02*
X10385483Y-14060169D01*
X10385483Y-14060169D02*
X10404530Y-14031598D01*
X10404530Y-14031598D02*
X10414054Y-13993503D01*
X10414054Y-13993503D02*
X10414054Y-13917312D01*
X10414054Y-13917312D02*
X10404530Y-13898264D01*
X10404530Y-13898264D02*
X10395006Y-13888741D01*
X10395006Y-13888741D02*
X10375959Y-13879217D01*
X10375959Y-13879217D02*
X10337863Y-13879217D01*
X10337863Y-13879217D02*
X10318816Y-13888741D01*
X10318816Y-13888741D02*
X10309292Y-13898264D01*
X10309292Y-13898264D02*
X10299768Y-13917312D01*
X10299768Y-13917312D02*
X10299768Y-13964931D01*
X10299768Y-13964931D02*
X10309292Y-13983979D01*
X10309292Y-13983979D02*
X10318816Y-13993503D01*
X10318816Y-13993503D02*
X10337863Y-14003026D01*
X10337863Y-14003026D02*
X10375959Y-14003026D01*
X10375959Y-14003026D02*
X10395006Y-13993503D01*
X10395006Y-13993503D02*
X10404530Y-13983979D01*
X10404530Y-13983979D02*
X10414054Y-13964931D01*
X10537863Y-13879217D02*
X10556911Y-13879217D01*
X10556911Y-13879217D02*
X10575959Y-13888741D01*
X10575959Y-13888741D02*
X10585483Y-13898264D01*
X10585483Y-13898264D02*
X10595006Y-13917312D01*
X10595006Y-13917312D02*
X10604530Y-13955407D01*
X10604530Y-13955407D02*
X10604530Y-14003026D01*
X10604530Y-14003026D02*
X10595006Y-14041122D01*
X10595006Y-14041122D02*
X10585483Y-14060169D01*
X10585483Y-14060169D02*
X10575959Y-14069693D01*
X10575959Y-14069693D02*
X10556911Y-14079217D01*
X10556911Y-14079217D02*
X10537863Y-14079217D01*
X10537863Y-14079217D02*
X10518816Y-14069693D01*
X10518816Y-14069693D02*
X10509292Y-14060169D01*
X10509292Y-14060169D02*
X10499768Y-14041122D01*
X10499768Y-14041122D02*
X10490244Y-14003026D01*
X10490244Y-14003026D02*
X10490244Y-13955407D01*
X10490244Y-13955407D02*
X10499768Y-13917312D01*
X10499768Y-13917312D02*
X10509292Y-13898264D01*
X10509292Y-13898264D02*
X10518816Y-13888741D01*
X10518816Y-13888741D02*
X10537863Y-13879217D01*
X10728340Y-13879217D02*
X10747387Y-13879217D01*
X10747387Y-13879217D02*
X10766435Y-13888741D01*
X10766435Y-13888741D02*
X10775959Y-13898264D01*
X10775959Y-13898264D02*
X10785483Y-13917312D01*
X10785483Y-13917312D02*
X10795006Y-13955407D01*
X10795006Y-13955407D02*
X10795006Y-14003026D01*
X10795006Y-14003026D02*
X10785483Y-14041122D01*
X10785483Y-14041122D02*
X10775959Y-14060169D01*
X10775959Y-14060169D02*
X10766435Y-14069693D01*
X10766435Y-14069693D02*
X10747387Y-14079217D01*
X10747387Y-14079217D02*
X10728340Y-14079217D01*
X10728340Y-14079217D02*
X10709292Y-14069693D01*
X10709292Y-14069693D02*
X10699768Y-14060169D01*
X10699768Y-14060169D02*
X10690244Y-14041122D01*
X10690244Y-14041122D02*
X10680721Y-14003026D01*
X10680721Y-14003026D02*
X10680721Y-13955407D01*
X10680721Y-13955407D02*
X10690244Y-13917312D01*
X10690244Y-13917312D02*
X10699768Y-13898264D01*
X10699768Y-13898264D02*
X10709292Y-13888741D01*
X10709292Y-13888741D02*
X10728340Y-13879217D01*
X10880721Y-14079217D02*
X10880721Y-13945883D01*
X10880721Y-13964931D02*
X10890244Y-13955407D01*
X10890244Y-13955407D02*
X10909292Y-13945883D01*
X10909292Y-13945883D02*
X10937864Y-13945883D01*
X10937864Y-13945883D02*
X10956911Y-13955407D01*
X10956911Y-13955407D02*
X10966435Y-13974455D01*
X10966435Y-13974455D02*
X10966435Y-14079217D01*
X10966435Y-13974455D02*
X10975959Y-13955407D01*
X10975959Y-13955407D02*
X10995006Y-13945883D01*
X10995006Y-13945883D02*
X11023578Y-13945883D01*
X11023578Y-13945883D02*
X11042625Y-13955407D01*
X11042625Y-13955407D02*
X11052149Y-13974455D01*
X11052149Y-13974455D02*
X11052149Y-14079217D01*
X11147387Y-14079217D02*
X11147387Y-13945883D01*
X11147387Y-13964931D02*
X11156911Y-13955407D01*
X11156911Y-13955407D02*
X11175959Y-13945883D01*
X11175959Y-13945883D02*
X11204530Y-13945883D01*
X11204530Y-13945883D02*
X11223578Y-13955407D01*
X11223578Y-13955407D02*
X11233102Y-13974455D01*
X11233102Y-13974455D02*
X11233102Y-14079217D01*
X11233102Y-13974455D02*
X11242625Y-13955407D01*
X11242625Y-13955407D02*
X11261673Y-13945883D01*
X11261673Y-13945883D02*
X11290244Y-13945883D01*
X11290244Y-13945883D02*
X11309292Y-13955407D01*
X11309292Y-13955407D02*
X11318816Y-13974455D01*
X11318816Y-13974455D02*
X11318816Y-14079217D01*
X11709292Y-13869693D02*
X11537864Y-14126836D01*
X11966435Y-13879217D02*
X11985483Y-13879217D01*
X11985483Y-13879217D02*
X12004530Y-13888741D01*
X12004530Y-13888741D02*
X12014054Y-13898264D01*
X12014054Y-13898264D02*
X12023578Y-13917312D01*
X12023578Y-13917312D02*
X12033102Y-13955407D01*
X12033102Y-13955407D02*
X12033102Y-14003026D01*
X12033102Y-14003026D02*
X12023578Y-14041122D01*
X12023578Y-14041122D02*
X12014054Y-14060169D01*
X12014054Y-14060169D02*
X12004530Y-14069693D01*
X12004530Y-14069693D02*
X11985483Y-14079217D01*
X11985483Y-14079217D02*
X11966435Y-14079217D01*
X11966435Y-14079217D02*
X11947387Y-14069693D01*
X11947387Y-14069693D02*
X11937864Y-14060169D01*
X11937864Y-14060169D02*
X11928340Y-14041122D01*
X11928340Y-14041122D02*
X11918816Y-14003026D01*
X11918816Y-14003026D02*
X11918816Y-13955407D01*
X11918816Y-13955407D02*
X11928340Y-13917312D01*
X11928340Y-13917312D02*
X11937864Y-13898264D01*
X11937864Y-13898264D02*
X11947387Y-13888741D01*
X11947387Y-13888741D02*
X11966435Y-13879217D01*
X12118816Y-14060169D02*
X12128340Y-14069693D01*
X12128340Y-14069693D02*
X12118816Y-14079217D01*
X12118816Y-14079217D02*
X12109292Y-14069693D01*
X12109292Y-14069693D02*
X12118816Y-14060169D01*
X12118816Y-14060169D02*
X12118816Y-14079217D01*
X12252149Y-13879217D02*
X12271197Y-13879217D01*
X12271197Y-13879217D02*
X12290245Y-13888741D01*
X12290245Y-13888741D02*
X12299768Y-13898264D01*
X12299768Y-13898264D02*
X12309292Y-13917312D01*
X12309292Y-13917312D02*
X12318816Y-13955407D01*
X12318816Y-13955407D02*
X12318816Y-14003026D01*
X12318816Y-14003026D02*
X12309292Y-14041122D01*
X12309292Y-14041122D02*
X12299768Y-14060169D01*
X12299768Y-14060169D02*
X12290245Y-14069693D01*
X12290245Y-14069693D02*
X12271197Y-14079217D01*
X12271197Y-14079217D02*
X12252149Y-14079217D01*
X12252149Y-14079217D02*
X12233102Y-14069693D01*
X12233102Y-14069693D02*
X12223578Y-14060169D01*
X12223578Y-14060169D02*
X12214054Y-14041122D01*
X12214054Y-14041122D02*
X12204530Y-14003026D01*
X12204530Y-14003026D02*
X12204530Y-13955407D01*
X12204530Y-13955407D02*
X12214054Y-13917312D01*
X12214054Y-13917312D02*
X12223578Y-13898264D01*
X12223578Y-13898264D02*
X12233102Y-13888741D01*
X12233102Y-13888741D02*
X12252149Y-13879217D01*
X12385483Y-13879217D02*
X12509292Y-13879217D01*
X12509292Y-13879217D02*
X12442625Y-13955407D01*
X12442625Y-13955407D02*
X12471197Y-13955407D01*
X12471197Y-13955407D02*
X12490245Y-13964931D01*
X12490245Y-13964931D02*
X12499768Y-13974455D01*
X12499768Y-13974455D02*
X12509292Y-13993503D01*
X12509292Y-13993503D02*
X12509292Y-14041122D01*
X12509292Y-14041122D02*
X12499768Y-14060169D01*
X12499768Y-14060169D02*
X12490245Y-14069693D01*
X12490245Y-14069693D02*
X12471197Y-14079217D01*
X12471197Y-14079217D02*
X12414054Y-14079217D01*
X12414054Y-14079217D02*
X12395006Y-14069693D01*
X12395006Y-14069693D02*
X12385483Y-14060169D01*
X12690245Y-13879217D02*
X12595006Y-13879217D01*
X12595006Y-13879217D02*
X12585483Y-13974455D01*
X12585483Y-13974455D02*
X12595006Y-13964931D01*
X12595006Y-13964931D02*
X12614054Y-13955407D01*
X12614054Y-13955407D02*
X12661673Y-13955407D01*
X12661673Y-13955407D02*
X12680721Y-13964931D01*
X12680721Y-13964931D02*
X12690245Y-13974455D01*
X12690245Y-13974455D02*
X12699768Y-13993503D01*
X12699768Y-13993503D02*
X12699768Y-14041122D01*
X12699768Y-14041122D02*
X12690245Y-14060169D01*
X12690245Y-14060169D02*
X12680721Y-14069693D01*
X12680721Y-14069693D02*
X12661673Y-14079217D01*
X12661673Y-14079217D02*
X12614054Y-14079217D01*
X12614054Y-14079217D02*
X12595006Y-14069693D01*
X12595006Y-14069693D02*
X12585483Y-14060169D01*
X12871197Y-13945883D02*
X12871197Y-14079217D01*
X12823578Y-13869693D02*
X12775959Y-14012550D01*
X12775959Y-14012550D02*
X12899768Y-14012550D01*
X12966435Y-13879217D02*
X12966435Y-13917312D01*
X13042626Y-13879217D02*
X13042626Y-13917312D01*
X13337864Y-14155407D02*
X13328340Y-14145883D01*
X13328340Y-14145883D02*
X13309292Y-14117312D01*
X13309292Y-14117312D02*
X13299768Y-14098264D01*
X13299768Y-14098264D02*
X13290245Y-14069693D01*
X13290245Y-14069693D02*
X13280721Y-14022074D01*
X13280721Y-14022074D02*
X13280721Y-13983979D01*
X13280721Y-13983979D02*
X13290245Y-13936360D01*
X13290245Y-13936360D02*
X13299768Y-13907788D01*
X13299768Y-13907788D02*
X13309292Y-13888741D01*
X13309292Y-13888741D02*
X13328340Y-13860169D01*
X13328340Y-13860169D02*
X13337864Y-13850645D01*
X13404530Y-13898264D02*
X13414054Y-13888741D01*
X13414054Y-13888741D02*
X13433102Y-13879217D01*
X13433102Y-13879217D02*
X13480721Y-13879217D01*
X13480721Y-13879217D02*
X13499768Y-13888741D01*
X13499768Y-13888741D02*
X13509292Y-13898264D01*
X13509292Y-13898264D02*
X13518816Y-13917312D01*
X13518816Y-13917312D02*
X13518816Y-13936360D01*
X13518816Y-13936360D02*
X13509292Y-13964931D01*
X13509292Y-13964931D02*
X13395007Y-14079217D01*
X13395007Y-14079217D02*
X13518816Y-14079217D01*
X13756911Y-14079217D02*
X13756911Y-13879217D01*
X13842626Y-14079217D02*
X13842626Y-13974455D01*
X13842626Y-13974455D02*
X13833102Y-13955407D01*
X13833102Y-13955407D02*
X13814054Y-13945883D01*
X13814054Y-13945883D02*
X13785483Y-13945883D01*
X13785483Y-13945883D02*
X13766435Y-13955407D01*
X13766435Y-13955407D02*
X13756911Y-13964931D01*
X13966435Y-14079217D02*
X13947388Y-14069693D01*
X13947388Y-14069693D02*
X13937864Y-14060169D01*
X13937864Y-14060169D02*
X13928340Y-14041122D01*
X13928340Y-14041122D02*
X13928340Y-13983979D01*
X13928340Y-13983979D02*
X13937864Y-13964931D01*
X13937864Y-13964931D02*
X13947388Y-13955407D01*
X13947388Y-13955407D02*
X13966435Y-13945883D01*
X13966435Y-13945883D02*
X13995007Y-13945883D01*
X13995007Y-13945883D02*
X14014054Y-13955407D01*
X14014054Y-13955407D02*
X14023578Y-13964931D01*
X14023578Y-13964931D02*
X14033102Y-13983979D01*
X14033102Y-13983979D02*
X14033102Y-14041122D01*
X14033102Y-14041122D02*
X14023578Y-14060169D01*
X14023578Y-14060169D02*
X14014054Y-14069693D01*
X14014054Y-14069693D02*
X13995007Y-14079217D01*
X13995007Y-14079217D02*
X13966435Y-14079217D01*
X14147388Y-14079217D02*
X14128340Y-14069693D01*
X14128340Y-14069693D02*
X14118816Y-14050645D01*
X14118816Y-14050645D02*
X14118816Y-13879217D01*
X14299769Y-14069693D02*
X14280721Y-14079217D01*
X14280721Y-14079217D02*
X14242626Y-14079217D01*
X14242626Y-14079217D02*
X14223578Y-14069693D01*
X14223578Y-14069693D02*
X14214054Y-14050645D01*
X14214054Y-14050645D02*
X14214054Y-13974455D01*
X14214054Y-13974455D02*
X14223578Y-13955407D01*
X14223578Y-13955407D02*
X14242626Y-13945883D01*
X14242626Y-13945883D02*
X14280721Y-13945883D01*
X14280721Y-13945883D02*
X14299769Y-13955407D01*
X14299769Y-13955407D02*
X14309292Y-13974455D01*
X14309292Y-13974455D02*
X14309292Y-13993503D01*
X14309292Y-13993503D02*
X14214054Y-14012550D01*
X14385483Y-14069693D02*
X14404530Y-14079217D01*
X14404530Y-14079217D02*
X14442626Y-14079217D01*
X14442626Y-14079217D02*
X14461673Y-14069693D01*
X14461673Y-14069693D02*
X14471197Y-14050645D01*
X14471197Y-14050645D02*
X14471197Y-14041122D01*
X14471197Y-14041122D02*
X14461673Y-14022074D01*
X14461673Y-14022074D02*
X14442626Y-14012550D01*
X14442626Y-14012550D02*
X14414054Y-14012550D01*
X14414054Y-14012550D02*
X14395007Y-14003026D01*
X14395007Y-14003026D02*
X14385483Y-13983979D01*
X14385483Y-13983979D02*
X14385483Y-13974455D01*
X14385483Y-13974455D02*
X14395007Y-13955407D01*
X14395007Y-13955407D02*
X14414054Y-13945883D01*
X14414054Y-13945883D02*
X14442626Y-13945883D01*
X14442626Y-13945883D02*
X14461673Y-13955407D01*
X14537864Y-14155407D02*
X14547388Y-14145883D01*
X14547388Y-14145883D02*
X14566435Y-14117312D01*
X14566435Y-14117312D02*
X14575959Y-14098264D01*
X14575959Y-14098264D02*
X14585483Y-14069693D01*
X14585483Y-14069693D02*
X14595007Y-14022074D01*
X14595007Y-14022074D02*
X14595007Y-13983979D01*
X14595007Y-13983979D02*
X14585483Y-13936360D01*
X14585483Y-13936360D02*
X14575959Y-13907788D01*
X14575959Y-13907788D02*
X14566435Y-13888741D01*
X14566435Y-13888741D02*
X14547388Y-13860169D01*
X14547388Y-13860169D02*
X14537864Y-13850645D01*
D15*
X9707801Y-14306733D02*
X9762801Y-14251733D01*
X9707801Y-14196733D01*
X9652801Y-14251733D01*
X9707801Y-14306733D01*
D10*
X10128340Y-14343217D02*
X10014054Y-14343217D01*
X10071197Y-14343217D02*
X10071197Y-14143217D01*
X10071197Y-14143217D02*
X10052149Y-14171788D01*
X10052149Y-14171788D02*
X10033102Y-14190836D01*
X10033102Y-14190836D02*
X10014054Y-14200360D01*
X10214054Y-14324169D02*
X10223578Y-14333693D01*
X10223578Y-14333693D02*
X10214054Y-14343217D01*
X10214054Y-14343217D02*
X10204530Y-14333693D01*
X10204530Y-14333693D02*
X10214054Y-14324169D01*
X10214054Y-14324169D02*
X10214054Y-14343217D01*
X10414054Y-14343217D02*
X10299768Y-14343217D01*
X10356911Y-14343217D02*
X10356911Y-14143217D01*
X10356911Y-14143217D02*
X10337863Y-14171788D01*
X10337863Y-14171788D02*
X10318816Y-14190836D01*
X10318816Y-14190836D02*
X10299768Y-14200360D01*
X10537863Y-14143217D02*
X10556911Y-14143217D01*
X10556911Y-14143217D02*
X10575959Y-14152741D01*
X10575959Y-14152741D02*
X10585483Y-14162264D01*
X10585483Y-14162264D02*
X10595006Y-14181312D01*
X10595006Y-14181312D02*
X10604530Y-14219407D01*
X10604530Y-14219407D02*
X10604530Y-14267026D01*
X10604530Y-14267026D02*
X10595006Y-14305122D01*
X10595006Y-14305122D02*
X10585483Y-14324169D01*
X10585483Y-14324169D02*
X10575959Y-14333693D01*
X10575959Y-14333693D02*
X10556911Y-14343217D01*
X10556911Y-14343217D02*
X10537863Y-14343217D01*
X10537863Y-14343217D02*
X10518816Y-14333693D01*
X10518816Y-14333693D02*
X10509292Y-14324169D01*
X10509292Y-14324169D02*
X10499768Y-14305122D01*
X10499768Y-14305122D02*
X10490244Y-14267026D01*
X10490244Y-14267026D02*
X10490244Y-14219407D01*
X10490244Y-14219407D02*
X10499768Y-14181312D01*
X10499768Y-14181312D02*
X10509292Y-14162264D01*
X10509292Y-14162264D02*
X10518816Y-14152741D01*
X10518816Y-14152741D02*
X10537863Y-14143217D01*
X10728340Y-14143217D02*
X10747387Y-14143217D01*
X10747387Y-14143217D02*
X10766435Y-14152741D01*
X10766435Y-14152741D02*
X10775959Y-14162264D01*
X10775959Y-14162264D02*
X10785483Y-14181312D01*
X10785483Y-14181312D02*
X10795006Y-14219407D01*
X10795006Y-14219407D02*
X10795006Y-14267026D01*
X10795006Y-14267026D02*
X10785483Y-14305122D01*
X10785483Y-14305122D02*
X10775959Y-14324169D01*
X10775959Y-14324169D02*
X10766435Y-14333693D01*
X10766435Y-14333693D02*
X10747387Y-14343217D01*
X10747387Y-14343217D02*
X10728340Y-14343217D01*
X10728340Y-14343217D02*
X10709292Y-14333693D01*
X10709292Y-14333693D02*
X10699768Y-14324169D01*
X10699768Y-14324169D02*
X10690244Y-14305122D01*
X10690244Y-14305122D02*
X10680721Y-14267026D01*
X10680721Y-14267026D02*
X10680721Y-14219407D01*
X10680721Y-14219407D02*
X10690244Y-14181312D01*
X10690244Y-14181312D02*
X10699768Y-14162264D01*
X10699768Y-14162264D02*
X10709292Y-14152741D01*
X10709292Y-14152741D02*
X10728340Y-14143217D01*
X10880721Y-14343217D02*
X10880721Y-14209883D01*
X10880721Y-14228931D02*
X10890244Y-14219407D01*
X10890244Y-14219407D02*
X10909292Y-14209883D01*
X10909292Y-14209883D02*
X10937864Y-14209883D01*
X10937864Y-14209883D02*
X10956911Y-14219407D01*
X10956911Y-14219407D02*
X10966435Y-14238455D01*
X10966435Y-14238455D02*
X10966435Y-14343217D01*
X10966435Y-14238455D02*
X10975959Y-14219407D01*
X10975959Y-14219407D02*
X10995006Y-14209883D01*
X10995006Y-14209883D02*
X11023578Y-14209883D01*
X11023578Y-14209883D02*
X11042625Y-14219407D01*
X11042625Y-14219407D02*
X11052149Y-14238455D01*
X11052149Y-14238455D02*
X11052149Y-14343217D01*
X11147387Y-14343217D02*
X11147387Y-14209883D01*
X11147387Y-14228931D02*
X11156911Y-14219407D01*
X11156911Y-14219407D02*
X11175959Y-14209883D01*
X11175959Y-14209883D02*
X11204530Y-14209883D01*
X11204530Y-14209883D02*
X11223578Y-14219407D01*
X11223578Y-14219407D02*
X11233102Y-14238455D01*
X11233102Y-14238455D02*
X11233102Y-14343217D01*
X11233102Y-14238455D02*
X11242625Y-14219407D01*
X11242625Y-14219407D02*
X11261673Y-14209883D01*
X11261673Y-14209883D02*
X11290244Y-14209883D01*
X11290244Y-14209883D02*
X11309292Y-14219407D01*
X11309292Y-14219407D02*
X11318816Y-14238455D01*
X11318816Y-14238455D02*
X11318816Y-14343217D01*
X11709292Y-14133693D02*
X11537864Y-14390836D01*
X11966435Y-14143217D02*
X11985483Y-14143217D01*
X11985483Y-14143217D02*
X12004530Y-14152741D01*
X12004530Y-14152741D02*
X12014054Y-14162264D01*
X12014054Y-14162264D02*
X12023578Y-14181312D01*
X12023578Y-14181312D02*
X12033102Y-14219407D01*
X12033102Y-14219407D02*
X12033102Y-14267026D01*
X12033102Y-14267026D02*
X12023578Y-14305122D01*
X12023578Y-14305122D02*
X12014054Y-14324169D01*
X12014054Y-14324169D02*
X12004530Y-14333693D01*
X12004530Y-14333693D02*
X11985483Y-14343217D01*
X11985483Y-14343217D02*
X11966435Y-14343217D01*
X11966435Y-14343217D02*
X11947387Y-14333693D01*
X11947387Y-14333693D02*
X11937864Y-14324169D01*
X11937864Y-14324169D02*
X11928340Y-14305122D01*
X11928340Y-14305122D02*
X11918816Y-14267026D01*
X11918816Y-14267026D02*
X11918816Y-14219407D01*
X11918816Y-14219407D02*
X11928340Y-14181312D01*
X11928340Y-14181312D02*
X11937864Y-14162264D01*
X11937864Y-14162264D02*
X11947387Y-14152741D01*
X11947387Y-14152741D02*
X11966435Y-14143217D01*
X12118816Y-14324169D02*
X12128340Y-14333693D01*
X12128340Y-14333693D02*
X12118816Y-14343217D01*
X12118816Y-14343217D02*
X12109292Y-14333693D01*
X12109292Y-14333693D02*
X12118816Y-14324169D01*
X12118816Y-14324169D02*
X12118816Y-14343217D01*
X12252149Y-14143217D02*
X12271197Y-14143217D01*
X12271197Y-14143217D02*
X12290245Y-14152741D01*
X12290245Y-14152741D02*
X12299768Y-14162264D01*
X12299768Y-14162264D02*
X12309292Y-14181312D01*
X12309292Y-14181312D02*
X12318816Y-14219407D01*
X12318816Y-14219407D02*
X12318816Y-14267026D01*
X12318816Y-14267026D02*
X12309292Y-14305122D01*
X12309292Y-14305122D02*
X12299768Y-14324169D01*
X12299768Y-14324169D02*
X12290245Y-14333693D01*
X12290245Y-14333693D02*
X12271197Y-14343217D01*
X12271197Y-14343217D02*
X12252149Y-14343217D01*
X12252149Y-14343217D02*
X12233102Y-14333693D01*
X12233102Y-14333693D02*
X12223578Y-14324169D01*
X12223578Y-14324169D02*
X12214054Y-14305122D01*
X12214054Y-14305122D02*
X12204530Y-14267026D01*
X12204530Y-14267026D02*
X12204530Y-14219407D01*
X12204530Y-14219407D02*
X12214054Y-14181312D01*
X12214054Y-14181312D02*
X12223578Y-14162264D01*
X12223578Y-14162264D02*
X12233102Y-14152741D01*
X12233102Y-14152741D02*
X12252149Y-14143217D01*
X12490245Y-14209883D02*
X12490245Y-14343217D01*
X12442625Y-14133693D02*
X12395006Y-14276550D01*
X12395006Y-14276550D02*
X12518816Y-14276550D01*
X12575959Y-14143217D02*
X12699768Y-14143217D01*
X12699768Y-14143217D02*
X12633102Y-14219407D01*
X12633102Y-14219407D02*
X12661673Y-14219407D01*
X12661673Y-14219407D02*
X12680721Y-14228931D01*
X12680721Y-14228931D02*
X12690245Y-14238455D01*
X12690245Y-14238455D02*
X12699768Y-14257503D01*
X12699768Y-14257503D02*
X12699768Y-14305122D01*
X12699768Y-14305122D02*
X12690245Y-14324169D01*
X12690245Y-14324169D02*
X12680721Y-14333693D01*
X12680721Y-14333693D02*
X12661673Y-14343217D01*
X12661673Y-14343217D02*
X12604530Y-14343217D01*
X12604530Y-14343217D02*
X12585483Y-14333693D01*
X12585483Y-14333693D02*
X12575959Y-14324169D01*
X12766435Y-14143217D02*
X12890245Y-14143217D01*
X12890245Y-14143217D02*
X12823578Y-14219407D01*
X12823578Y-14219407D02*
X12852149Y-14219407D01*
X12852149Y-14219407D02*
X12871197Y-14228931D01*
X12871197Y-14228931D02*
X12880721Y-14238455D01*
X12880721Y-14238455D02*
X12890245Y-14257503D01*
X12890245Y-14257503D02*
X12890245Y-14305122D01*
X12890245Y-14305122D02*
X12880721Y-14324169D01*
X12880721Y-14324169D02*
X12871197Y-14333693D01*
X12871197Y-14333693D02*
X12852149Y-14343217D01*
X12852149Y-14343217D02*
X12795006Y-14343217D01*
X12795006Y-14343217D02*
X12775959Y-14333693D01*
X12775959Y-14333693D02*
X12766435Y-14324169D01*
X12966435Y-14143217D02*
X12966435Y-14181312D01*
X13042626Y-14143217D02*
X13042626Y-14181312D01*
X13337864Y-14419407D02*
X13328340Y-14409883D01*
X13328340Y-14409883D02*
X13309292Y-14381312D01*
X13309292Y-14381312D02*
X13299768Y-14362264D01*
X13299768Y-14362264D02*
X13290245Y-14333693D01*
X13290245Y-14333693D02*
X13280721Y-14286074D01*
X13280721Y-14286074D02*
X13280721Y-14247979D01*
X13280721Y-14247979D02*
X13290245Y-14200360D01*
X13290245Y-14200360D02*
X13299768Y-14171788D01*
X13299768Y-14171788D02*
X13309292Y-14152741D01*
X13309292Y-14152741D02*
X13328340Y-14124169D01*
X13328340Y-14124169D02*
X13337864Y-14114645D01*
X13423578Y-14343217D02*
X13461673Y-14343217D01*
X13461673Y-14343217D02*
X13480721Y-14333693D01*
X13480721Y-14333693D02*
X13490245Y-14324169D01*
X13490245Y-14324169D02*
X13509292Y-14295598D01*
X13509292Y-14295598D02*
X13518816Y-14257503D01*
X13518816Y-14257503D02*
X13518816Y-14181312D01*
X13518816Y-14181312D02*
X13509292Y-14162264D01*
X13509292Y-14162264D02*
X13499768Y-14152741D01*
X13499768Y-14152741D02*
X13480721Y-14143217D01*
X13480721Y-14143217D02*
X13442626Y-14143217D01*
X13442626Y-14143217D02*
X13423578Y-14152741D01*
X13423578Y-14152741D02*
X13414054Y-14162264D01*
X13414054Y-14162264D02*
X13404530Y-14181312D01*
X13404530Y-14181312D02*
X13404530Y-14228931D01*
X13404530Y-14228931D02*
X13414054Y-14247979D01*
X13414054Y-14247979D02*
X13423578Y-14257503D01*
X13423578Y-14257503D02*
X13442626Y-14267026D01*
X13442626Y-14267026D02*
X13480721Y-14267026D01*
X13480721Y-14267026D02*
X13499768Y-14257503D01*
X13499768Y-14257503D02*
X13509292Y-14247979D01*
X13509292Y-14247979D02*
X13518816Y-14228931D01*
X13642626Y-14143217D02*
X13661673Y-14143217D01*
X13661673Y-14143217D02*
X13680721Y-14152741D01*
X13680721Y-14152741D02*
X13690245Y-14162264D01*
X13690245Y-14162264D02*
X13699768Y-14181312D01*
X13699768Y-14181312D02*
X13709292Y-14219407D01*
X13709292Y-14219407D02*
X13709292Y-14267026D01*
X13709292Y-14267026D02*
X13699768Y-14305122D01*
X13699768Y-14305122D02*
X13690245Y-14324169D01*
X13690245Y-14324169D02*
X13680721Y-14333693D01*
X13680721Y-14333693D02*
X13661673Y-14343217D01*
X13661673Y-14343217D02*
X13642626Y-14343217D01*
X13642626Y-14343217D02*
X13623578Y-14333693D01*
X13623578Y-14333693D02*
X13614054Y-14324169D01*
X13614054Y-14324169D02*
X13604530Y-14305122D01*
X13604530Y-14305122D02*
X13595007Y-14267026D01*
X13595007Y-14267026D02*
X13595007Y-14219407D01*
X13595007Y-14219407D02*
X13604530Y-14181312D01*
X13604530Y-14181312D02*
X13614054Y-14162264D01*
X13614054Y-14162264D02*
X13623578Y-14152741D01*
X13623578Y-14152741D02*
X13642626Y-14143217D01*
X13947388Y-14343217D02*
X13947388Y-14143217D01*
X14033102Y-14343217D02*
X14033102Y-14238455D01*
X14033102Y-14238455D02*
X14023578Y-14219407D01*
X14023578Y-14219407D02*
X14004530Y-14209883D01*
X14004530Y-14209883D02*
X13975959Y-14209883D01*
X13975959Y-14209883D02*
X13956911Y-14219407D01*
X13956911Y-14219407D02*
X13947388Y-14228931D01*
X14156911Y-14343217D02*
X14137864Y-14333693D01*
X14137864Y-14333693D02*
X14128340Y-14324169D01*
X14128340Y-14324169D02*
X14118816Y-14305122D01*
X14118816Y-14305122D02*
X14118816Y-14247979D01*
X14118816Y-14247979D02*
X14128340Y-14228931D01*
X14128340Y-14228931D02*
X14137864Y-14219407D01*
X14137864Y-14219407D02*
X14156911Y-14209883D01*
X14156911Y-14209883D02*
X14185483Y-14209883D01*
X14185483Y-14209883D02*
X14204530Y-14219407D01*
X14204530Y-14219407D02*
X14214054Y-14228931D01*
X14214054Y-14228931D02*
X14223578Y-14247979D01*
X14223578Y-14247979D02*
X14223578Y-14305122D01*
X14223578Y-14305122D02*
X14214054Y-14324169D01*
X14214054Y-14324169D02*
X14204530Y-14333693D01*
X14204530Y-14333693D02*
X14185483Y-14343217D01*
X14185483Y-14343217D02*
X14156911Y-14343217D01*
X14337864Y-14343217D02*
X14318816Y-14333693D01*
X14318816Y-14333693D02*
X14309292Y-14314645D01*
X14309292Y-14314645D02*
X14309292Y-14143217D01*
X14490245Y-14333693D02*
X14471197Y-14343217D01*
X14471197Y-14343217D02*
X14433102Y-14343217D01*
X14433102Y-14343217D02*
X14414054Y-14333693D01*
X14414054Y-14333693D02*
X14404530Y-14314645D01*
X14404530Y-14314645D02*
X14404530Y-14238455D01*
X14404530Y-14238455D02*
X14414054Y-14219407D01*
X14414054Y-14219407D02*
X14433102Y-14209883D01*
X14433102Y-14209883D02*
X14471197Y-14209883D01*
X14471197Y-14209883D02*
X14490245Y-14219407D01*
X14490245Y-14219407D02*
X14499769Y-14238455D01*
X14499769Y-14238455D02*
X14499769Y-14257503D01*
X14499769Y-14257503D02*
X14404530Y-14276550D01*
X14575959Y-14333693D02*
X14595007Y-14343217D01*
X14595007Y-14343217D02*
X14633102Y-14343217D01*
X14633102Y-14343217D02*
X14652150Y-14333693D01*
X14652150Y-14333693D02*
X14661673Y-14314645D01*
X14661673Y-14314645D02*
X14661673Y-14305122D01*
X14661673Y-14305122D02*
X14652150Y-14286074D01*
X14652150Y-14286074D02*
X14633102Y-14276550D01*
X14633102Y-14276550D02*
X14604530Y-14276550D01*
X14604530Y-14276550D02*
X14585483Y-14267026D01*
X14585483Y-14267026D02*
X14575959Y-14247979D01*
X14575959Y-14247979D02*
X14575959Y-14238455D01*
X14575959Y-14238455D02*
X14585483Y-14219407D01*
X14585483Y-14219407D02*
X14604530Y-14209883D01*
X14604530Y-14209883D02*
X14633102Y-14209883D01*
X14633102Y-14209883D02*
X14652150Y-14219407D01*
X14728340Y-14419407D02*
X14737864Y-14409883D01*
X14737864Y-14409883D02*
X14756911Y-14381312D01*
X14756911Y-14381312D02*
X14766435Y-14362264D01*
X14766435Y-14362264D02*
X14775959Y-14333693D01*
X14775959Y-14333693D02*
X14785483Y-14286074D01*
X14785483Y-14286074D02*
X14785483Y-14247979D01*
X14785483Y-14247979D02*
X14775959Y-14200360D01*
X14775959Y-14200360D02*
X14766435Y-14171788D01*
X14766435Y-14171788D02*
X14756911Y-14152741D01*
X14756911Y-14152741D02*
X14737864Y-14124169D01*
X14737864Y-14124169D02*
X14728340Y-14114645D01*
M02*
