0
SECTION
2
HEADER
9
$INSUNITS
70
4
9
$ACADVER
1
AC1014
9
$HANDSEED
5
FFFF
0
ENDSEC
0
SECTION
2
TABLES
0
TABLE
2
VPORT
5
8
100
AcDbSymbolTable
0
ENDTAB
0
TABLE
2
LTYPE
5
5
100
AcDbSymbolTable
0
LTYPE
5
14
100
AcDbSymbolTableRecord
100
AcDbLinetypeTableRecord
2
BYBLOCK
70
0
0
LTYPE
5
15
100
AcDbSymbolTableRecord
100
AcDbLinetypeTableRecord
2
BYLAYER
70
0
0
ENDTAB
0
TABLE
2
LAYER
5
2
100
AcDbSymbolTable
70
2
0
LAYER
5
50
100
AcDbSymbolTableRecord
100
AcDbLayerTableRecord
2
0
70
0
6
CONTINUOUS
0
ENDTAB
0
TABLE
2
STYLE
5
3
100
AcDbSymbolTable
70
1
0
STYLE
5
11
100
AcDbSymbolTableRecord
100
AcDbTextStyleTableRecord
2
STANDARD
70
0
0
ENDTAB
0
TABLE
2
VIEW
5
6
100
AcDbSymbolTable
70
0
0
ENDTAB
0
TABLE
2
UCS
5
7
100
AcDbSymbolTable
70
0
0
ENDTAB
0
TABLE
2
APPID
5
9
100
AcDbSymbolTable
70
2
0
APPID
5
12
100
AcDbSymbolTableRecord
100
AcDbRegAppTableRecord
2
ACAD
70
0
0
ENDTAB
0
TABLE
2
DIMSTYLE
5
A
100
AcDbSymbolTable
70
1
0
ENDTAB
0
TABLE
2
BLOCK_RECORD
5
1
100
AcDbSymbolTable
70
1
0
BLOCK_RECORD
5
1F
100
AcDbSymbolTableRecord
100
AcDbBlockTableRecord
2
*MODEL_SPACE
0
BLOCK_RECORD
5
1B
100
AcDbSymbolTableRecord
100
AcDbBlockTableRecord
2
*PAPER_SPACE
0
ENDTAB
0
ENDSEC
0
SECTION
2
BLOCKS
0
BLOCK
5
20
100
AcDbEntity
100
AcDbBlockBegin
2
*MODEL_SPACE
0
ENDBLK
5
21
100
AcDbEntity
100
AcDbBlockEnd
0
BLOCK
5
1C
100
AcDbEntity
100
AcDbBlockBegin
2
*PAPER_SPACE
0
ENDBLK
5
1D
100
AcDbEntity
100
AcDbBlockEnd
0
ENDSEC
0
SECTION
2
ENTITIES
0
ARC
5
100
100
AcDbEntity
8
0
100
AcDbCircle
10
149.08001373948647
20
-28.716643082070199
30
0
40
26.020488573711059
210
0
220
-0
230
1
100
AcDbArc
50
0.013097465994447381
51
90.013332844820923
0
LINE
5
101
100
AcDbEntity
8
0
100
AcDbLine
10
113.0369759146911
20
-2.7043930476436016
30
0
11
149.0740656144383
21
-2.6961551884312303
31
0
0
LINE
5
102
100
AcDbEntity
8
0
100
AcDbLine
10
72.433537619703699
20
-22.929594136038851
30
0
11
99.039744190700588
21
-22.923512119268533
31
0
0
CIRCLE
5
103
100
AcDbEntity
8
0
100
AcDbCircle
10
72.687734436651013
20
-25.173821907043447
30
0
40
1.6012608353053004
210
0
220
0
230
1
0
ARC
5
104
100
AcDbEntity
8
0
100
AcDbCircle
10
72.391696438429463
20
-24.888890453824949
30
0
40
1.9597430304355186
210
0
220
-0
230
1
100
AcDbArc
50
88.776622634479182
51
178.77692966131931
0
LINE
5
105
100
AcDbEntity
8
0
100
AcDbLine
10
70.432399896460126
20
-24.847059771693875
30
0
11
70.435436133593768
21
-38.129519319875349
31
0
0
ARC
5
106
100
AcDbEntity
8
0
100
AcDbCircle
10
68.433860141758473
20
-38.129976867955968
30
0
40
2.0015760441316321
210
0
220
0
230
1
100
AcDbArc
50
-89.986902534004969
51
0.013097465994447381
0
LINE
5
107
100
AcDbEntity
8
0
100
AcDbLine
10
60.74700393192488
20
-52.133310446425838
30
0
11
60.753144626857541
21
-78.996208731281655
31
0
0
ARC
5
108
100
AcDbEntity
8
0
100
AcDbCircle
10
58.753970593630562
20
-78.996770729543243
30
0
40
1.9991741122201199
210
0
220
0
230
1
100
AcDbArc
50
-89.920942855791466
51
0.016106715615594184
0
LINE
5
109
100
AcDbEntity
8
0
100
AcDbLine
10
58.756729068116471
20
-80.995942938681225
30
0
11
49.822994272450963
21
-80.997985136042345
31
0
0
ARC
5
110
100
AcDbEntity
8
0
100
AcDbCircle
10
49.823451820531595
20
-82.999561127877627
30
0
40
2.0015760441316361
210
0
220
0
230
1
100
AcDbArc
50
90.013097465994235
51
180.01309746599443
0
CIRCLE
5
111
100
AcDbEntity
8
0
100
AcDbCircle
10
50.063920409831262
20
-83.309598108846515
30
0
40
1.6012608353053004
210
0
220
0
230
1
0
LINE
5
112
100
AcDbEntity
8
0
100
AcDbLine
10
47.821875828696314
20
-83.000018675958259
30
0
11
47.825741239368412
21
-99.909527266222554
31
0
0
ARC
5
113
100
AcDbEntity
8
0
100
AcDbCircle
10
57.833621198544883
20
-99.907239526311642
30
0
40
10.007880220658114
210
0
220
0
230
1
100
AcDbArc
50
180.01309746315607
51
270.01366573773305
0
LINE
5
114
100
AcDbEntity
8
0
100
AcDbLine
10
118.68302042722422
20
-109.90121020591424
30
0
11
57.836008199231927
21
-109.91511946230547
31
0
0
ARC
5
115
100
AcDbEntity
8
0
100
AcDbCircle
10
118.48439993868533
20
-83.534797456779216
30
0
40
26.367160851259989
210
0
220
0
230
1
100
AcDbArc
50
270.43160594388405
51
295.43151435278952
0
CIRCLE
5
116
100
AcDbEntity
8
0
100
AcDbCircle
10
123.66497399541953
20
-105.75837431060697
30
0
40
1.6012608353053004
210
0
220
0
230
1
0
LINE
5
117
100
AcDbEntity
8
0
100
AcDbLine
10
129.80730069318739
20
-107.34696010236676
30
0
11
129.80475853347284
21
-96.226105120111995
31
0
0
ARC
5
118
100
AcDbEntity
8
0
100
AcDbCircle
10
132.80712249689464
20
-96.225319537707378
30
0
40
3.002364066197444
210
0
220
0
230
1
100
AcDbArc
50
90.013097434680446
51
180.01499170512955
0
LINE
5
119
100
AcDbEntity
8
0
100
AcDbLine
10
160.09164735239415
20
-93.216718316866704
30
0
11
132.80643617641456
21
-93.222955549954079
31
0
0
ARC
5
120
100
AcDbEntity
8
0
100
AcDbCircle
10
149.08932084847072
20
-69.636703868959145
30
0
40
26.020535541423136
210
0
220
0
230
1
100
AcDbArc
50
-64.986459211088786
51
0.01319225408857525
0
CIRCLE
5
121
100
AcDbEntity
8
0
100
AcDbCircle
10
171.59631520903073
20
-69.651143420098919
30
0
40
1.6012608353053004
210
0
220
0
230
1
0
LINE
5
122
100
AcDbEntity
8
0
100
AcDbLine
10
175.10050163334498
20
-28.710694957021875
30
0
11
175.10985570016408
21
-69.630712685729478
31
0
0
CIRCLE
5
123
100
AcDbEntity
8
0
100
AcDbCircle
10
169.54870291588406
20
-19.34893538221381
30
0
40
1.6012608353053004
210
0
220
0
230
1
0
LINE
5
124
100
AcDbEntity
8
0
100
AcDbLine
10
99.039744190700588
20
-22.923512119268533
30
0
11
103.03974408619025
21
-22.922597743655434
31
0
0
LINE
5
125
100
AcDbEntity
8
0
100
AcDbLine
10
105.03928689837174
20
-20.922597743667374
30
0
11
105.03928689837174
21
-14.814180939372418
31
0
0
ARC
5
126
100
AcDbEntity
8
0
100
AcDbCircle
10
103.03928689837171
20
-20.922597743667374
30
0
40
2.0000000522432346
210
0
220
0
230
1
100
AcDbArc
50
-89.9869025340045
51
0
0
LINE
5
127
100
AcDbEntity
8
0
100
AcDbLine
10
107.03928689837171
20
-12.814180939372422
30
0
11
109.03882965829808
21
-12.814180939372415
31
0
0
LINE
5
128
100
AcDbEntity
8
0
100
AcDbLine
10
111.0388296060429
20
-10.813723751565867
30
0
11
111.03743315475282
21
-4.7048501831949761
31
0
0
ARC
5
129
100
AcDbEntity
8
0
100
AcDbCircle
10
113.03743310249764
20
-4.7043929953884289
30
0
40
2.0000000000000004
210
0
220
0
230
1
100
AcDbArc
50
90.013097465994036
51
180.01309746596661
0
ARC
5
130
100
AcDbEntity
8
0
100
AcDbCircle
10
109.03882965829808
20
-10.814180939372415
30
0
40
1.9999999999999996
210
0
220
0
230
1
100
AcDbArc
50
-90
51
0.013097465966620264
0
ARC
5
131
100
AcDbEntity
8
0
100
AcDbCircle
10
107.03928689837171
20
-14.814180939372418
30
0
40
1.9999999999999973
210
0
220
-0
230
1
100
AcDbArc
50
90
51
180
0
LINE
5
132
100
AcDbEntity
8
0
100
AcDbLine
10
65.590534431186555
20
-42.13220298357858
30
0
11
65.591905994606222
21
-48.132202826813064
31
0
0
LINE
5
133
100
AcDbEntity
8
0
100
AcDbLine
10
63.59236323466795
20
-50.132659962364443
30
0
11
62.746546691863152
21
-50.132853310874467
31
0
0
LINE
5
134
100
AcDbEntity
8
0
100
AcDbLine
10
67.59007719112482
20
-40.131745848027201
30
0
11
68.434317689839133
21
-40.131552859791249
31
0
0
ARC
5
135
100
AcDbEntity
8
0
100
AcDbCircle
10
67.59053437893138
20
-42.131745795772026
30
0
40
1.9999999999999971
210
0
220
0
230
1
100
AcDbArc
50
90.013097465994448
51
180.01309746596661
0
ARC
5
136
100
AcDbEntity
8
0
100
AcDbCircle
10
63.591906046861396
20
-48.132660014619617
30
0
40
1.9999999999999971
210
0
220
0
230
1
100
AcDbArc
50
-89.986902534005736
51
0.013097465966620264
0
ARC
5
137
100
AcDbEntity
8
0
100
AcDbCircle
10
62.747003879669705
20
-52.132853258619292
30
0
40
1.9999999999999971
210
0
220
0
230
1
100
AcDbArc
50
90.013097465994235
51
180.01309746596661
0
ENDSEC
0
SECTION
2
OBJECTS
0
DICTIONARY
5
C
100
AcDbDictionary
3
ACAD_GROUP
350
D
3
ACAD_MLINESTYLE
350
17
0
DICTIONARY
5
D
100
AcDbDictionary
0
DICTIONARY
5
1A
330
C
100
AcDbDictionary
0
DICTIONARY
5
17
100
AcDbDictionary
0
ENDSEC
0
EOF
