0
SECTION
2
HEADER
9
$INSUNITS
70
4
9
$ACADVER
1
AC1014
9
$HANDSEED
5
FFFF
0
ENDSEC
0
SECTION
2
TABLES
0
TABLE
2
VPORT
5
8
100
AcDbSymbolTable
0
ENDTAB
0
TABLE
2
LTYPE
5
5
100
AcDbSymbolTable
0
LTYPE
5
14
100
AcDbSymbolTableRecord
100
AcDbLinetypeTableRecord
2
BYBLOCK
70
0
0
LTYPE
5
15
100
AcDbSymbolTableRecord
100
AcDbLinetypeTableRecord
2
BYLAYER
70
0
0
ENDTAB
0
TABLE
2
LAYER
5
2
100
AcDbSymbolTable
70
2
0
LAYER
5
50
100
AcDbSymbolTableRecord
100
AcDbLayerTableRecord
2
0
70
0
6
CONTINUOUS
0
ENDTAB
0
TABLE
2
STYLE
5
3
100
AcDbSymbolTable
70
1
0
STYLE
5
11
100
AcDbSymbolTableRecord
100
AcDbTextStyleTableRecord
2
STANDARD
70
0
0
ENDTAB
0
TABLE
2
VIEW
5
6
100
AcDbSymbolTable
70
0
0
ENDTAB
0
TABLE
2
UCS
5
7
100
AcDbSymbolTable
70
0
0
ENDTAB
0
TABLE
2
APPID
5
9
100
AcDbSymbolTable
70
2
0
APPID
5
12
100
AcDbSymbolTableRecord
100
AcDbRegAppTableRecord
2
ACAD
70
0
0
ENDTAB
0
TABLE
2
DIMSTYLE
5
A
100
AcDbSymbolTable
70
1
0
ENDTAB
0
TABLE
2
BLOCK_RECORD
5
1
100
AcDbSymbolTable
70
1
0
BLOCK_RECORD
5
1F
100
AcDbSymbolTableRecord
100
AcDbBlockTableRecord
2
*MODEL_SPACE
0
BLOCK_RECORD
5
1B
100
AcDbSymbolTableRecord
100
AcDbBlockTableRecord
2
*PAPER_SPACE
0
ENDTAB
0
ENDSEC
0
SECTION
2
BLOCKS
0
BLOCK
5
20
100
AcDbEntity
100
AcDbBlockBegin
2
*MODEL_SPACE
0
ENDBLK
5
21
100
AcDbEntity
100
AcDbBlockEnd
0
BLOCK
5
1C
100
AcDbEntity
100
AcDbBlockBegin
2
*PAPER_SPACE
0
ENDBLK
5
1D
100
AcDbEntity
100
AcDbBlockEnd
0
ENDSEC
0
SECTION
2
ENTITIES
0
CIRCLE
5
100
100
AcDbEntity
8
0
100
AcDbCircle
10
32.533401272030851
20
49.928320027464856
30
0
40
1.6012608353053182
210
0
220
0
230
1
0
CIRCLE
5
101
100
AcDbEntity
8
0
100
AcDbCircle
10
80.464742485642077
20
13.821089136956815
30
0
40
1.6012608353053182
210
0
220
0
230
1
0
CIRCLE
5
102
100
AcDbEntity
8
0
100
AcDbCircle
10
78.417130192495392
20
-36.481118900928287
30
0
40
1.6012608353052826
210
0
220
0
230
1
0
LWPOLYLINE
5
103
100
AcDbEntity
8
0
100
AcDbPolyline
90
30
70
1
43
0.0
10
-3.8353965388476348
20
47.893612085169039
10
-3.8353965388476219
20
29.25000258374758
10
-3.8379756417426347
20
17.967537081957509
42
-0.41421356237309437
10
-5.8384327772940123
20
15.967994322019228
10
-11.83843262052849
20
15.969365885438886
42
0.41421356237309437
10
-13.838889756079869
20
13.969823125500609
10
-13.846861143877007
20
-20.901568782392111
42
0.41421356237309503
10
-11.847318383938731
20
-22.90202591794349
10
-9.84783348930568
20
-22.902482569970644
42
-0.41414661033918015
10
-7.8482904682348824
20
-24.902482726736139
10
-7.8482904682348824
20
-28.902483040314966
10
-7.8482904682348789
20
-30.903397468207135
42
0.41414661035317385
10
-5.8487476560414304
20
-32.903397415951972
10
11.908171362801578
20
-32.907456539486674
42
-0.4141466103531663
10
13.907714227226277
20
-34.907456539474722
10
13.907714174983052
20
-41.015873343769684
42
0.41421356237310381
10
15.907714174983045
20
-43.015873343769684
10
17.907256934909416
20
-43.015873343769684
42
-0.41428051756282647
10
19.907256882654242
20
-45.016330531576223
10
19.90586043136414
20
-51.125204099947119
42
0.41421356237308787
10
21.905403191302423
20
-53.125661235498505
10
57.942492891049611
20
-53.133899094710912
42
0.41421356237309509
10
83.96892890995629
20
-27.119359326120232
10
83.978282976775418
20
13.800658402587359
42
0.29147176961707771
10
68.960074629005504
20
37.386664033724614
10
41.674863453025921
20
37.392901266811968
42
-0.41422324582398762
10
38.673185810084149
20
40.396050836969899
10
38.675727969798714
20
51.516905819224661
42
0.10951740724835364
10
27.551447703835564
20
54.071155922772157
10
2.3476034611523682
20
54.076612085169032
42
0.41421356237309304
0
LWPOLYLINE
5
104
100
AcDbEntity
8
0
100
AcDbPolyline
90
2
70
1
43
0.0
10
-9.8487478650143405
20
-26.902482883501669
42
-5.7161528128889285e-05
10
-9.8482905727459968
20
-26.902482935756822
42
-5.7161528128931033e-05
0
ENDSEC
0
SECTION
2
OBJECTS
0
DICTIONARY
5
C
100
AcDbDictionary
3
ACAD_GROUP
350
D
3
ACAD_MLINESTYLE
350
17
0
DICTIONARY
5
D
100
AcDbDictionary
0
DICTIONARY
5
1A
330
C
100
AcDbDictionary
0
DICTIONARY
5
17
100
AcDbDictionary
0
ENDSEC
0
EOF
