M48
; DRILL file {KiCad 7.0.8} date Sun Oct  8 23:51:34 2023
; FORMAT={-:-/ absolute / metric / decimal}
; #@! TF.CreationDate,2023-10-08T23:51:34-04:00
; #@! TF.GenerationSoftware,Kicad,Pcbnew,7.0.8
; #@! TF.FileFunction,Plated,1,2,PTH
FMAT,2
METRIC
; #@! TA.AperFunction,Plated,PTH,ViaDrill
T1C0.400
; #@! TA.AperFunction,Plated,PTH,ComponentDrill
T2C0.600
; #@! TA.AperFunction,Plated,PTH,ComponentDrill
T3C0.750
; #@! TA.AperFunction,Plated,PTH,ComponentDrill
T4C0.900
; #@! TA.AperFunction,Plated,PTH,ComponentDrill
T5C1.100
%
G90
G05
T1
X137.719Y-58.979
T2
X143.594Y-70.628
X143.594Y-72.628
T3
X106.274Y-65.158
X106.274Y-67.158
X107.831Y-39.98
X109.831Y-39.98
X111.831Y-39.98
X113.831Y-39.98
X115.831Y-39.98
X117.831Y-39.98
X182.626Y-88.266
X182.626Y-90.266
X182.626Y-92.266
X182.626Y-94.266
X182.626Y-96.266
X182.626Y-98.266
T4
X104.902Y-48.768
X104.902Y-58.928
T5
X100.354Y-76.156
X100.354Y-80.656
X106.854Y-76.156
X106.854Y-80.656
X112.854Y-76.156
X112.854Y-80.656
X115.795Y-49.775
X115.795Y-54.855
X115.795Y-59.935
X119.354Y-76.156
X119.354Y-80.656
X119.549Y-95.489
X119.549Y-100.569
X119.549Y-105.649
X122.848Y-114.201
X122.848Y-119.281
X122.848Y-124.361
X130.35Y-61.988
X130.35Y-67.068
X130.35Y-72.148
X131.665Y-31.869
X131.665Y-36.949
X131.665Y-42.029
X134.104Y-83.276
X134.104Y-88.356
X134.104Y-93.436
X137.403Y-101.988
X137.403Y-107.068
X137.403Y-112.148
X142.563Y-47.433
X142.563Y-52.513
X142.563Y-57.593
X143.764Y-62.738
X143.764Y-80.518
X146.304Y-62.738
X146.304Y-80.518
X148.844Y-62.738
X148.844Y-80.518
X151.384Y-62.738
X151.384Y-80.518
X151.958Y-89.775
X151.958Y-94.855
X151.958Y-99.935
X153.919Y-23.08
X153.919Y-28.16
X153.919Y-33.24
X153.924Y-62.738
X153.924Y-80.518
X156.464Y-62.738
X156.464Y-80.518
X159.004Y-62.738
X159.004Y-80.518
X160.417Y-40.934
X160.417Y-46.014
X160.417Y-51.094
X161.544Y-62.738
X161.544Y-80.518
X164.084Y-62.738
X164.084Y-80.518
X166.624Y-62.738
X166.624Y-80.518
X169.164Y-62.738
X169.164Y-80.518
X171.704Y-62.738
X171.704Y-80.518
X174.244Y-62.738
X174.244Y-80.518
X176.784Y-62.738
X176.784Y-80.518
X177.472Y-25.306
X177.472Y-30.386
X177.472Y-35.466
X179.128Y-44.234
X179.128Y-49.314
X179.128Y-54.394
X179.324Y-62.738
X179.324Y-80.518
X181.864Y-62.738
X181.864Y-80.518
X184.404Y-62.738
X184.404Y-80.518
X186.944Y-62.738
X186.944Y-80.518
X189.484Y-62.738
X189.484Y-80.518
X191.794Y-69.088
X191.794Y-71.628
X191.794Y-74.168
X192.024Y-62.738
X192.024Y-80.518
T0
M30
